<?xml version="1.0" encoding="UTF-8"?> <svg xmlns="http://www.w3.org/2000/svg" width="44" height="44" viewBox="0 0 44 44" fill="none"><path d="M9.1748 20.2267L16.125 14.4297" stroke="#B0B0B0" stroke-width="2" stroke-linecap="round" stroke-linejoin="round"></path><path d="M18.8057 13.9141L25.2415 16.0646" stroke="#B0B0B0" stroke-width="2" stroke-linejoin="round"></path><path d="M35.0116 6.82031L27.6875 15.36" stroke="#B0B0B0" stroke-width="2" stroke-linecap="round" stroke-linejoin="round"></path><path d="M10.3127 32.1328H5.6377V39.9244H10.3127V32.1328Z" stroke="#B0B0B0" stroke-width="2" stroke-linecap="round" stroke-linejoin="round"></path><path d="M19.6623 24.3359H14.9873V39.9193H19.6623V24.3359Z" stroke="#E07807" stroke-width="2" stroke-linecap="round" stroke-linejoin="round"></path><path d="M29.0129 27.4531H24.3379V39.9198H29.0129V27.4531Z" stroke="#B0B0B0" stroke-width="2" stroke-linecap="round" stroke-linejoin="round"></path><path d="M38.3625 16.5469H33.6875V39.9219H38.3625V16.5469Z" stroke="#007DFF" stroke-width="2" stroke-linecap="round" stroke-linejoin="round"></path><path d="M7.97531 22.7807C8.83595 22.7807 9.53368 22.083 9.53368 21.2224C9.53368 20.3617 8.83595 19.6641 7.97531 19.6641C7.11467 19.6641 6.41699 20.3617 6.41699 21.2224C6.41699 22.083 7.11467 22.7807 7.97531 22.7807Z" stroke="#B0B0B0" stroke-width="2" stroke-linecap="round" stroke-linejoin="round"></path><path d="M17.3249 14.9839C18.1856 14.9839 18.8833 14.2862 18.8833 13.4256C18.8833 12.5649 18.1856 11.8672 17.3249 11.8672C16.4643 11.8672 15.7666 12.5649 15.7666 13.4256C15.7666 14.2862 16.4643 14.9839 17.3249 14.9839Z" stroke="#E07807" stroke-width="2" stroke-linecap="round" stroke-linejoin="round"></path><path d="M26.6745 18.105C27.5352 18.105 28.2329 17.4072 28.2329 16.5466C28.2329 15.686 27.5352 14.9883 26.6745 14.9883C25.8139 14.9883 25.1162 15.686 25.1162 16.5466C25.1162 17.4072 25.8139 18.105 26.6745 18.105Z" stroke="#B0B0B0" stroke-width="2" stroke-linecap="round" stroke-linejoin="round"></path><path d="M36.0251 7.19477C36.8858 7.19477 37.5835 6.4971 37.5835 5.63646C37.5835 4.77582 36.8858 4.07812 36.0251 4.07812C35.1645 4.07812 34.4668 4.77582 34.4668 5.63646C34.4668 6.4971 35.1645 7.19477 36.0251 7.19477Z" stroke="#007DFF" stroke-width="2" stroke-linecap="round" stroke-linejoin="round"></path><path d="M4.0791 39.9219H39.9208" stroke="#B0B0B0" stroke-width="2" stroke-linecap="round" stroke-linejoin="round"></path></svg> 