<?xml version="1.0" encoding="UTF-8" standalone="no"?>
<svg
   xmlns:dc="http://purl.org/dc/elements/1.1/"
   xmlns:cc="http://creativecommons.org/ns#"
   xmlns:rdf="http://www.w3.org/1999/02/22-rdf-syntax-ns#"
   xmlns:svg="http://www.w3.org/2000/svg"
   xmlns="http://www.w3.org/2000/svg"
   xmlns:xlink="http://www.w3.org/1999/xlink"
   version="1.1"
   id="Layer_1"
   x="0px"
   y="0px"
   viewBox="0 0 1100 237"
   xml:space="preserve"
   width="1100"
   height="237"><metadata
   id="metadata200"><rdf:RDF><cc:Work
       rdf:about=""><dc:format>image/svg+xml</dc:format><dc:type
         rdf:resource="http://purl.org/dc/dcmitype/StillImage" /><dc:title></dc:title></cc:Work></rdf:RDF></metadata><defs
   id="defs198"><linearGradient
     xlink:href="#SVGID_1_"
     id="linearGradient862"
     x1="460.85138"
     y1="121.78142"
     x2="460.85138"
     y2="19.859739"
     gradientUnits="userSpaceOnUse"
     gradientTransform="matrix(0.99792961,0,0,0.98683902,-168.03866,-18.99161)" /><linearGradient
     xlink:href="#SVGID_1_"
     id="linearGradient1083"
     gradientUnits="userSpaceOnUse"
     gradientTransform="matrix(0.99792961,0,0,0.98683902,-168.03866,-18.99161)"
     x1="460.85138"
     y1="121.78142"
     x2="460.85138"
     y2="19.859739" /></defs>
<style
   type="text/css"
   id="style132">
	.st0{fill:url(#SVGID_1_);}
	.st1{fill:#FFFFFF;}
	.st2{fill:#939598;}
	.st3{fill:#FF8400;}
	.st4{fill:url(#SVGID_2_);}
</style>
<g
   id="g193"
   transform="translate(313.22643,67.247685)">
	<linearGradient
   id="SVGID_1_"
   gradientUnits="userSpaceOnUse"
   x1="610.09967"
   y1="101.1704"
   x2="610.09967"
   y2="-0.087783419"
   gradientTransform="matrix(0.99286375,0,0,1,-312.45179,0)">
		<stop
   offset="0"
   style="stop-color:#0097FF"
   id="stop134" />
		<stop
   offset="1"
   style="stop-color:#0A31E0"
   id="stop136" />
	</linearGradient>
	
	
	
<g
   id="g1081"
   transform="matrix(2.3224585,0,0,2.3224585,-313.12321,-67.79805)"><path
     id="rect31"
     style="fill:url(#linearGradient1083);fill-opacity:1;stroke-width:0.992368"
     d="m 134.13667,0.23697528 h 317.68741 c 12.0592,0 21.7675,9.70830582 21.7675,21.76750172 v 58.524399 c 0,12.059196 -9.7083,21.767504 -21.7675,21.767504 H 134.13667 c -12.05919,0 -21.7675,-9.708308 -21.7675,-21.767504 V 22.004477 c 0,-12.0591959 9.70831,-21.76750172 21.7675,-21.76750172 z" /><g
     id="g191">
		
		<g
   id="g189">
			<g
   id="g179">
				<path
   class="st3"
   d="m 67.2,77.5 c -0.6,0 -1.1,-0.3 -1.4,-0.8 -0.5,-0.8 -0.2,-1.8 0.6,-2.3 L 96.7,56.5 66.3,38.7 c -0.8,-0.5 -1.1,-1.5 -0.6,-2.3 0.5,-0.8 1.5,-1.1 2.3,-0.6 L 103.2,56.5 68,77.3 c -0.2,0.1 -0.5,0.2 -0.8,0.2 z"
   id="path177" />
			</g>
			<g
   id="g183"
   style="stroke-width:0.99980258;stroke-miterlimit:4;stroke-dasharray:none">
				<path
   class="st3"
   d="m 34.4,77.5 c -0.6,0 -1.1,-0.3 -1.4,-0.8 -0.5,-0.8 -0.2,-1.8 0.6,-2.3 L 63.9,56.5 33.6,38.7 c -0.8,-0.5 -1.1,-1.5 -0.6,-2.3 0.5,-0.8 1.5,-1.1 2.3,-0.6 L 70.5,56.5 35.3,77.3 c -0.3,0.1 -0.6,0.2 -0.9,0.2 z"
   id="path181"
   style="stroke-width:0.99980258;stroke-miterlimit:4;stroke-dasharray:none" />
			</g>
			<g
   id="g187">
				<path
   class="st3"
   d="M 1.7,77.5 C 1.1,77.5 0.6,77.2 0.3,76.7 -0.2,75.9 0.1,74.9 0.9,74.4 L 31.2,56.5 0.8,38.7 C 0,38.2 -0.3,37.2 0.2,36.4 0.7,35.6 1.7,35.3 2.5,35.8 L 37.7,56.5 2.5,77.3 C 2.3,77.4 2,77.5 1.7,77.5 Z"
   id="path185" />
			</g>
		</g>
	</g><g
     aria-label="nautobot"
     id="text208"
     style="font-style:normal;font-weight:normal;font-size:71.0738px;line-height:1.25;font-family:sans-serif;fill:#ffffff;fill-opacity:1;stroke:none;stroke-width:1.77685"><path
       d="m 134.73124,41.721487 v 4.407409 q 3.05395,-3.088657 5.51794,-4.268593 2.46398,-1.179936 5.55264,-1.179936 3.33158,0 6.0732,1.422864 1.94342,1.04112 3.5051,3.4704 1.59639,2.394577 1.59639,4.927969 v 18.358418 h 2.46398 q 1.04112,0 1.49227,0.416448 0.45115,0.381744 0.45115,1.04112 0,0.624672 -0.45115,1.04112 -0.45115,0.416448 -1.49227,0.416448 h -7.8084 q -1.07582,0 -1.52698,-0.416448 -0.45115,-0.416448 -0.45115,-1.04112 0,-0.659376 0.45115,-1.04112 0.45116,-0.416448 1.52698,-0.416448 h 2.42928 V 50.987456 q 0,-3.088656 -2.25576,-5.2056 -2.25576,-2.151649 -6.0385,-2.151649 -2.88043,0 -4.99737,1.179936 -2.11695,1.145233 -6.0385,5.760865 v 18.28901 h 3.29688 q 1.04112,0 1.49227,0.416448 0.45115,0.381744 0.45115,1.04112 0,0.624672 -0.45115,1.04112 -0.45115,0.416448 -1.49227,0.416448 h -9.5089 q -1.04112,0 -1.49227,-0.416448 -0.45115,-0.416448 -0.45115,-1.04112 0,-0.659376 0.45115,-1.04112 0.45115,-0.416448 1.49227,-0.416448 h 3.29688 V 44.671327 h -2.46398 q -1.04112,0 -1.49227,-0.416448 -0.45116,-0.416448 -0.45116,-1.075824 0,-0.624672 0.45116,-1.04112 0.45115,-0.416448 1.49227,-0.416448 z"
       style="font-style:normal;font-variant:normal;font-weight:normal;font-stretch:normal;font-size:71.0738px;font-family:'Courier New';-inkscape-font-specification:'Courier New, Normal';font-variant-ligatures:normal;font-variant-caps:normal;font-variant-numeric:normal;font-variant-east-asian:normal;fill:#ffffff;stroke-width:1.77685"
       id="path1085" /><path
       d="M 195.15091,71.775154 V 67.57597 q -6.35083,5.344416 -13.56927,5.344416 -5.2403,0 -8.19014,-2.637504 -2.94984,-2.672208 -2.94984,-6.524353 0,-4.233888 3.88685,-7.391952 3.88685,-3.158065 11.34821,-3.158065 2.01283,0 4.3727,0.277632 2.35987,0.242928 5.10149,0.798192 v -4.719744 q 0,-2.394576 -2.22106,-4.164481 -2.22105,-1.769904 -6.66317,-1.769904 -3.40099,0 -9.5436,1.978128 -1.11052,0.347041 -1.42286,0.347041 -0.55526,0 -0.97171,-0.416449 -0.38175,-0.416448 -0.38175,-1.04112 0,-0.589968 0.34704,-0.937008 0.48586,-0.52056 3.92156,-1.422864 5.41382,-1.457568 8.19014,-1.457568 5.51794,0 8.60659,2.741616 3.08866,2.706913 3.08866,6.142609 v 19.295426 h 3.88685 q 1.07582,0 1.52697,0.416448 0.45116,0.381744 0.45116,1.04112 0,0.624672 -0.45116,1.04112 -0.45115,0.416448 -1.52697,0.416448 z m 0,-14.506273 q -2.04754,-0.589968 -4.338,-0.8676 -2.29047,-0.277632 -4.82386,-0.277632 -6.35083,0 -9.92534,2.741616 -2.70691,2.047536 -2.70691,4.893264 0,2.637505 2.04753,4.442113 2.08224,1.804608 6.0385,1.804608 3.78273,0 7.01021,-1.492272 3.26217,-1.526976 6.69787,-4.823857 z"
       style="font-style:normal;font-variant:normal;font-weight:normal;font-stretch:normal;font-size:71.0738px;font-family:'Courier New';-inkscape-font-specification:'Courier New, Normal';font-variant-ligatures:normal;font-variant-caps:normal;font-variant-numeric:normal;font-variant-east-asian:normal;fill:#ffffff;stroke-width:1.77685"
       id="path1087" /><path
       d="m 239.36381,71.775154 v -4.268592 q -5.96909,5.413824 -12.90989,5.413824 -4.26859,0 -6.48965,-2.325168 -2.88043,-3.053952 -2.88043,-7.114321 v -18.80957 h -3.92155 q -1.04112,0 -1.49227,-0.416448 -0.45116,-0.416448 -0.45116,-1.075824 0,-0.624672 0.45116,-1.04112 0.45115,-0.416448 1.49227,-0.416448 h 6.83669 v 21.75941 q 0,2.845729 1.8046,4.685041 1.80461,1.839312 4.51152,1.839312 7.11433,0 13.04871,-6.524353 v -18.80957 h -5.37912 q -1.04112,0 -1.49227,-0.416448 -0.45115,-0.416448 -0.45115,-1.075824 0,-0.624672 0.45115,-1.04112 0.45115,-0.416448 1.49227,-0.416448 h 8.29426 v 27.138531 h 2.46398 q 1.04112,0 1.49227,0.416448 0.45115,0.381744 0.45115,1.04112 0,0.624672 -0.45115,1.04112 -0.45115,0.416448 -1.49227,0.416448 z"
       style="font-style:normal;font-variant:normal;font-weight:normal;font-stretch:normal;font-size:71.0738px;font-family:'Courier New';-inkscape-font-specification:'Courier New, Normal';font-variant-ligatures:normal;font-variant-caps:normal;font-variant-numeric:normal;font-variant-east-asian:normal;fill:#ffffff;stroke-width:1.77685"
       id="path1089" /><path
       d="m 266.01648,41.721487 h 15.82503 q 1.04112,0 1.49227,0.416448 0.45115,0.416448 0.45115,1.075824 0,0.624672 -0.45115,1.04112 -0.45115,0.416448 -1.49227,0.416448 h -15.82503 v 19.399538 q 0,2.533393 2.01284,4.233889 2.04753,1.700496 5.96909,1.700496 2.94984,0 6.38553,-0.8676 3.4357,-0.902304 5.34442,-2.012832 0.69408,-0.451152 1.14523,-0.451152 0.55526,0 0.97171,0.451152 0.41645,0.416448 0.41645,1.006416 0,0.52056 -0.45115,0.971712 -1.11053,1.145232 -5.41383,2.498688 -4.26859,1.318752 -8.19014,1.318752 -5.10149,0 -8.12074,-2.394576 -3.01925,-2.394576 -3.01925,-6.454945 V 44.671327 h -5.37912 q -1.04112,0 -1.49227,-0.416448 -0.45115,-0.416448 -0.45115,-1.075824 0,-0.624672 0.45115,-1.04112 0.45115,-0.416448 1.49227,-0.416448 h 5.37912 v -8.606593 q 0,-1.04112 0.41645,-1.492272 0.41645,-0.451152 1.04112,-0.451152 0.65938,0 1.07583,0.451152 0.41644,0.451152 0.41644,1.492272 z"
       style="font-style:normal;font-variant:normal;font-weight:normal;font-stretch:normal;font-size:71.0738px;font-family:'Courier New';-inkscape-font-specification:'Courier New, Normal';font-variant-ligatures:normal;font-variant-caps:normal;font-variant-numeric:normal;font-variant-east-asian:normal;fill:#ffffff;stroke-width:1.77685"
       id="path1091" /><path
       d="m 330.91297,56.817729 q 0,6.663168 -4.78915,11.382913 -4.75445,4.719744 -11.48703,4.719744 -6.80198,0 -11.55643,-4.719744 -4.75445,-4.754449 -4.75445,-11.382913 0,-6.663169 4.75445,-11.382914 4.75445,-4.754448 11.55643,-4.754448 6.73258,0 11.48703,4.719744 4.78915,4.719745 4.78915,11.417618 z m -2.94984,0 q 0,-5.483233 -3.92155,-9.335377 -3.88685,-3.852145 -9.43949,-3.852145 -5.55264,0 -9.47419,3.886849 -3.88685,3.852144 -3.88685,9.300673 0,5.413824 3.88685,9.300673 3.92155,3.886848 9.47419,3.886848 5.55264,0 9.43949,-3.852144 3.92155,-3.886849 3.92155,-9.335377 z"
       style="font-style:normal;font-variant:normal;font-weight:normal;font-stretch:normal;font-size:71.0738px;font-family:'Courier New';-inkscape-font-specification:'Courier New, Normal';font-variant-ligatures:normal;font-variant-caps:normal;font-variant-numeric:normal;font-variant-east-asian:normal;fill:#ffffff;stroke-width:1.77685"
       id="path1093" /><path
       d="m 346.25214,28.22163 v 19.33013 q 5.27501,-6.871393 12.73637,-6.871393 6.38554,0 10.93176,4.650336 4.54622,4.615633 4.54622,11.34821 0,6.801984 -4.61563,11.521729 -4.58093,4.719744 -10.86235,4.719744 -7.63488,0 -12.73637,-6.871392 v 5.72616 h -6.83669 q -1.04112,0 -1.49227,-0.416448 -0.45115,-0.416448 -0.45115,-1.04112 0,-0.659376 0.45115,-1.04112 0.45115,-0.416448 1.49227,-0.416448 H 343.337 V 31.17147 h -3.92155 q -1.04112,0 -1.49227,-0.416448 -0.45115,-0.416448 -0.45115,-1.075824 0,-0.624672 0.45115,-1.04112 0.45115,-0.416448 1.49227,-0.416448 z m 25.29922,28.596099 q 0,-5.517937 -3.78274,-9.335377 -3.78273,-3.852145 -8.84952,-3.852145 -5.06678,0 -8.84952,3.852145 -3.78274,3.81744 -3.78274,9.335377 0,5.517936 3.78274,9.370081 3.78274,3.81744 8.84952,3.81744 5.06679,0 8.84952,-3.81744 3.78274,-3.852145 3.78274,-9.370081 z"
       style="font-style:normal;font-variant:normal;font-weight:normal;font-stretch:normal;font-size:71.0738px;font-family:'Courier New';-inkscape-font-specification:'Courier New, Normal';font-variant-ligatures:normal;font-variant-caps:normal;font-variant-numeric:normal;font-variant-east-asian:normal;fill:#ffffff;stroke-width:1.77685"
       id="path1095" /><path
       d="m 416.146,56.817729 q 0,6.663168 -4.78915,11.382913 -4.75445,4.719744 -11.48702,4.719744 -6.80199,0 -11.55644,-4.719744 -4.75445,-4.754449 -4.75445,-11.382913 0,-6.663169 4.75445,-11.382914 4.75445,-4.754448 11.55644,-4.754448 6.73257,0 11.48702,4.719744 4.78915,4.719745 4.78915,11.417618 z m -2.94984,0 q 0,-5.483233 -3.92155,-9.335377 -3.88685,-3.852145 -9.43949,-3.852145 -5.55264,0 -9.47419,3.886849 -3.88685,3.852144 -3.88685,9.300673 0,5.413824 3.88685,9.300673 3.92155,3.886848 9.47419,3.886848 5.55264,0 9.43949,-3.852144 3.92155,-3.886849 3.92155,-9.335377 z"
       style="font-style:normal;font-variant:normal;font-weight:normal;font-stretch:normal;font-size:71.0738px;font-family:'Courier New';-inkscape-font-specification:'Courier New, Normal';font-variant-ligatures:normal;font-variant-caps:normal;font-variant-numeric:normal;font-variant-east-asian:normal;fill:#ffffff;stroke-width:1.77685"
       id="path1097" /><path
       d="m 436.48255,41.721487 h 15.82502 q 1.04112,0 1.49228,0.416448 0.45115,0.416448 0.45115,1.075824 0,0.624672 -0.45115,1.04112 -0.45116,0.416448 -1.49228,0.416448 h -15.82502 v 19.399538 q 0,2.533393 2.01283,4.233889 2.04754,1.700496 5.96909,1.700496 2.94984,0 6.38554,-0.8676 3.43569,-0.902304 5.34441,-2.012832 0.69408,-0.451152 1.14523,-0.451152 0.55527,0 0.97172,0.451152 0.41644,0.416448 0.41644,1.006416 0,0.52056 -0.45115,0.971712 -1.11053,1.145232 -5.41382,2.498688 -4.26859,1.318752 -8.19015,1.318752 -5.10148,0 -8.12073,-2.394576 -3.01925,-2.394576 -3.01925,-6.454945 V 44.671327 h -5.37912 q -1.04112,0 -1.49227,-0.416448 -0.45116,-0.416448 -0.45116,-1.075824 0,-0.624672 0.45116,-1.04112 0.45115,-0.416448 1.49227,-0.416448 h 5.37912 v -8.606593 q 0,-1.04112 0.41645,-1.492272 0.41644,-0.451152 1.04112,-0.451152 0.65937,0 1.07582,0.451152 0.41645,0.451152 0.41645,1.492272 z"
       style="font-style:normal;font-variant:normal;font-weight:normal;font-stretch:normal;font-size:71.0738px;font-family:'Courier New';-inkscape-font-specification:'Courier New, Normal';font-variant-ligatures:normal;font-variant-caps:normal;font-variant-numeric:normal;font-variant-east-asian:normal;fill:#ffffff;stroke-width:1.77685"
       id="path1099" /></g></g></g>
</svg>
