<svg width="24" height="24" viewBox="0 0 24 24" fill="none" color="#FFFFFF" xmlns="http://www.w3.org/2000/svg">
    <path id="vector" fill-rule="evenodd" clip-rule="evenodd" d="M2.75001 4.99951C2.75028 5.00297 2.75423 5.041 2.80077 5.11877C2.85399 5.20769 2.9489 5.32422 3.10163 5.46085C3.40851 5.7354 3.88177 6.03164 4.49358 6.30513C5.71439 6.85087 7.36042 7.25 9 7.25C9.41421 7.25 9.75 7.58579 9.75 8V22C9.75 22.4142 9.41421 22.75 9 22.75C7.39376 22.75 5.54759 22.3525 4.09103 21.7567C3.36343 21.459 2.6937 21.096 2.19174 20.6777C1.71355 20.2792 1.25 19.7129 1.25 19V5C1.25 4.18625 1.85411 3.596 2.45321 3.20445C3.09053 2.78793 3.95413 2.43954 4.92783 2.15816C6.88505 1.59257 9.45656 1.25 12 1.25C14.5434 1.25 17.115 1.59257 19.0722 2.15816C20.0459 2.43954 20.9095 2.78793 21.5468 3.20445C22.1459 3.596 22.75 4.18625 22.75 5V19C22.75 19.6364 22.432 20.1892 22.005 20.6259C21.5761 21.0646 20.9882 21.4403 20.3078 21.7464C18.9438 22.3603 17.0854 22.75 15 22.75C14.5858 22.75 14.25 22.4142 14.25 22V8C14.25 7.58579 14.5858 7.25 15 7.25C16.9005 7.25 18.5402 6.8465 19.6813 6.3109C20.2539 6.04214 20.6742 5.7527 20.9394 5.4885C21.2177 5.21121 21.25 5.04093 21.25 5C21.25 4.98532 21.2254 4.78636 20.7262 4.46008C20.2652 4.15877 19.5607 3.86072 18.6557 3.5992C16.8556 3.079 14.4271 2.75 12 2.75C9.57288 2.75 7.14439 3.079 5.34425 3.5992C4.43927 3.86072 3.73485 4.15877 3.27382 4.46008C2.77952 4.78313 2.75053 4.98136 2.75001 4.99951ZM21.25 7.15117C20.9687 7.33722 20.6558 7.51054 20.3187 7.66876C19.1239 8.22955 17.5417 8.64003 15.75 8.73102V21.2313C17.343 21.1514 18.7076 20.8217 19.6922 20.3786C20.2618 20.1222 20.6739 19.8417 20.9325 19.5772C21.193 19.3108 21.25 19.1136 21.25 19V7.15117ZM2.75 7.06823V19C2.75 19.0371 2.78645 19.2208 3.15201 19.5254C3.4938 19.8102 4.01157 20.1035 4.65897 20.3683C5.72673 20.8052 7.04009 21.1216 8.25 21.2187V8.7263C6.64851 8.62617 5.09655 8.21773 3.88142 7.67453C3.47136 7.49123 3.08878 7.28775 2.75 7.06823Z" fill="currentcolor"/>
</svg>
