<svg width="24" height="24" viewBox="0 0 24 24" fill="none" color="#FFFFFF" xmlns="http://www.w3.org/2000/svg">
    <path id="vector" fill-rule="evenodd" clip-rule="evenodd" d="M9.96644 1.25H10H14H14.0336C15.4053 1.25 16.4807 1.24999 17.3451 1.32061C18.2252 1.39252 18.9523 1.54138 19.6104 1.87671C20.6924 2.42798 21.572 3.30762 22.1233 4.38955C22.4586 5.04769 22.6075 5.77479 22.6794 6.65494C22.75 7.51924 22.75 8.59461 22.75 9.96623V9.96628V9.96632V9.96637V9.96642V10V14V14.0336V14.0336V14.0337V14.0337V14.0338C22.75 15.4054 22.75 16.4808 22.6794 17.3451C22.6075 18.2252 22.4586 18.9523 22.1233 19.6104C21.572 20.6924 20.6924 21.572 19.6104 22.1233C18.9523 22.4586 18.2252 22.6075 17.3451 22.6794C16.4808 22.75 15.4054 22.75 14.0338 22.75H14.0337H14.0337H14.0336H14.0336H14H10H9.96642H9.96637H9.96632H9.96627H9.96623C8.59461 22.75 7.51924 22.75 6.65494 22.6794C5.77479 22.6075 5.04769 22.4586 4.38955 22.1233C3.30762 21.572 2.42798 20.6924 1.87671 19.6104C1.54138 18.9523 1.39252 18.2252 1.32061 17.3451C1.24999 16.4807 1.25 15.4053 1.25 14.0336V14V10V9.96644C1.25 8.59472 1.24999 7.51929 1.32061 6.65494C1.39252 5.77479 1.54138 5.04769 1.87671 4.38955C2.42798 3.30762 3.30762 2.42798 4.38955 1.87671C5.04769 1.54138 5.77479 1.39252 6.65494 1.32061C7.51929 1.24999 8.59472 1.25 9.96644 1.25ZM6.77708 2.81563C5.9897 2.87996 5.48197 3.00359 5.07054 3.21322C4.27085 3.62068 3.62068 4.27085 3.21322 5.07054C3.00359 5.48197 2.87996 5.9897 2.81563 6.77708C2.75058 7.57322 2.75 8.58749 2.75 10V14C2.75 15.4125 2.75058 16.4268 2.81563 17.2229C2.87996 18.0103 3.00359 18.518 3.21322 18.9295C3.62068 19.7291 4.27085 20.3793 5.07054 20.7868C5.48197 20.9964 5.9897 21.12 6.77708 21.1844C7.57322 21.2494 8.58749 21.25 10 21.25H14C15.4125 21.25 16.4268 21.2494 17.2229 21.1844C18.0103 21.12 18.518 20.9964 18.9295 20.7868C19.7291 20.3793 20.3793 19.7291 20.7868 18.9295C20.9964 18.518 21.12 18.0103 21.1844 17.2229C21.2494 16.4268 21.25 15.4125 21.25 14V10C21.25 8.58749 21.2494 7.57322 21.1844 6.77708C21.12 5.9897 20.9964 5.48197 20.7868 5.07054C20.3793 4.27085 19.7291 3.62068 18.9295 3.21322C18.518 3.00359 18.0103 2.87996 17.2229 2.81563C16.4268 2.75058 15.4125 2.75 14 2.75H10C8.58749 2.75 7.57322 2.75058 6.77708 2.81563ZM16.4697 9.46967C16.7626 9.17678 17.2374 9.17678 17.5303 9.46967L19.5303 11.4697C19.8232 11.7626 19.8232 12.2374 19.5303 12.5303L17.5303 14.5303C17.2374 14.8232 16.7626 14.8232 16.4697 14.5303C16.1768 14.2374 16.1768 13.7626 16.4697 13.4697L17.1893 12.75H15C14.5858 12.75 14.25 12.4142 14.25 12C14.25 11.5858 14.5858 11.25 15 11.25H17.1893L16.4697 10.5303C16.1768 10.2374 16.1768 9.76256 16.4697 9.46967ZM6.46967 9.46967C6.76256 9.17678 7.23744 9.17678 7.53033 9.46967C7.82322 9.76256 7.82322 10.2374 7.53033 10.5303L6.81066 11.25H9C9.41421 11.25 9.75 11.5858 9.75 12C9.75 12.4142 9.41421 12.75 9 12.75H6.81066L7.53033 13.4697C7.82322 13.7626 7.82322 14.2374 7.53033 14.5303C7.23744 14.8232 6.76256 14.8232 6.46967 14.5303L4.46967 12.5303C4.17678 12.2374 4.17678 11.7626 4.46967 11.4697L6.46967 9.46967ZM9.46967 7.53033C9.17678 7.23744 9.17678 6.76256 9.46967 6.46967L11.4697 4.46967C11.7626 4.17678 12.2374 4.17678 12.5303 4.46967L14.5303 6.46967C14.8232 6.76256 14.8232 7.23744 14.5303 7.53033C14.2374 7.82322 13.7626 7.82322 13.4697 7.53033L12.75 6.81066V9C12.75 9.41421 12.4142 9.75 12 9.75C11.5858 9.75 11.25 9.41421 11.25 9V6.81066L10.5303 7.53033C10.2374 7.82322 9.76256 7.82322 9.46967 7.53033ZM9.46967 17.5303C9.17678 17.2374 9.17678 16.7626 9.46967 16.4697C9.76256 16.1768 10.2374 16.1768 10.5303 16.4697L11.25 17.1893V15C11.25 14.5858 11.5858 14.25 12 14.25C12.4142 14.25 12.75 14.5858 12.75 15V17.1893L13.4697 16.4697C13.7626 16.1768 14.2374 16.1768 14.5303 16.4697C14.8232 16.7626 14.8232 17.2374 14.5303 17.5303L12.5303 19.5303C12.3897 19.671 12.1989 19.75 12 19.75C11.8011 19.75 11.6103 19.671 11.4697 19.5303L9.46967 17.5303Z" fill="currentcolor"/>
</svg>
