<svg width="24" height="24" viewBox="0 0 24 24" fill="none" color="#FFFFFF" xmlns="http://www.w3.org/2000/svg">
    <path id="vector" fill-rule="evenodd" clip-rule="evenodd" d="M9.96644 1.25H10H14H14.0336C15.4053 1.25 16.4807 1.24999 17.3451 1.32061C18.2252 1.39252 18.9523 1.54138 19.6104 1.87671C20.6924 2.42798 21.572 3.30762 22.1233 4.38955C22.4586 5.04769 22.6075 5.77479 22.6794 6.65494C22.75 7.51926 22.75 8.59466 22.75 9.96632V9.96637V9.96642V10V14V14.0336V14.0336V14.0337C22.75 15.4053 22.75 16.4807 22.6794 17.3451C22.6075 18.2252 22.4586 18.9523 22.1233 19.6104C21.572 20.6924 20.6924 21.572 19.6104 22.1233C18.9523 22.4586 18.2252 22.6075 17.3451 22.6794C16.4807 22.75 15.4053 22.75 14.0337 22.75H14.0336H14.0336H14H10H9.96642H9.96637H9.96632C8.59466 22.75 7.51926 22.75 6.65494 22.6794C5.77479 22.6075 5.04769 22.4586 4.38955 22.1233C3.30762 21.572 2.42798 20.6924 1.87671 19.6104C1.54138 18.9523 1.39252 18.2252 1.32061 17.3451C1.24999 16.4807 1.25 15.4053 1.25 14.0336V14V10V9.96644C1.25 8.59472 1.24999 7.51929 1.32061 6.65494C1.39252 5.77479 1.54138 5.04769 1.87671 4.38955C2.42798 3.30762 3.30762 2.42798 4.38955 1.87671C5.04769 1.54138 5.77479 1.39252 6.65494 1.32061C7.51929 1.24999 8.59472 1.25 9.96644 1.25ZM6.77708 2.81563C5.9897 2.87996 5.48197 3.00359 5.07054 3.21322C4.27085 3.62068 3.62068 4.27085 3.21322 5.07054C3.00359 5.48197 2.87996 5.9897 2.81563 6.77708C2.75058 7.57322 2.75 8.58749 2.75 10V14C2.75 15.4125 2.75058 16.4268 2.81563 17.2229C2.87996 18.0103 3.00359 18.518 3.21322 18.9295C3.62068 19.7291 4.27085 20.3793 5.07054 20.7868C5.48197 20.9964 5.9897 21.12 6.77708 21.1844C7.57322 21.2494 8.58749 21.25 10 21.25H14C15.4125 21.25 16.4268 21.2494 17.2229 21.1844C18.0103 21.12 18.518 20.9964 18.9295 20.7868C19.7291 20.3793 20.3793 19.7291 20.7868 18.9295C20.9964 18.518 21.12 18.0103 21.1844 17.2229C21.2494 16.4268 21.25 15.4125 21.25 14V10C21.25 8.58749 21.2494 7.57322 21.1844 6.77708C21.12 5.9897 20.9964 5.48197 20.7868 5.07054C20.3793 4.27085 19.7291 3.62068 18.9295 3.21322C18.518 3.00359 18.0103 2.87996 17.2229 2.81563C16.4268 2.75058 15.4125 2.75 14 2.75H10C8.58749 2.75 7.57322 2.75058 6.77708 2.81563ZM5.25 6C5.25 5.58579 5.58579 5.25 6 5.25H10C10.4142 5.25 10.75 5.58579 10.75 6C10.75 6.41421 10.4142 6.75 10 6.75H7.81066L10.5303 9.46967C10.8232 9.76256 10.8232 10.2374 10.5303 10.5303C10.2374 10.8232 9.76256 10.8232 9.46967 10.5303L6.75 7.81066V10C6.75 10.4142 6.41421 10.75 6 10.75C5.58579 10.75 5.25 10.4142 5.25 10V6ZM18 13.25C18.4142 13.25 18.75 13.5858 18.75 14V18C18.75 18.4142 18.4142 18.75 18 18.75H14C13.5858 18.75 13.25 18.4142 13.25 18C13.25 17.5858 13.5858 17.25 14 17.25H16.1893L13.4697 14.5303C13.1768 14.2374 13.1768 13.7626 13.4697 13.4697C13.7626 13.1768 14.2374 13.1768 14.5303 13.4697L17.25 16.1893V14C17.25 13.5858 17.5858 13.25 18 13.25ZM13.25 6C13.25 6.41421 13.5858 6.75 14 6.75H16.1893L13.4697 9.46967C13.1768 9.76256 13.1768 10.2374 13.4697 10.5303C13.7626 10.8232 14.2374 10.8232 14.5303 10.5303L17.25 7.81066V10C17.25 10.4142 17.5858 10.75 18 10.75C18.4142 10.75 18.75 10.4142 18.75 10V6C18.75 5.58579 18.4142 5.25 18 5.25H14C13.5858 5.25 13.25 5.58579 13.25 6ZM6.75 14C6.75 13.5858 6.41421 13.25 6 13.25C5.58579 13.25 5.25 13.5858 5.25 14V18C5.25 18.4142 5.58579 18.75 6 18.75H10C10.4142 18.75 10.75 18.4142 10.75 18C10.75 17.5858 10.4142 17.25 10 17.25H7.81066L10.5303 14.5303C10.8232 14.2374 10.8232 13.7626 10.5303 13.4697C10.2374 13.1768 9.76256 13.1768 9.46967 13.4697L6.75 16.1893V14Z" fill="currentcolor"/>
</svg>
