<svg width="24" height="24" viewBox="0 0 24 24" fill="none" color="#FFFFFF" xmlns="http://www.w3.org/2000/svg">
    <path id="vector" d="M12 13.75C12.4141 13.7501 12.75 14.0859 12.75 14.5V20.1895L14.4697 18.4697C14.7626 18.1769 15.2374 18.1769 15.5303 18.4697C15.823 18.7626 15.823 19.2374 15.5303 19.5303L12.5303 22.5303C12.2374 22.8231 11.7626 22.823 11.4697 22.5303L8.46973 19.5303C8.17683 19.2374 8.17683 18.7626 8.46973 18.4697C8.76263 18.1769 9.23742 18.1769 9.53027 18.4697L11.25 20.1895V14.5C11.25 14.0858 11.5858 13.75 12 13.75ZM12 1.25C14.071 1.2501 15.75 2.92899 15.75 5C15.75 6.81481 14.4606 8.328 12.748 8.6748C12.7448 9.35644 12.7311 9.94005 12.665 10.416C12.5761 11.0561 12.3754 11.6605 11.8438 12.0859C11.3475 12.4829 10.6841 12.6199 9.95703 12.6846C9.21281 12.7507 8.23505 12.75 7 12.75H3.81055L5.53027 14.4697C5.82284 14.7626 5.82284 15.2374 5.53027 15.5303C5.23746 15.8231 4.76264 15.8229 4.46973 15.5303L1.46973 12.5303C1.17683 12.2374 1.17683 11.7626 1.46973 11.4697L4.46973 8.46973C4.76264 8.17708 5.23746 8.17692 5.53027 8.46973C5.82284 8.76256 5.82284 9.23744 5.53027 9.53027L3.81055 11.25H7C8.26444 11.25 9.16236 11.2493 9.82422 11.1904C10.5028 11.1301 10.7776 11.017 10.9062 10.9141C10.9992 10.8395 11.1115 10.6931 11.1787 10.209C11.2315 9.82873 11.2445 9.33853 11.248 8.67383C9.53733 8.32563 8.25 6.81354 8.25 5C8.25 2.92893 9.92893 1.25 12 1.25ZM18.4697 8.46973C18.7626 8.17708 19.2375 8.17691 19.5303 8.46973L22.5303 11.4697C22.8228 11.7626 22.8228 12.2374 22.5303 12.5303L19.5303 15.5303C19.2375 15.8231 18.7626 15.8229 18.4697 15.5303C18.1768 15.2374 18.1768 14.7626 18.4697 14.4697L20.1895 12.75H14.5C14.0858 12.7499 13.75 12.4142 13.75 12C13.75 11.5858 14.0858 11.2501 14.5 11.25H20.1895L18.4697 9.53027C18.1768 9.23738 18.1768 8.76262 18.4697 8.46973ZM12 2.75C10.7574 2.75 9.75 3.75736 9.75 5C9.75 6.24264 10.7574 7.25 12 7.25C13.2426 7.2499 14.25 6.24258 14.25 5C14.25 3.75742 13.2426 2.7501 12 2.75Z" fill="currentcolor"/>
</svg>
