<svg width="24" height="24" viewBox="0 0 24 24" fill="none" color="#FFFFFF" xmlns="http://www.w3.org/2000/svg">
    <path id="vector" fill-rule="evenodd" clip-rule="evenodd" d="M3.71143 8.76275C3.90218 9.335 4.15199 9.93007 4.45818 10.5379C5.23418 9.4098 6.16339 8.29058 7.22697 7.22701C8.29056 6.16341 9.40979 5.23419 10.5379 4.45819C9.93007 4.15199 9.335 3.90219 8.76275 3.71144C6.54402 2.97186 4.90745 3.18249 4.04497 4.04497C3.18249 4.90745 2.97186 6.54402 3.71143 8.76275ZM2.28841 9.23709C2.5868 10.1323 3.00777 11.0622 3.54045 12C3.00778 12.9377 2.58682 13.8676 2.28843 14.7628C1.49247 17.1507 1.50366 19.5349 2.98433 21.0156C4.46499 22.4963 6.84925 22.5074 9.23711 21.7115C10.1323 21.4131 11.0622 20.9921 12 20.4595C12.9377 20.9921 13.8676 21.4131 14.7628 21.7114C17.1506 22.5074 19.5349 22.4962 21.0155 21.0155C22.4962 19.5349 22.5074 17.1506 21.7114 14.7628C21.4131 13.8676 20.9921 12.9377 20.4594 12C20.9921 11.0622 21.4131 10.1323 21.7115 9.23715C22.5074 6.84928 22.4962 4.46503 21.0156 2.98436C19.5349 1.5037 17.1506 1.49251 14.7628 2.28846C13.8676 2.58685 12.9377 3.0078 12 3.54046C11.0622 3.00778 10.1323 2.5868 9.23709 2.28841C6.84923 1.49246 4.46497 1.50365 2.98431 2.98431C1.50365 4.46498 1.49245 6.84923 2.28841 9.23709ZM8.76277 20.2885C9.33501 20.0977 9.93008 19.8479 10.5379 19.5417C9.40978 18.7657 8.29055 17.8365 7.22695 16.7729C6.16338 15.7093 5.23417 14.5901 4.45819 13.462C4.152 14.0699 3.9022 14.6649 3.71145 15.2371C2.97187 17.4559 3.18251 19.0924 4.04499 19.9549C4.90747 20.8174 6.54403 21.028 8.76277 20.2885ZM8.28761 15.7122C9.49043 16.9151 10.7548 17.9215 12 18.7101C13.2451 17.9215 14.5095 16.9151 15.7123 15.7123C16.9151 14.5095 17.9215 13.2451 18.7101 12C17.9215 10.7548 16.915 9.49043 15.7122 8.28761C14.5094 7.08483 13.2451 6.07844 12 5.28979C10.7548 6.07844 9.49044 7.08485 8.28763 8.28767C7.08483 9.49046 6.07843 10.7548 5.28979 12C6.07843 13.2451 7.08482 14.5094 8.28761 15.7122ZM15.2371 20.2884C14.6649 20.0977 14.0698 19.8479 13.462 19.5417C14.5901 18.7657 15.7093 17.8365 16.7729 16.7729C17.8365 15.7094 18.7657 14.5901 19.5417 13.462C19.8479 14.0698 20.0977 14.6649 20.2884 15.2371C21.028 17.4558 20.8174 19.0924 19.9549 19.9549C19.0924 20.8174 17.4558 21.028 15.2371 20.2884ZM20.2884 8.7628C20.0977 9.33503 19.8479 9.93008 19.5417 10.5379C18.7657 9.40977 17.8365 8.29054 16.7729 7.22695C15.7093 6.16339 14.5901 5.23418 13.462 4.4582C14.0698 4.15202 14.6649 3.90223 15.2371 3.71149C17.4558 2.97191 19.0924 3.18254 19.9549 4.04502C20.8174 4.90751 21.028 6.54407 20.2884 8.7628ZM11.9999 13C12.5522 13 12.9999 12.5522 12.9999 12C12.9999 11.4477 12.5522 11 11.9999 11C11.4476 11 10.9999 11.4477 10.9999 12C10.9999 12.5522 11.4476 13 11.9999 13Z" fill="currentcolor"/>
</svg>
