<svg width="24" height="24" viewBox="0 0 24 24" fill="none" color="#FFFFFF" xmlns="http://www.w3.org/2000/svg">
    <path id="vector" fill-rule="evenodd" clip-rule="evenodd" d="M16.0498 4.25001C16.5975 4.25001 17.0537 4.24898 17.4248 4.2793C17.8045 4.31034 18.1609 4.3781 18.4981 4.54981C19.0155 4.81346 19.4365 5.23452 19.7002 5.75196C19.8719 6.0891 19.9397 6.44547 19.9707 6.8252C20.001 7.19633 20 7.65253 20 8.2002L20 8.29591C20.1658 8.23694 20.3521 8.23326 20.5283 8.30372L21.1719 8.56055C22.5781 9.1231 23.5 10.4855 23.5 12C23.5 13.5146 22.5781 14.8769 21.1719 15.4395L20.5283 15.6963C20.3521 15.7668 20.1658 15.7631 20 15.7041L20 15.7998C20 16.3475 20.001 16.8037 19.9707 17.1748C19.9397 17.5545 19.8719 17.9109 19.7002 18.2481C19.4365 18.7655 19.0155 19.1866 18.498 19.4502C18.1609 19.6219 17.8045 19.6897 17.4248 19.7207C17.0537 19.751 16.5975 19.75 16.0498 19.75L4.4502 19.75C3.90252 19.75 3.44633 19.751 3.0752 19.7207C2.69547 19.6897 2.3391 19.6219 2.00195 19.4502C1.48451 19.1865 1.06346 18.7655 0.799806 18.2481C0.628095 17.9109 0.560331 17.5545 0.529299 17.1748C0.498977 16.8037 0.500002 16.3475 0.500002 15.7998L0.500003 8.2002C0.500003 7.65252 0.498978 7.19633 0.529301 6.8252C0.560333 6.44547 0.628096 6.0891 0.799809 5.75196C1.06346 5.23451 1.48451 4.81346 2.00196 4.54981C2.3391 4.3781 2.69547 4.31033 3.0752 4.2793C3.44633 4.24898 3.90252 4.25 4.4502 4.25L16.0498 4.25001ZM4.4502 5.75C3.87777 5.75 3.49315 5.75024 3.19727 5.77442C2.91027 5.79788 2.77316 5.84059 2.68262 5.88672C2.44751 6.00655 2.25655 6.19751 2.13672 6.43262C2.09059 6.52316 2.04788 6.66027 2.02442 6.94727C2.00024 7.24315 2 7.62777 2 8.2002L2 15.7998C2 16.3722 2.00024 16.7569 2.02442 17.0527C2.04788 17.3397 2.09059 17.4768 2.13672 17.5674C2.25655 17.8025 2.4475 17.9935 2.68262 18.1133C2.77316 18.1594 2.91027 18.2021 3.19727 18.2256C3.49315 18.2498 3.87777 18.25 4.4502 18.25L16.0498 18.25C16.6222 18.25 17.0069 18.2498 17.3027 18.2256C17.5897 18.2021 17.7268 18.1594 17.8174 18.1133C18.0525 17.9935 18.2435 17.8025 18.3633 17.5674C18.4094 17.4768 18.4521 17.3397 18.4756 17.0527C18.4998 16.7569 18.5 16.3722 18.5 15.7998L18.5 8.2002C18.5 7.62777 18.4998 7.24315 18.4756 6.94727C18.4521 6.66027 18.4094 6.52317 18.3633 6.43262C18.2435 6.19751 18.0525 6.00655 17.8174 5.88673C17.7268 5.84059 17.5897 5.79788 17.3027 5.77442C17.0069 5.75025 16.6222 5.75001 16.0498 5.75001L4.4502 5.75ZM5.0625 7.59766C5.47672 7.59766 5.8125 7.93345 5.8125 8.34766L5.8125 15.6533C5.81224 16.0673 5.47655 16.4033 5.0625 16.4033C4.64845 16.4033 4.31277 16.0673 4.3125 15.6533L4.3125 8.34766C4.3125 7.93345 4.64829 7.59766 5.0625 7.59766ZM9.0625 7.59766C9.47672 7.59766 9.8125 7.93345 9.8125 8.34766L9.8125 15.6533C9.81224 16.0673 9.47655 16.4033 9.0625 16.4033C8.64845 16.4033 8.31277 16.0673 8.3125 15.6533L8.3125 8.34766C8.3125 7.93345 8.64829 7.59766 9.0625 7.59766ZM13.0625 7.59669C13.4766 7.59669 13.8122 7.9327 13.8125 8.34669L13.8125 15.6524C13.8125 16.0666 13.4767 16.4024 13.0625 16.4024C12.6483 16.4023 12.3125 16.0666 12.3125 15.6523L12.3125 8.34669C12.3128 7.9327 12.6485 7.59669 13.0625 7.59669ZM20 14.292L20.6143 14.0469C21.4511 13.7122 22 12.9013 22 12C22 11.0988 21.451 10.2879 20.6143 9.95313L20 9.70704L20 14.292Z" fill="currentcolor"/>
</svg>
