<svg width="24" height="24" viewBox="0 0 24 24" fill="none" color="#FFFFFF" xmlns="http://www.w3.org/2000/svg">
    <path id="vector" d="M19 1.25C21.0711 1.25 22.75 2.92893 22.75 5C22.75 6.8317 21.4365 8.35556 19.7002 8.68359C19.3687 10.983 17.3912 12.75 15 12.75H5.75V15.3242C7.46176 15.6716 8.75 17.1857 8.75 19C8.75 21.0711 7.07107 22.75 5 22.75C2.92893 22.75 1.25 21.0711 1.25 19C1.25 17.1857 2.53824 15.6716 4.25 15.3242V8.6748C2.53834 8.32734 1.25 6.81421 1.25 5C1.25 2.92893 2.92893 1.25 5 1.25C7.07107 1.25 8.75 2.92893 8.75 5C8.75 6.81421 7.46166 8.32734 5.75 8.6748V11.25H15C16.569 11.25 17.8769 10.1379 18.1816 8.65918C16.5043 8.28569 15.25 6.78989 15.25 5C15.25 2.92893 16.9289 1.25 19 1.25ZM5 16.75C3.75736 16.75 2.75 17.7574 2.75 19C2.75 20.2426 3.75736 21.25 5 21.25C6.24264 21.25 7.25 20.2426 7.25 19C7.25 17.7574 6.24264 16.75 5 16.75ZM5 2.75C3.75736 2.75 2.75 3.75736 2.75 5C2.75 6.24264 3.75736 7.25 5 7.25C6.24264 7.25 7.25 6.24264 7.25 5C7.25 3.75736 6.24264 2.75 5 2.75ZM19 2.75C17.7574 2.75 16.75 3.75736 16.75 5C16.75 6.24264 17.7574 7.25 19 7.25C20.2426 7.25 21.25 6.24264 21.25 5C21.25 3.75736 20.2426 2.75 19 2.75Z" fill="currentcolor"/>
</svg>
