<svg width="24" height="24" viewBox="0 0 24 24" fill="none" color="#FFFFFF" xmlns="http://www.w3.org/2000/svg">
    <path id="vector" fill-rule="evenodd" clip-rule="evenodd" d="M7.30888 5.25H5L4.97475 5.25C4.53029 5.24999 4.15925 5.24999 3.85464 5.27077C3.53754 5.29241 3.23801 5.33905 2.94762 5.45933C2.27379 5.73844 1.73844 6.27379 1.45933 6.94762C1.33905 7.23801 1.29241 7.53754 1.27077 7.85464C1.24999 8.15925 1.24999 8.53028 1.25 8.97474V8.97475V9V9.02525V9.02526C1.24999 9.46972 1.24999 9.84075 1.27077 10.1454C1.29241 10.4625 1.33905 10.762 1.45933 11.0524C1.63307 11.4718 1.90609 11.8376 2.25 12.1213V15.6L2.25 15.633C2.24999 16.7251 2.24999 17.5906 2.30699 18.2883C2.36527 19.0017 2.48688 19.6053 2.76772 20.1565C3.22312 21.0502 3.94978 21.7769 4.84355 22.2323C5.39472 22.5131 5.99835 22.6347 6.71173 22.693C7.40934 22.75 8.27481 22.75 9.36691 22.75H9.36698H9.4H14.6H14.633H14.6331C15.7252 22.75 16.5907 22.75 17.2883 22.693C18.0017 22.6347 18.6053 22.5131 19.1565 22.2323C20.0502 21.7769 20.7769 21.0502 21.2323 20.1565C21.5131 19.6053 21.6347 19.0017 21.693 18.2883C21.75 17.5906 21.75 16.7252 21.75 15.633V15.6V12.1213C22.0939 11.8376 22.3669 11.4718 22.5407 11.0524C22.661 10.762 22.7076 10.4625 22.7292 10.1454C22.75 9.84075 22.75 9.46972 22.75 9.02526V9V8.97474C22.75 8.53028 22.75 8.15925 22.7292 7.85464C22.7076 7.53754 22.661 7.23801 22.5407 6.94762C22.2616 6.27379 21.7262 5.73844 21.0524 5.45933C20.762 5.33905 20.4625 5.29241 20.1454 5.27077C19.8408 5.24999 19.4697 5.24999 19.0253 5.25L19 5.25H16.6911C16.3315 2.98301 14.3682 1.25 12 1.25C9.63185 1.25 7.66846 2.98301 7.30888 5.25ZM8.83697 5.25H15.163C14.8245 3.81665 13.5368 2.75 12 2.75C10.4632 2.75 9.17555 3.81665 8.83697 5.25ZM16 6.75H8H5C4.5238 6.75 4.20421 6.75041 3.95674 6.76729C3.71602 6.78372 3.5988 6.81319 3.52165 6.84515C3.21536 6.97202 2.97202 7.21536 2.84515 7.52165C2.81319 7.5988 2.78372 7.71601 2.76729 7.95674C2.75041 8.20421 2.75 8.5238 2.75 9C2.75 9.4762 2.75041 9.79579 2.76729 10.0433C2.78372 10.284 2.81319 10.4012 2.84515 10.4784C2.97202 10.7846 3.21536 11.028 3.52165 11.1549C3.5988 11.1868 3.71602 11.2163 3.95674 11.2327C4.20421 11.2496 4.5238 11.25 5 11.25H7.25V10.5C7.25 10.0858 7.58579 9.75 8 9.75C8.41421 9.75 8.75 10.0858 8.75 10.5V11.25H15.25V10.5C15.25 10.0858 15.5858 9.75 16 9.75C16.4142 9.75 16.75 10.0858 16.75 10.5V11.25H19C19.4762 11.25 19.7958 11.2496 20.0433 11.2327C20.284 11.2163 20.4012 11.1868 20.4784 11.1549C20.7846 11.028 21.028 10.7846 21.1549 10.4784C21.1868 10.4012 21.2163 10.284 21.2327 10.0433C21.2496 9.79579 21.25 9.4762 21.25 9C21.25 8.5238 21.2496 8.20421 21.2327 7.95674C21.2163 7.71601 21.1868 7.5988 21.1549 7.52165C21.028 7.21536 20.7846 6.97202 20.4784 6.84515C20.4012 6.81319 20.284 6.78372 20.0433 6.76729C19.7958 6.75041 19.4762 6.75 19 6.75H16ZM15.25 12.75V13.5C15.25 13.9142 15.5858 14.25 16 14.25C16.4142 14.25 16.75 13.9142 16.75 13.5V12.75H19H19.0253C19.4697 12.75 19.8408 12.75 20.1454 12.7292C20.1805 12.7268 20.2153 12.7241 20.25 12.7211V15.6C20.25 16.7325 20.2494 17.5367 20.198 18.1661C20.1473 18.7867 20.0509 19.171 19.8958 19.4755C19.5842 20.087 19.087 20.5842 18.4755 20.8958C18.171 21.0509 17.7867 21.1473 17.1661 21.198C16.5367 21.2494 15.7325 21.25 14.6 21.25H9.4C8.26752 21.25 7.46327 21.2494 6.83388 21.198C6.21325 21.1473 5.829 21.0509 5.52453 20.8958C4.913 20.5842 4.41582 20.087 4.10423 19.4755C3.94909 19.171 3.85271 18.7867 3.80201 18.1661C3.75058 17.5367 3.75 16.7325 3.75 15.6V12.7211C3.78467 12.7241 3.81955 12.7268 3.85464 12.7292C4.15925 12.75 4.53028 12.75 4.97474 12.75H5H7.25V13.5C7.25 13.9142 7.58579 14.25 8 14.25C8.41421 14.25 8.75 13.9142 8.75 13.5V12.75H15.25Z" fill="currentcolor"/>
</svg>
