<svg width="24" height="24" viewBox="0 0 24 24" fill="none" color="#FFFFFF" xmlns="http://www.w3.org/2000/svg">
    <path id="vector" d="M12 19C12.4141 19.0002 12.75 19.3359 12.75 19.75V20.9521C12.977 21.0837 13.1653 21.273 13.2969 21.5H21.25C21.6641 21.5002 22 21.8359 22 22.25C22 22.6641 21.6641 22.9998 21.25 23H13.2969C13.0374 23.4478 12.5547 23.7499 12 23.75C11.4451 23.75 10.9616 23.4479 10.7021 23H2.75C2.33579 23 2 22.6642 2 22.25C2 21.8358 2.33579 21.5 2.75 21.5H10.7021C10.8339 21.2726 11.0225 21.0828 11.25 20.9512V19.75C11.25 19.3358 11.5858 19 12 19ZM12.4502 0.761719C17.0733 0.996185 20.75 4.8186 20.75 9.5C20.75 14.3324 16.8324 18.2498 12 18.25C7.16751 18.25 3.25 14.3325 3.25 9.5C3.25 4.66751 7.16751 0.75 12 0.75L12.4502 0.761719ZM13.9014 13.166C13.2881 13.2201 12.6516 13.25 12 13.25C11.3482 13.25 10.7111 13.2201 10.0977 13.166C10.2288 13.8092 10.3925 14.3908 10.5811 14.8936C10.834 15.5681 11.1172 16.0623 11.3936 16.374C11.6706 16.6863 11.8773 16.75 12 16.75C12.1227 16.7499 12.3296 16.6862 12.6064 16.374C12.8828 16.0623 13.166 15.5681 13.4189 14.8936C13.6074 14.3909 13.7702 13.8092 13.9014 13.166ZM5.16309 11.918C5.89114 13.9764 7.52273 15.6066 9.58105 16.335C9.43344 16.0506 9.29823 15.7438 9.17676 15.4199C8.90853 14.7046 8.69113 13.8741 8.53418 12.9639C7.62479 12.807 6.79483 12.5912 6.08008 12.3232C5.75552 12.2015 5.44789 12.0659 5.16309 11.918ZM18.834 11.918C18.5498 12.0655 18.2437 12.2018 17.9199 12.3232C17.205 12.5913 16.3746 12.8079 15.4648 12.9648C15.3079 13.8746 15.0914 14.7049 14.8232 15.4199C14.7017 15.7439 14.5656 16.0506 14.418 16.335C16.4762 15.6067 18.1058 13.9762 18.834 11.918ZM12 7.25C11.255 7.25 10.5384 7.2915 9.86426 7.36426C9.79148 8.03853 9.75 8.75487 9.75 9.5C9.75 10.2448 9.79154 10.9608 9.86426 11.6348C10.5385 11.7075 11.2549 11.75 12 11.75C12.7445 11.75 13.4601 11.7074 14.1338 11.6348C14.2065 10.9607 14.25 10.2448 14.25 9.5C14.25 8.75481 14.2066 8.03858 14.1338 7.36426C13.4601 7.2916 12.7444 7.25001 12 7.25ZM8.33301 7.59766C7.69014 7.72878 7.10896 7.89263 6.60645 8.08105C5.93195 8.334 5.4377 8.61723 5.12598 8.89355C4.81354 9.17062 4.75 9.37732 4.75 9.5C4.75 9.62268 4.81354 9.82938 5.12598 10.1064C5.4377 10.3828 5.93195 10.666 6.60645 10.9189C7.10891 11.1074 7.69022 11.2703 8.33301 11.4014C8.27897 10.7881 8.25 10.1516 8.25 9.5C8.25 8.84809 8.27891 8.21121 8.33301 7.59766ZM15.666 7.59766C15.7201 8.21122 15.75 8.84808 15.75 9.5C15.75 10.1516 15.7201 10.7881 15.666 11.4014C16.3091 11.2702 16.8909 11.1074 17.3936 10.9189C18.068 10.666 18.5623 10.3828 18.874 10.1064C19.1863 9.82945 19.25 9.62266 19.25 9.5C19.25 9.37734 19.1863 9.17055 18.874 8.89355C18.5623 8.61722 18.068 8.33402 17.3936 8.08105C16.8909 7.89255 16.3091 7.72881 15.666 7.59766ZM9.58105 2.66406C7.52288 3.39229 5.89133 5.02288 5.16309 7.08105C5.44778 6.93319 5.75568 6.79841 6.08008 6.67676C6.79488 6.40874 7.62473 6.19206 8.53418 6.03516C8.69111 5.12529 8.90862 4.29514 9.17676 3.58008C9.29834 3.25587 9.43329 2.94861 9.58105 2.66406ZM14.418 2.66406C14.5658 2.94868 14.7016 3.25577 14.8232 3.58008C15.0913 4.29485 15.3079 5.12475 15.4648 6.03418C16.3746 6.19111 17.2049 6.40864 17.9199 6.67676C18.2435 6.79812 18.5499 6.9336 18.834 7.08105C18.1056 5.02311 16.4761 3.39214 14.418 2.66406ZM12 2.25C11.8773 2.25 11.6706 2.31366 11.3936 2.62598C11.1172 2.93768 10.834 3.43188 10.5811 4.10645C10.3926 4.60893 10.2288 5.19017 10.0977 5.83301C10.7111 5.77893 11.3482 5.75 12 5.75C12.6516 5.75001 13.2881 5.77896 13.9014 5.83301C13.7702 5.19024 13.6074 4.60889 13.4189 4.10645C13.166 3.43194 12.8828 2.9377 12.6064 2.62598C12.3296 2.31379 12.1227 2.2501 12 2.25Z" fill="currentcolor"/>
</svg>
