<svg width="24" height="24" viewBox="0 0 24 24" fill="none" color="#FFFFFF" xmlns="http://www.w3.org/2000/svg">
    <path id="vector" d="M12 19.0005C12.4141 19.0006 12.75 19.3364 12.75 19.7505V20.9526C12.9772 21.0843 13.1663 21.2732 13.2979 21.5005H21.25C21.6641 21.5006 22 21.8364 22 22.2505C21.9997 22.6644 21.6639 23.0003 21.25 23.0005H13.2969C13.0374 23.4481 12.5546 23.7504 12 23.7505C11.4452 23.7505 10.9617 23.4482 10.7021 23.0005H2.75C2.33594 23.0005 2.00025 22.6645 2 22.2505C2 21.8363 2.33579 21.5005 2.75 21.5005H10.7012C10.8329 21.2728 11.0224 21.0834 11.25 20.9517V19.7505C11.25 19.3363 11.5858 19.0005 12 19.0005ZM11.4639 0.866699C11.7594 0.712011 12.1078 0.711955 12.4033 0.866699L12.4062 0.868652C14.9825 2.23351 17.5952 1.90436 18.1973 1.80322L18.3262 1.77979C18.5759 1.72035 18.8374 1.75836 19.0586 1.88232L19.1562 1.94385L19.1572 1.94482C19.4312 2.1431 19.5712 2.45377 19.5713 2.75928V11.4634C19.5712 11.6284 19.5285 11.7872 19.4619 11.9204L19.4629 11.9214L19.4404 11.9653L19.4355 11.9751L19.4307 11.9839C17.9532 14.7441 15.4099 16.9342 12.2822 18.1792L12.2754 18.1812L12.2686 18.1841C12.1726 18.2201 12.0493 18.2504 11.9092 18.2505C11.7691 18.2505 11.645 18.2201 11.5488 18.1841L11.5361 18.1792C8.4171 16.9416 5.87938 14.7565 4.40723 12.0073L4.38184 11.9634L4.36914 11.9419L4.3584 11.9214C4.29429 11.7932 4.25008 11.6374 4.25 11.4634V2.75928C4.25005 2.45359 4.38982 2.14308 4.66406 1.94482L4.67188 1.93896L4.68066 1.93311C4.91841 1.7708 5.22396 1.70682 5.52246 1.78564C5.51807 1.78451 5.51385 1.78347 5.51074 1.78271C5.51277 1.7831 5.51854 1.78387 5.52734 1.78564C5.54637 1.78948 5.57795 1.79598 5.62012 1.80322C5.70508 1.8178 5.8336 1.83732 5.99805 1.85596C6.32824 1.89336 6.80291 1.92702 7.37012 1.91064C8.50853 1.87773 9.99745 1.64532 11.46 0.868652L11.4639 0.866699ZM11.9326 2.31006C10.2859 3.13007 8.64971 3.37394 7.41309 3.40967C6.7646 3.42838 6.21913 3.39024 5.83008 3.34619C5.80278 3.3431 5.77578 3.33763 5.75 3.33447V11.3345C7.0145 13.6742 9.18613 15.5837 11.9082 16.7085C14.6282 15.5815 16.7991 13.6783 18.0713 11.3413V3.33447C16.9726 3.46712 14.4713 3.57257 11.9326 2.31006Z" fill="currentcolor"/>
</svg>
