<svg width="24" height="24" viewBox="0 0 24 24" fill="none" color="#FFFFFF" xmlns="http://www.w3.org/2000/svg">
    <path id="vector" d="M11.4937 0.578857C12.1252 0.0882482 13.0095 0.0883131 13.6411 0.578857C13.7368 0.653231 13.8292 0.74738 13.9175 0.835693L15.0103 1.92847C15.0985 2.01667 15.1928 2.10927 15.2671 2.20483C15.7576 2.83644 15.7577 3.72074 15.2671 4.35229C15.1927 4.448 15.0986 4.54034 15.0103 4.62866C14.9219 4.71701 14.8296 4.81112 14.7339 4.8855C14.5451 5.03212 14.3331 5.13309 14.1128 5.19214C14.1675 5.74254 14.0576 6.30527 13.7798 6.80347C13.5805 7.16068 13.2517 7.47999 12.8247 7.90698C12.3979 8.33376 12.0792 8.66279 11.7222 8.86206C10.8896 9.32636 9.87505 9.32636 9.04248 8.86206C8.83415 8.74583 8.64053 8.58371 8.4292 8.3855C8.27157 8.52117 8.08358 8.68617 7.87646 8.87671C7.25344 9.44988 6.46526 10.2384 5.78271 11.116C5.09162 12.0046 4.55332 12.9267 4.35889 13.7693C4.17444 14.5688 4.29979 15.2607 4.90088 15.8621C5.11986 16.081 5.36729 16.1577 5.72412 16.1042C6.12409 16.0441 6.63864 15.8183 7.26709 15.4041C8.52232 14.5766 9.9618 13.1895 11.4624 11.7234C12.9284 10.291 14.4571 8.77846 15.812 7.82593C16.487 7.35147 17.1886 6.96442 17.8726 6.82397C18.6002 6.67471 19.3397 6.80386 19.9282 7.39233C20.9059 8.37012 21.0584 9.57899 20.7993 10.7224C20.5481 11.8308 19.9059 12.9287 19.2163 13.866C18.5189 14.8138 17.729 15.655 17.1196 16.2556C16.95 16.4228 16.7927 16.572 16.6548 16.7009C16.8202 16.8831 16.9562 17.0555 17.0581 17.238C17.5224 18.0706 17.5224 19.0852 17.0581 19.9177C16.8588 20.275 16.5292 20.5941 16.1021 21.0212C15.6752 21.4481 15.3566 21.7771 14.9995 21.9763C14.5014 22.254 13.9385 22.3639 13.3882 22.3093C13.3291 22.5294 13.228 22.7409 13.0815 22.9294C13.0072 23.0251 12.913 23.1175 12.8247 23.2058C12.7364 23.2941 12.644 23.3883 12.5483 23.4626C11.9168 23.9532 11.0325 23.9541 10.4009 23.4636C10.3052 23.3892 10.2128 23.2941 10.1245 23.2058L9.03174 22.114C8.94343 22.0257 8.84928 21.9333 8.7749 21.8376C8.28435 21.2061 8.28453 20.3218 8.7749 19.6902C8.84922 19.5946 8.94348 19.5021 9.03174 19.4138C9.12002 19.3255 9.21245 19.2313 9.30811 19.157C9.49665 19.0105 9.70808 18.9084 9.92822 18.8494C9.87371 18.2992 9.98449 17.736 10.2622 17.238C10.4117 16.9702 10.6336 16.7237 10.9155 16.4373L11.519 15.8337C11.8057 15.5516 12.0528 15.3289 12.3208 15.1794C13.1532 14.7155 14.1672 14.7154 14.9995 15.1794C15.2017 15.2922 15.3902 15.4484 15.5942 15.6384C15.7316 15.5107 15.8923 15.3593 16.0669 15.1873C16.644 14.6183 17.3743 13.8379 18.0083 12.9763C18.6502 12.1039 19.1522 11.2036 19.3364 10.3914C19.5125 9.61425 19.3919 8.97847 18.8677 8.45386C18.705 8.29118 18.5125 8.22434 18.1743 8.2937C17.7925 8.37212 17.2923 8.61812 16.6743 9.05249C15.4425 9.91844 14.0161 11.3263 12.5112 12.7966C11.0409 14.2332 9.49215 15.7333 8.09229 16.656C7.39371 17.1165 6.66384 17.481 5.94678 17.5886C5.18632 17.7027 4.44097 17.5232 3.84033 16.9226C2.80302 15.885 2.62165 14.6302 2.89795 13.4324C3.16451 12.2773 3.85602 11.1495 4.59912 10.1941C5.35074 9.22782 6.20236 8.37711 6.85986 7.77222C7.04553 7.60141 7.21728 7.44973 7.36768 7.31909C7.21113 7.14494 7.08172 6.97884 6.98389 6.80347C6.51978 5.97102 6.51976 4.95719 6.98389 4.12476C7.13342 3.8567 7.35593 3.60977 7.63818 3.323L8.2417 2.71948C8.52816 2.43756 8.77459 2.21561 9.04248 2.06616C9.54028 1.78856 10.1028 1.67782 10.6528 1.73218C10.7118 1.51198 10.814 1.30066 10.9604 1.11206C11.0348 1.01635 11.129 0.924023 11.2173 0.835693C11.3056 0.747368 11.3979 0.653244 11.4937 0.578857ZM10.5356 20.3406C10.4456 20.2707 10.3192 20.2709 10.229 20.3406C10.2323 20.338 10.2272 20.3424 10.2046 20.364C10.1796 20.3879 10.1465 20.4201 10.0923 20.4744C10.0381 20.5285 10.0058 20.5617 9.98193 20.5867C9.95964 20.61 9.95623 20.6143 9.95947 20.6101C9.88947 20.7003 9.88949 20.8265 9.95947 20.9167C9.96188 20.9194 9.96876 20.9264 9.98193 20.9402C10.0058 20.9651 10.0381 20.9983 10.0923 21.0525L11.1851 22.1453C11.2395 22.1997 11.2724 22.2326 11.2974 22.2566C11.3108 22.2694 11.3178 22.2764 11.3208 22.2791C11.4109 22.349 11.5372 22.3488 11.6274 22.2791C11.6302 22.2767 11.6382 22.2706 11.6519 22.2576L11.8745 22.0339C11.8878 22.02 11.8946 22.0123 11.897 22.0095C11.9669 21.9193 11.9669 21.793 11.897 21.7029C11.8944 21.6999 11.8873 21.6928 11.8745 21.6794C11.8506 21.6545 11.8184 21.6213 11.7642 21.5671L10.6714 20.4744C10.617 20.4199 10.5841 20.387 10.5591 20.363C10.5358 20.3407 10.5315 20.3373 10.5356 20.3406ZM14.2681 16.49C13.8898 16.2793 13.4295 16.2792 13.0513 16.49C12.9224 16.562 12.7767 16.6971 12.2778 17.196C11.7786 17.6953 11.6437 17.8405 11.5718 17.9695C11.361 18.3477 11.361 18.808 11.5718 19.1863C11.6427 19.3134 11.7745 19.4561 12.2563 19.9382L12.3003 19.9812C12.7815 20.4621 12.9243 20.5948 13.0513 20.6658C13.4295 20.8765 13.8898 20.8765 14.2681 20.6658C14.397 20.5939 14.5424 20.4597 15.0415 19.9607C15.5411 19.4611 15.6766 19.3153 15.7485 19.1863C15.9592 18.8081 15.9592 18.3477 15.7485 17.9695C15.6766 17.8405 15.5411 17.6946 15.0415 17.1951C14.5425 16.6961 14.397 16.5619 14.2681 16.49ZM10.9907 3.37573C10.6126 3.165 10.1521 3.16509 9.77393 3.37573C9.64494 3.44766 9.49975 3.58253 9.00049 4.08179C8.50092 4.58136 8.3654 4.72719 8.29346 4.8562C8.08307 5.23417 8.08308 5.69404 8.29346 6.07202C8.36537 6.20098 8.50045 6.34639 8.99951 6.84546C9.49908 7.34503 9.64491 7.48054 9.77393 7.55249C10.1521 7.76314 10.6125 7.76322 10.9907 7.55249C11.1197 7.48052 11.2648 7.34485 11.7642 6.84546C12.2634 6.34619 12.3983 6.201 12.4702 6.07202C12.6807 5.69393 12.6808 5.23428 12.4702 4.8562C12.3993 4.72912 12.2671 4.58599 11.7856 4.10425L11.7231 4.04175C11.2564 3.57557 11.1161 3.4457 10.9907 3.37573ZM12.7212 1.76343C12.631 1.69344 12.5047 1.69349 12.4146 1.76343C12.4119 1.76579 12.4047 1.77193 12.3911 1.78491C12.3661 1.80887 12.3324 1.84171 12.2778 1.89624C12.2236 1.95052 12.1914 1.98357 12.1675 2.00854C12.1536 2.02304 12.1472 2.03051 12.145 2.03296C12.0753 2.12307 12.0753 2.24855 12.145 2.33862C12.1473 2.3412 12.1531 2.34902 12.1665 2.36304C12.1905 2.38805 12.2233 2.42085 12.2778 2.47534L12.522 2.71948C12.6175 2.81354 12.7179 2.91439 12.8247 3.02124L13.3706 3.56714C13.425 3.62149 13.4579 3.65453 13.4829 3.67847C13.4962 3.69116 13.5033 3.69826 13.5063 3.70093C13.5964 3.77091 13.7228 3.77069 13.813 3.70093C13.8157 3.69861 13.8242 3.69202 13.8384 3.67847L14.061 3.45581C14.0742 3.44206 14.0801 3.43413 14.0825 3.4314C14.1525 3.34118 14.1526 3.21493 14.0825 3.12476C14.0799 3.12173 14.0728 3.1146 14.0601 3.10132C14.0362 3.07637 14.0039 3.04319 13.9497 2.98901L12.8569 1.89624C12.8024 1.84174 12.7696 1.80886 12.7446 1.78491C12.7315 1.77232 12.7241 1.76608 12.7212 1.76343Z" fill="currentcolor"/>
</svg>
