<svg width="24" height="24" viewBox="0 0 24 24" fill="none" color="#FFFFFF" xmlns="http://www.w3.org/2000/svg">
    <path id="vector" d="M5.5 0.249512C5.72267 0.249512 5.92774 0.249575 6.09863 0.26123C6.27609 0.273363 6.47166 0.300241 6.66992 0.382324C7.09854 0.559878 7.43952 0.901035 7.61719 1.32959C7.69927 1.52774 7.72613 1.72349 7.73828 1.90088C7.74993 2.07166 7.75 2.27699 7.75 2.49951C7.75 2.72201 7.74991 2.92733 7.73828 3.09814C7.72615 3.27555 7.69921 3.47123 7.61719 3.66943C7.60584 3.69682 7.59078 3.72286 7.57812 3.74951C7.94452 4.00651 8.24525 4.34941 8.4502 4.75146C8.62184 5.08846 8.68965 5.44516 8.7207 5.82471C8.75102 6.19573 8.75 6.65224 8.75 7.19971V7.79932C8.75 8.34676 8.75099 8.80327 8.7207 9.17432C8.68968 9.55391 8.62177 9.91052 8.4502 10.2476C8.18657 10.765 7.76542 11.1861 7.24805 11.4497C6.9109 11.6214 6.55454 11.6892 6.1748 11.7202C5.89329 11.7432 5.56287 11.7465 5.18066 11.7476C5.15578 12.0509 5.12854 12.4468 5.10938 12.9067C5.06348 14.0082 5.06367 15.4638 5.24414 16.9077C5.42641 18.3655 5.78335 19.7391 6.40137 20.728C6.99612 21.6794 7.80872 22.2504 9 22.2505C9.48006 22.2505 9.83911 22.054 10.1523 21.6304C10.4914 21.1715 10.7624 20.456 10.9609 19.4897C11.3575 17.5591 11.4061 14.95 11.4375 12.2417C11.4684 9.58161 11.4823 6.82068 11.8467 4.73096C12.0284 3.68901 12.3107 2.72788 12.7832 2.01123C13.2803 1.25753 14.0114 0.750488 15 0.750488C16.6953 0.750507 17.8784 1.66016 18.6582 2.89697C19.4186 4.1033 19.8289 5.66038 20.0537 7.13721C20.2805 8.62749 20.3283 10.1089 20.3203 11.2095C20.3174 11.611 20.305 11.9641 20.293 12.2515C20.628 12.2532 20.9212 12.2591 21.1748 12.2798C21.5545 12.3108 21.9109 12.3786 22.248 12.5503C22.7654 12.814 23.1866 13.2351 23.4502 13.7524C23.6218 14.0895 23.6897 14.4461 23.7207 14.8257C23.751 15.1967 23.75 15.6532 23.75 16.2007V16.8003C23.75 17.3478 23.751 17.8043 23.7207 18.1753C23.6897 18.5548 23.6218 18.9115 23.4502 19.2485C23.2453 19.6504 22.9443 19.9925 22.5781 20.2495C22.5909 20.2764 22.6057 20.3029 22.6172 20.3306C22.6992 20.5288 22.7262 20.7245 22.7383 20.9019C22.7499 21.0727 22.75 21.278 22.75 21.5005C22.75 21.723 22.7499 21.9283 22.7383 22.0991C22.7261 22.2765 22.6993 22.4723 22.6172 22.6704C22.4395 23.099 22.0985 23.4401 21.6699 23.6177C21.4716 23.6998 21.2761 23.7266 21.0986 23.7388C20.9277 23.7504 20.7227 23.7505 20.5 23.7505H18.5C18.2773 23.7505 18.0723 23.7504 17.9014 23.7388C17.7239 23.7266 17.5284 23.6998 17.3301 23.6177C16.9015 23.4401 16.5605 23.099 16.3828 22.6704C16.3007 22.4723 16.2739 22.2765 16.2617 22.0991C16.2501 21.9283 16.25 21.723 16.25 21.5005C16.25 21.278 16.2501 21.0727 16.2617 20.9019C16.2738 20.7245 16.3008 20.5288 16.3828 20.3306C16.3942 20.303 16.4082 20.2763 16.4209 20.2495C16.055 19.9926 15.7545 19.6502 15.5498 19.2485C15.3782 18.9115 15.3103 18.5548 15.2793 18.1753C15.249 17.8043 15.25 17.3478 15.25 16.8003V16.2007C15.25 15.6532 15.249 15.1967 15.2793 14.8257C15.3103 14.4461 15.3782 14.0895 15.5498 13.7524C15.8134 13.2351 16.2346 12.814 16.752 12.5503C17.0891 12.3786 17.4455 12.3108 17.8252 12.2798C18.1 12.2573 18.4214 12.2527 18.792 12.2515C18.8045 11.9688 18.8173 11.6102 18.8203 11.1978C18.8279 10.1425 18.7819 8.74783 18.5713 7.36377C18.3586 5.96612 17.9873 4.64747 17.3887 3.69775C16.8091 2.77842 16.0546 2.25051 15 2.25049C14.6136 2.25049 14.3134 2.41544 14.0352 2.8374C13.7326 3.29652 13.4949 4.01563 13.3252 4.98877C12.9867 6.93017 12.969 9.54482 12.9375 12.2593C12.9065 14.9254 12.8621 17.6922 12.4307 19.7925C12.2152 20.841 11.8882 21.8063 11.3584 22.5229C10.8026 23.2746 10.0196 23.7505 9 23.7505C7.19173 23.7504 5.94132 22.821 5.12988 21.5229C4.34186 20.2621 3.94861 18.635 3.75586 17.0933C3.56145 15.5377 3.5625 13.9926 3.61035 12.8442C3.62801 12.4206 3.65331 12.0482 3.67676 11.7466C3.35435 11.7446 3.07107 11.7403 2.8252 11.7202C2.4455 11.6892 2.08907 11.6214 1.75195 11.4497C1.23462 11.186 0.813416 10.7649 0.549805 10.2476C0.378244 9.91054 0.310316 9.5539 0.279297 9.17432C0.249015 8.80327 0.25 8.34676 0.25 7.79932V7.19971C0.249999 6.65224 0.248983 6.19573 0.279297 5.82471C0.310346 5.44515 0.378164 5.08847 0.549805 4.75146C0.754612 4.34965 1.05483 4.00646 1.4209 3.74951C1.40831 3.723 1.3941 3.69668 1.38281 3.66943C1.3008 3.47125 1.27385 3.27554 1.26172 3.09814C1.25009 2.92733 1.25 2.72201 1.25 2.49951C1.25 2.27699 1.25007 2.07166 1.26172 1.90088C1.27387 1.72348 1.30073 1.52775 1.38281 1.32959C1.56047 0.901017 1.90145 0.559883 2.33008 0.382324C2.52836 0.300215 2.72389 0.273365 2.90137 0.26123C3.07226 0.249571 3.27731 0.249512 3.5 0.249512H5.5ZM18.0039 20.7583C17.9442 20.7624 17.915 20.7668 17.9043 20.769C17.8431 20.7944 17.7939 20.8436 17.7686 20.9048C17.7747 20.8901 17.7647 20.9031 17.7578 21.0044C17.7505 21.1123 17.75 21.2576 17.75 21.5005C17.75 21.7434 17.7504 21.8886 17.7578 21.9966C17.7647 22.0964 17.7743 22.1102 17.7686 22.0962C17.794 22.1573 17.8432 22.2066 17.9043 22.2319C17.8896 22.2258 17.9026 22.2358 18.0039 22.2427C18.1119 22.25 18.2568 22.2505 18.5 22.2505H20.5C20.7432 22.2505 20.8881 22.25 20.9961 22.2427C21.0974 22.2358 21.1104 22.2258 21.0957 22.2319C21.1568 22.2066 21.206 22.1573 21.2314 22.0962C21.2257 22.1102 21.2353 22.0964 21.2422 21.9966C21.2496 21.8886 21.25 21.7434 21.25 21.5005C21.25 21.2576 21.2495 21.1123 21.2422 21.0044C21.2353 20.9031 21.2253 20.8901 21.2314 20.9048C21.2061 20.8436 21.1569 20.7944 21.0957 20.769C21.085 20.7668 21.0558 20.7624 20.9961 20.7583C20.8881 20.7509 20.7432 20.7505 20.5 20.7505H18.5C18.2568 20.7505 18.1119 20.7509 18.0039 20.7583ZM19.2002 13.7505C18.6278 13.7505 18.2431 13.7507 17.9473 13.7749C17.6603 13.7984 17.5232 13.8411 17.4326 13.8872C17.1976 14.007 17.0065 14.1981 16.8867 14.4331C16.8407 14.5237 16.7978 14.6612 16.7744 14.9478C16.7503 15.2436 16.75 15.6286 16.75 16.2007V16.8003C16.75 17.3725 16.7502 17.7574 16.7744 18.0532C16.7979 18.3399 16.8406 18.4774 16.8867 18.5679C17.0066 18.8028 17.1976 18.994 17.4326 19.1138C17.5232 19.1599 17.6605 19.2026 17.9473 19.2261C18.2431 19.2502 18.6278 19.2505 19.2002 19.2505H19.7998C20.3722 19.2505 20.7569 19.2502 21.0527 19.2261C21.3395 19.2026 21.4768 19.1599 21.5674 19.1138C21.8024 18.994 21.9934 18.8028 22.1133 18.5679C22.1594 18.4774 22.2021 18.3399 22.2256 18.0532C22.2498 17.7574 22.25 17.3725 22.25 16.8003V16.2007C22.25 15.6286 22.2497 15.2436 22.2256 14.9478C22.2022 14.6612 22.1593 14.5237 22.1133 14.4331C21.9935 14.1981 21.8024 14.007 21.5674 13.8872C21.4768 13.8411 21.3397 13.7984 21.0527 13.7749C20.7569 13.7507 20.3722 13.7505 19.7998 13.7505H19.2002ZM4.2002 4.74951C3.6278 4.74951 3.24314 4.74975 2.94727 4.77393C2.66044 4.79737 2.52316 4.84013 2.43262 4.88623C2.19762 5.006 2.00656 5.19718 1.88672 5.43213C1.84061 5.52262 1.79788 5.6601 1.77441 5.94678C1.75025 6.24257 1.75 6.62754 1.75 7.19971V7.79932C1.75 8.37143 1.75028 8.75643 1.77441 9.05225C1.79784 9.33882 1.84066 9.47635 1.88672 9.56689C2.00651 9.80193 2.19761 9.99296 2.43262 10.1128C2.52315 10.1589 2.66033 10.2016 2.94727 10.2251C3.24314 10.2493 3.6278 10.2495 4.2002 10.2495H4.7998C5.37222 10.2495 5.75686 10.2493 6.05273 10.2251C6.33973 10.2016 6.47684 10.1589 6.56738 10.1128C6.80243 9.99296 6.99348 9.80196 7.11328 9.56689C7.15934 9.47635 7.20216 9.33886 7.22559 9.05225C7.24972 8.75643 7.25 8.37144 7.25 7.79932V7.19971C7.25 6.62754 7.24975 6.24257 7.22559 5.94678C7.20212 5.66011 7.15939 5.52262 7.11328 5.43213C6.99344 5.1972 6.80236 5.00599 6.56738 4.88623C6.47684 4.84014 6.33948 4.79737 6.05273 4.77393C5.75687 4.74976 5.37217 4.74951 4.7998 4.74951H4.2002ZM3.00391 1.75732C2.90266 1.76423 2.88957 1.77417 2.9043 1.76807C2.84317 1.79339 2.79397 1.84273 2.76855 1.90381C2.77431 1.88974 2.76466 1.9035 2.75781 2.00342C2.75045 2.11135 2.75 2.25657 2.75 2.49951C2.75 2.74238 2.75048 2.88765 2.75781 2.99561C2.76472 3.09688 2.77466 3.10995 2.76855 3.09521C2.7939 3.1564 2.84314 3.20556 2.9043 3.23096C2.91499 3.23322 2.9441 3.23762 3.00391 3.2417C3.1119 3.24907 3.2568 3.24951 3.5 3.24951H5.5C5.74321 3.24951 5.88809 3.24907 5.99609 3.2417C6.05577 3.23763 6.08492 3.23323 6.0957 3.23096C6.1569 3.20557 6.20609 3.15643 6.23145 3.09521C6.22534 3.10995 6.23528 3.09688 6.24219 2.99561C6.24953 2.88765 6.25 2.74238 6.25 2.49951C6.25 2.25657 6.24955 2.11135 6.24219 2.00342C6.23535 1.90359 6.22573 1.8898 6.23145 1.90381C6.20602 1.84275 6.15682 1.79338 6.0957 1.76807C6.11044 1.77417 6.09736 1.76423 5.99609 1.75732C5.8881 1.74996 5.74316 1.74951 5.5 1.74951H3.5C3.2568 1.74951 3.1119 1.74996 3.00391 1.75732Z" fill="currentcolor"/>
</svg>
