<svg width="24" height="24" viewBox="0 0 24 24" fill="none" color="#FFFFFF" xmlns="http://www.w3.org/2000/svg">
    <path id="vector" fill-rule="evenodd" clip-rule="evenodd" d="M10 1.25H9.96644C8.59472 1.25 7.51929 1.24999 6.65494 1.32061C5.77479 1.39252 5.04769 1.54138 4.38955 1.87671C3.30762 2.42798 2.42798 3.30762 1.87671 4.38955C1.54138 5.04769 1.39252 5.77479 1.32061 6.65494C1.24999 7.51929 1.25 8.59472 1.25 9.96644V10V14C1.25 16.6234 3.37665 18.75 6 18.75H6.5C6.91421 18.75 7.25 18.4142 7.25 18C7.25 17.5858 6.91421 17.25 6.5 17.25H6C4.20507 17.25 2.75 15.7949 2.75 14V10C2.75 8.58749 2.75058 7.57322 2.81563 6.77708C2.87996 5.9897 3.00359 5.48197 3.21322 5.07054C3.62068 4.27085 4.27085 3.62068 5.07054 3.21322C5.48197 3.00359 5.9897 2.87996 6.77708 2.81563C7.57322 2.75058 8.58749 2.75 10 2.75H14C15.4125 2.75 16.4268 2.75058 17.2229 2.81563C18.0103 2.87996 18.518 3.00359 18.9295 3.21322C19.7291 3.62068 20.3793 4.27085 20.7868 5.07054C20.9964 5.48197 21.12 5.9897 21.1844 6.77708C21.2494 7.57322 21.25 8.58749 21.25 10V14C21.25 15.7949 19.7949 17.25 18 17.25H17.5C17.0858 17.25 16.75 17.5858 16.75 18C16.75 18.4142 17.0858 18.75 17.5 18.75H18C20.6234 18.75 22.75 16.6234 22.75 14V10V9.96642V9.96637C22.75 8.59469 22.75 7.51927 22.6794 6.65494C22.6075 5.77479 22.4586 5.04769 22.1233 4.38955C21.572 3.30762 20.6924 2.42798 19.6104 1.87671C18.9523 1.54138 18.2252 1.39252 17.3451 1.32061C16.4807 1.24999 15.4053 1.25 14.0336 1.25H14H10ZM11.7682 17.408C11.9189 17.3591 12.0811 17.3591 12.2318 17.408C12.2713 17.4209 12.3447 17.4543 12.5006 17.5866C12.6631 17.7246 12.861 17.9216 13.1667 18.2274L13.3726 18.4333C14.0257 19.0863 14.4788 19.5405 14.7791 19.8991C15.0952 20.2767 15.1245 20.4178 15.1264 20.4412C15.1452 20.6805 15.0483 20.9144 14.8658 21.0703C14.848 21.0855 14.7274 21.1645 14.2369 21.208C13.7711 21.2493 13.1295 21.25 12.2059 21.25H11.7941C10.8705 21.25 10.2289 21.2493 9.76309 21.208C9.27255 21.1645 9.15202 21.0855 9.13423 21.0703C8.95168 20.9144 8.8548 20.6805 8.87363 20.4412C8.87547 20.4178 8.90481 20.2767 9.22093 19.8991C9.52115 19.5405 9.97433 19.0863 10.6274 18.4333L10.8333 18.2274C11.139 17.9216 11.3369 17.7246 11.4994 17.5866C11.6553 17.4543 11.7287 17.4209 11.7682 17.408ZM12.6953 15.9814C12.2434 15.8346 11.7566 15.8346 11.3047 15.9814C11.0018 16.0799 10.7554 16.2506 10.5287 16.4431C10.3138 16.6255 10.0726 16.8667 9.79305 17.1463L9.77261 17.1667L9.56673 17.3726L9.53962 17.3997L9.5396 17.3997C8.92004 18.0193 8.41892 18.5204 8.07079 18.9362C7.73349 19.3391 7.41984 19.7951 7.37826 20.3235C7.32175 21.0415 7.61239 21.7432 8.16006 22.2109C8.56307 22.5551 9.1073 22.6558 9.63068 22.7021C10.1709 22.75 10.8795 22.75 11.7557 22.75H11.7558H11.7941H12.2059H12.2442H12.2443C13.1205 22.75 13.8291 22.75 14.3693 22.7021C14.8927 22.6558 15.4369 22.5551 15.8399 22.2109C16.3876 21.7432 16.6783 21.0415 16.6217 20.3235C16.5802 19.7951 16.2665 19.3391 15.9292 18.9362C15.5811 18.5204 15.0799 18.0193 14.4604 17.3997L14.4333 17.3726L14.2274 17.1667L14.2069 17.1463L14.2069 17.1462C13.9274 16.8667 13.6862 16.6255 13.4713 16.4431C13.2446 16.2506 12.9982 16.0799 12.6953 15.9814Z" fill="currentcolor"/>
</svg>
