<svg width="24" height="24" viewBox="0 0 24 24" fill="none" color="#FFFFFF" xmlns="http://www.w3.org/2000/svg">
    <path id="vector" fill-rule="evenodd" clip-rule="evenodd" d="M11.6 1.25H11.5661H11.566C9.91462 1.25 8.62922 1.24999 7.59814 1.33424C6.55124 1.41977 5.70065 1.59588 4.93556 1.98571C3.66547 2.63285 2.63285 3.66547 1.98571 4.93556C1.59588 5.70065 1.41977 6.55124 1.33424 7.59814C1.24999 8.62922 1.25 9.91462 1.25 11.566V11.5661V11.6V12.4V12.4339V12.434C1.25 14.0854 1.24999 15.3708 1.33424 16.4019C1.41977 17.4488 1.59588 18.2994 1.98571 19.0644C2.63285 20.3345 3.66547 21.3671 4.93556 22.0143C5.70065 22.4041 6.55124 22.5802 7.59814 22.6658C8.62921 22.75 9.91458 22.75 11.566 22.75H11.566H11.6H12.4H12.434H12.434C14.0854 22.75 15.3708 22.75 16.4019 22.6658C17.4488 22.5802 18.2994 22.4041 19.0644 22.0143C20.3345 21.3671 21.3671 20.3345 22.0143 19.0644C22.4041 18.2994 22.5802 17.4488 22.6658 16.4019C22.75 15.3708 22.75 14.0854 22.75 12.434V12.434V12.4V10.8889C22.75 10.4747 22.4142 10.1389 22 10.1389C21.5858 10.1389 21.25 10.4747 21.25 10.8889V12.4C21.25 14.0925 21.2494 15.3168 21.1707 16.2797C21.0928 17.2338 20.9419 17.8651 20.6778 18.3835C20.1744 19.3713 19.3713 20.1744 18.3835 20.6778C17.8651 20.9419 17.2338 21.0928 16.2797 21.1707C15.3168 21.2494 14.0925 21.25 12.4 21.25H11.6C9.90747 21.25 8.68317 21.2494 7.72029 21.1707C6.76615 21.0928 6.13493 20.9419 5.61655 20.6778C4.6287 20.1744 3.82555 19.3713 3.32222 18.3835C3.05809 17.8651 2.90721 17.2338 2.82925 16.2797C2.75058 15.3168 2.75 14.0925 2.75 12.4V11.6C2.75 9.90747 2.75058 8.68317 2.82925 7.72029C2.90721 6.76615 3.05809 6.13493 3.32222 5.61655C3.82555 4.6287 4.6287 3.82555 5.61655 3.32222C6.13493 3.05809 6.76615 2.90721 7.72029 2.82925C8.68317 2.75058 9.90747 2.75 11.6 2.75H16.4444C16.8587 2.75 17.1944 2.41421 17.1944 2C17.1944 1.58579 16.8587 1.25 16.4444 1.25H11.6ZM22.5303 4.53033C22.8232 4.23744 22.8232 3.76256 22.5303 3.46967C22.2374 3.17678 21.7626 3.17678 21.4697 3.46967L12 12.9393L9.53033 10.4697C9.23744 10.1768 8.76256 10.1768 8.46967 10.4697C8.17678 10.7626 8.17678 11.2374 8.46967 11.5303L11.4697 14.5303C11.7626 14.8232 12.2374 14.8232 12.5303 14.5303L22.5303 4.53033Z" fill="currentcolor"/>
</svg>
