<svg width="24" height="24" viewBox="0 0 24 24" fill="none" color="#FFFFFF" xmlns="http://www.w3.org/2000/svg">
    <path id="vector" fill-rule="evenodd" clip-rule="evenodd" d="M5.05 10.9333C5.05 6.94483 8.18257 3.75 12 3.75C15.2514 3.75 18.0035 6.06449 18.7508 9.21813C18.8072 9.45612 18.9761 9.65166 19.2033 9.74208C20.9764 10.4475 22.25 12.2298 22.25 14.3333C22.25 17.07 20.1024 19.25 17.5 19.25H5.4C3.40511 19.25 1.75 17.5774 1.75 15.4667C1.75 13.6888 2.92894 12.2152 4.49325 11.8008C4.82678 11.7125 5.05701 11.408 5.05111 11.063C5.05037 11.0199 5.05 10.9767 5.05 10.9333ZM12 2.25C7.4446 2.25 3.76319 5.9413 3.55893 10.5311C1.61442 11.2944 0.25 13.225 0.25 15.4667C0.25 18.3633 2.53479 20.75 5.4 20.75H17.5C20.9727 20.75 23.75 17.8559 23.75 14.3333C23.75 11.7563 22.268 9.52279 20.1145 8.50352C19.095 4.90344 15.8601 2.25 12 2.25ZM15.5303 11.5303C15.8232 11.2374 15.8232 10.7626 15.5303 10.4697C15.2374 10.1768 14.7626 10.1768 14.4697 10.4697L11 13.9393L10.0303 12.9697C9.73744 12.6768 9.26256 12.6768 8.96967 12.9697C8.67678 13.2626 8.67678 13.7374 8.96967 14.0303L10.4697 15.5303C10.6103 15.671 10.8011 15.75 11 15.75C11.1989 15.75 11.3897 15.671 11.5303 15.5303L15.5303 11.5303Z" fill="currentcolor"/>
</svg>
