<svg width="24" height="24" viewBox="0 0 24 24" fill="none" color="#FFFFFF" xmlns="http://www.w3.org/2000/svg">
    <path id="vector" fill-rule="evenodd" clip-rule="evenodd" d="M5.05 9.7429C5.05 5.87689 8.16554 2.75 12 2.75C15.2644 2.75 18.0087 5.01629 18.7518 8.07704C18.8096 8.31542 18.9804 8.51044 19.2091 8.59923C20.9873 9.28969 22.25 11.0266 22.25 13.0613C22.25 14.6266 21.5035 16.015 20.348 16.8877C20.0174 17.1374 19.9519 17.6077 20.2015 17.9382C20.4512 18.2688 20.9215 18.3343 21.252 18.0847C22.7683 16.9394 23.75 15.1148 23.75 13.0613C23.75 10.5298 22.2594 8.34734 20.1107 7.35337C19.0843 3.82884 15.8445 1.25 12 1.25C7.46613 1.25 3.77223 4.83655 3.55966 9.33328C1.62275 10.0781 0.25 11.9625 0.25 14.1674C0.25 16.0816 1.28514 17.7538 2.82289 18.6483C3.18094 18.8566 3.64003 18.7352 3.8483 18.3771C4.05657 18.0191 3.93515 17.56 3.57711 17.3517C2.48454 16.7162 1.75 15.5286 1.75 14.1674C1.75 12.453 2.91601 11.0147 4.48893 10.6081C4.82471 10.5213 5.05718 10.2156 5.0511 9.86884C5.05037 9.82695 5.05 9.78497 5.05 9.7429ZM16.0303 15.9697L12.5303 12.4697C12.2374 12.1768 11.7626 12.1768 11.4697 12.4697L7.96967 15.9697C7.67678 16.2626 7.67678 16.7374 7.96967 17.0303C8.26256 17.3232 8.73744 17.3232 9.03033 17.0303L11.25 14.8107V22C11.25 22.4142 11.5858 22.75 12 22.75C12.4142 22.75 12.75 22.4142 12.75 22V14.8107L14.9697 17.0303C15.2626 17.3232 15.7374 17.3232 16.0303 17.0303C16.3232 16.7374 16.3232 16.2626 16.0303 15.9697Z" fill="currentcolor"/>
</svg>
