<svg width="24" height="24" viewBox="0 0 24 24" fill="none" color="#FFFFFF" xmlns="http://www.w3.org/2000/svg">
    <path id="vector" fill-rule="evenodd" clip-rule="evenodd" d="M12.1016 2.52621C14.9791 2.52621 17.5874 4.21791 18.1055 7.18832C21.4719 7.52106 23.9177 10.3454 23.918 13.577C23.918 15.9528 22.7448 18.0558 20.9473 19.3582C19.7392 20.2336 18.2465 20.7498 16.6348 20.7498H5.2168C2.33274 20.7498 0.0830948 18.2578 0.0830078 15.2967C0.0830728 12.4299 2.19181 10.0021 4.94336 9.85043V9.38364C4.94366 5.56299 8.18268 2.52643 12.1016 2.52621ZM12.1016 4.02621C8.94235 4.02643 6.44366 6.45854 6.44336 9.38364V11.3436H5.21582C3.25824 11.3443 1.58307 13.0633 1.58301 15.2967C1.58309 17.5305 3.25877 19.2497 5.2168 19.2498H16.6348C17.9216 19.2498 19.1074 18.8382 20.0664 18.1434C21.4966 17.1071 22.418 15.4453 22.418 13.577C22.4177 10.9422 20.2937 8.6561 17.4375 8.6561H16.7344L16.6895 7.95395C16.5326 5.52645 14.5774 4.02621 12.1016 4.02621Z" fill="currentcolor"/>
</svg>
