<svg width="24" height="24" viewBox="0 0 24 24" fill="none" color="#FFFFFF" xmlns="http://www.w3.org/2000/svg">
    <path id="vector" fill-rule="evenodd" clip-rule="evenodd" d="M12 3.75C8.18257 3.75 5.05 6.94483 5.05 10.9333C5.05 10.9767 5.05037 11.0199 5.05111 11.063C5.05701 11.408 4.82678 11.7125 4.49325 11.8008C2.92894 12.2152 1.75 13.6888 1.75 15.4667C1.75 17.5774 3.40511 19.25 5.4 19.25H17.5C20.1024 19.25 22.25 17.07 22.25 14.3333C22.25 12.2298 20.9764 10.4475 19.2033 9.74208C18.9761 9.65166 18.8072 9.45612 18.7508 9.21813C18.0035 6.06449 15.2514 3.75 12 3.75ZM3.55893 10.5311C3.76319 5.9413 7.4446 2.25 12 2.25C15.8601 2.25 19.095 4.90344 20.1145 8.50352C22.268 9.52279 23.75 11.7563 23.75 14.3333C23.75 17.8559 20.9727 20.75 17.5 20.75H5.4C2.53479 20.75 0.25 18.3633 0.25 15.4667C0.25 13.225 1.61442 11.2944 3.55893 10.5311Z" fill="currentcolor"/>
</svg>
