<svg width="24" height="24" viewBox="0 0 24 24" fill="none" color="#FFFFFF" xmlns="http://www.w3.org/2000/svg">
    <path id="vector" fill-rule="evenodd" clip-rule="evenodd" d="M2.75 12C2.75 6.89137 6.89137 2.75 12 2.75C17.1086 2.75 21.25 6.89137 21.25 12C21.25 17.1086 17.1086 21.25 12 21.25C6.89137 21.25 2.75 17.1086 2.75 12ZM12 1.25C6.06294 1.25 1.25 6.06294 1.25 12C1.25 17.9371 6.06294 22.75 12 22.75C17.9371 22.75 22.75 17.9371 22.75 12C22.75 6.06294 17.9371 1.25 12 1.25ZM16.6828 8.31035C16.8121 8.02574 16.7514 7.69074 16.5303 7.46967C16.3093 7.2486 15.9743 7.18786 15.6896 7.31722L11.2821 9.32066L11.2224 9.34778C10.8761 9.50497 10.6034 9.62875 10.3639 9.80772C10.1528 9.96552 9.96552 10.1528 9.80772 10.3639C9.62875 10.6034 9.50497 10.8761 9.34778 11.2224L9.32066 11.2821L7.31722 15.6896C7.18786 15.9743 7.2486 16.3093 7.46967 16.5303C7.69074 16.7514 8.02574 16.8121 8.31035 16.6828L12.7179 14.6793L12.7776 14.6522C13.1239 14.495 13.3966 14.3712 13.6361 14.1923C13.8472 14.0345 14.0345 13.8472 14.1923 13.6361C14.3712 13.3966 14.495 13.1239 14.6522 12.7776L14.6793 12.7179L16.6828 8.31035ZM11.9028 10.6862L14.4896 9.51038L13.3138 12.0972C13.1167 12.5308 13.0605 12.6449 12.9908 12.738C12.9191 12.834 12.834 12.9191 12.738 12.9908C12.6449 13.0605 12.5308 13.1167 12.0972 13.3138L9.51038 14.4896L10.6862 11.9028C10.8833 11.4692 10.9395 11.3551 11.0092 11.262C11.0809 11.166 11.166 11.0809 11.262 11.0092C11.3551 10.9395 11.4692 10.8833 11.9028 10.6862Z" fill="currentcolor"/>
</svg>
