<svg width="24" height="24" viewBox="0 0 24 24" fill="none" color="#FFFFFF" xmlns="http://www.w3.org/2000/svg">
    <path id="vector" d="M15.2253 1.7627C18.9531 1.76291 21.9753 4.7849 21.9753 8.5127V15.4873C21.9752 19.215 18.953 22.2371 15.2253 22.2373H9.07495C5.34712 22.2373 2.32506 19.2151 2.32495 15.4873V8.5127C2.32495 4.78479 5.34705 1.76272 9.07495 1.7627H15.2253ZM9.07495 3.2627C6.17548 3.26272 3.82495 5.61322 3.82495 8.5127V15.4873C3.82506 18.3867 6.17554 20.7373 9.07495 20.7373H15.2253C18.1246 20.7371 20.4752 18.3866 20.4753 15.4873V8.5127C20.4753 5.61333 18.1247 3.26291 15.2253 3.2627H9.07495ZM8.69409 15.29C9.96075 15.2902 10.988 16.3173 10.988 17.584C10.9879 18.8506 9.96067 19.8778 8.69409 19.8779C7.42737 19.8779 6.40027 18.8507 6.40015 17.584C6.40015 16.3172 7.42729 15.29 8.69409 15.29ZM15.6189 15.29C16.8856 15.2901 17.9128 16.3172 17.9128 17.584C17.9127 18.8506 16.8855 19.8778 15.6189 19.8779C14.3522 19.8779 13.3251 18.8507 13.325 17.584C13.325 16.3172 14.3521 15.29 15.6189 15.29ZM8.69409 16.79C8.25572 16.79 7.90015 17.1456 7.90015 17.584C7.90027 18.0223 8.25579 18.3779 8.69409 18.3779C9.13224 18.3778 9.48791 18.0221 9.48804 17.584C9.48804 17.1457 9.13232 16.7902 8.69409 16.79ZM15.6189 16.79C15.1805 16.79 14.825 17.1456 14.825 17.584C14.8251 18.0223 15.1806 18.3779 15.6189 18.3779C16.0571 18.3778 16.4127 18.0222 16.4128 17.584C16.4128 17.1457 16.0572 16.7901 15.6189 16.79ZM8.69995 4.74023C9.11416 4.74023 9.44995 5.07602 9.44995 5.49023V6.65039H10.6501C11.0642 6.6506 11.4001 6.98631 11.4001 7.40039V10.4307C11.3998 10.8444 11.064 11.1805 10.6501 11.1807H9.44995V13.5498C9.44991 13.964 9.11414 14.2998 8.69995 14.2998C8.28576 14.2998 7.94999 13.964 7.94995 13.5498V11.1807H6.74976C6.33588 11.1805 6.00011 10.8445 5.99976 10.4307V7.40039C5.99976 6.98626 6.33565 6.65052 6.74976 6.65039H7.94995V5.49023C7.94995 5.07602 8.28574 4.74023 8.69995 4.74023ZM15.6199 4.7373C16.0341 4.7373 16.3699 5.07309 16.3699 5.4873V7.85938H17.5701C17.9839 7.85959 18.3197 8.19558 18.3201 8.60938V11.6396C18.3201 12.0537 17.9841 12.3894 17.5701 12.3896H16.3699V13.5498C16.3699 13.964 16.0341 14.2998 15.6199 14.2998C15.2057 14.2997 14.8699 13.964 14.8699 13.5498V12.3896H13.6697C13.2556 12.3895 12.9197 12.0537 12.9197 11.6396V8.60938C12.92 8.19557 13.2558 7.85957 13.6697 7.85938H14.8699V5.4873C14.8699 5.07312 15.2057 4.73735 15.6199 4.7373ZM14.4197 10.8896H16.8201V9.35938H14.4197V10.8896ZM7.49976 9.68066H9.90015V8.15039H7.49976V9.68066Z" fill="currentcolor"/>
</svg>
