<svg width="24" height="24" viewBox="0 0 24 24" fill="none" color="#FFFFFF" xmlns="http://www.w3.org/2000/svg">
    <path id="vector" fill-rule="evenodd" clip-rule="evenodd" d="M19.9189 1.28711C21.4374 1.28732 22.6688 2.5186 22.6689 4.03711V19.9619C22.6689 21.4806 21.4375 22.7117 19.9189 22.7119H4.08105C2.56227 22.7119 1.33105 21.4807 1.33105 19.9619V4.03711C1.33122 2.51847 2.56237 1.28711 4.08105 1.28711H19.9189ZM4.08105 2.78711C3.3908 2.78711 2.83122 3.34689 2.83105 4.03711V19.9619C2.83105 20.6523 3.3907 21.2119 4.08105 21.2119H19.9189C20.6091 21.2117 21.1689 20.6521 21.1689 19.9619V4.03711C21.1688 3.34702 20.609 2.78732 19.9189 2.78711H4.08105ZM8.18555 15.0801C9.45226 15.0802 10.4795 16.1073 10.4795 17.374C10.4792 18.6405 9.45209 19.6679 8.18555 19.668C6.91891 19.668 5.89187 18.6406 5.8916 17.374C5.8916 16.1072 6.91874 15.0801 8.18555 15.0801ZM15.8145 15.0801C17.0812 15.0802 18.1084 16.1073 18.1084 17.374C18.1081 18.6405 17.081 19.6679 15.8145 19.668C14.5478 19.668 13.5208 18.6406 13.5205 17.374C13.5205 16.1072 14.5476 15.0801 15.8145 15.0801ZM8.18555 16.5801C7.74717 16.5801 7.3916 16.9356 7.3916 17.374C7.39187 17.8122 7.74734 18.168 8.18555 18.168C8.62367 18.1679 8.97922 17.8121 8.97949 17.374C8.97949 16.9357 8.62383 16.5802 8.18555 16.5801ZM15.8145 16.5801C15.3761 16.5801 15.0205 16.9356 15.0205 17.374C15.0208 17.8122 15.3762 18.168 15.8145 18.168C16.2526 18.1679 16.6081 17.8121 16.6084 17.374C16.6084 16.9357 16.2527 16.5802 15.8145 16.5801ZM8.23535 4.33984C8.64957 4.33984 8.98535 4.67563 8.98535 5.08984V6.33984H10.1357C10.5498 6.34005 10.8857 6.67576 10.8857 7.08984V10.1201C10.8854 10.5339 10.5496 10.8699 10.1357 10.8701H8.98535V13.1494C8.98519 13.5635 8.64946 13.8994 8.23535 13.8994C7.82124 13.8994 7.48552 13.5635 7.48535 13.1494V10.8701H6.23535C5.82133 10.8701 5.48566 10.5341 5.48535 10.1201V7.08984C5.48535 6.67563 5.82114 6.33984 6.23535 6.33984H7.48535V5.08984C7.48535 4.67563 7.82114 4.33984 8.23535 4.33984ZM15.8145 4.33301C16.2287 4.33301 16.5645 4.66879 16.5645 5.08301V7.84473H17.7646C18.1784 7.84494 18.5143 8.18098 18.5146 8.59473V11.625C18.5146 12.0391 18.1787 12.3748 17.7646 12.375H16.5645V13.1455C16.5645 13.5597 16.2287 13.8955 15.8145 13.8955C15.4002 13.8955 15.0645 13.5597 15.0645 13.1455V12.375H13.8643C13.45 12.375 13.1143 12.0392 13.1143 11.625V8.59473C13.1147 8.18085 13.4503 7.84473 13.8643 7.84473H15.0645V5.08301C15.0645 4.66879 15.4002 4.33301 15.8145 4.33301ZM14.6143 10.875H17.0146V9.34473H14.6143V10.875ZM6.98535 9.37012H9.38574V7.83984H6.98535V9.37012Z" fill="currentcolor"/>
</svg>
