<svg width="24" height="24" viewBox="0 0 24 24" fill="none" color="#FFFFFF" xmlns="http://www.w3.org/2000/svg">
    <path id="vector" fill-rule="evenodd" clip-rule="evenodd" d="M8.367 2.25H8.4H15.6H15.633H15.633C16.7252 2.25 17.5907 2.24999 18.2883 2.30699C19.0017 2.36527 19.6053 2.48688 20.1565 2.76772C21.0502 3.22312 21.7769 3.94978 22.2323 4.84355C22.5131 5.39472 22.6347 5.99835 22.693 6.71173C22.75 7.40935 22.75 8.27485 22.75 9.36698V9.4V14.6V14.633C22.75 15.7252 22.75 16.5906 22.693 17.2883C22.6347 18.0017 22.5131 18.6053 22.2323 19.1565C21.7769 20.0502 21.0502 20.7769 20.1565 21.2323C19.6053 21.5131 19.0017 21.6347 18.2883 21.693C17.5906 21.75 16.7252 21.75 15.633 21.75H15.6H8.4H8.36698C7.27485 21.75 6.40935 21.75 5.71173 21.693C4.99835 21.6347 4.39472 21.5131 3.84355 21.2323C2.94978 20.7769 2.22312 20.0502 1.76772 19.1565C1.48688 18.6053 1.36527 18.0017 1.30699 17.2883C1.24999 16.5907 1.24999 15.7252 1.25 14.633V14.633V14.6V9.4V9.367V9.36698C1.24999 8.27484 1.24999 7.40935 1.30699 6.71173C1.36527 5.99835 1.48688 5.39472 1.76772 4.84355C2.22312 3.94978 2.94978 3.22312 3.84355 2.76772C4.39472 2.48688 4.99835 2.36527 5.71173 2.30699C6.40935 2.24999 7.27484 2.25 8.36697 2.25H8.367ZM5.83388 3.80201C5.21325 3.85271 4.829 3.94909 4.52453 4.10423C3.913 4.41582 3.41582 4.913 3.10423 5.52453C2.94909 5.829 2.85271 6.21325 2.80201 6.83388C2.79133 6.96459 2.78284 7.10284 2.7761 7.25H21.2239C21.2172 7.10284 21.2087 6.96459 21.198 6.83388C21.1473 6.21325 21.0509 5.829 20.8958 5.52453C20.5842 4.913 20.087 4.41582 19.4755 4.10423C19.171 3.94909 18.7867 3.85271 18.1661 3.80201C17.5367 3.75058 16.7325 3.75 15.6 3.75H8.4C7.26752 3.75 6.46327 3.75058 5.83388 3.80201ZM2.75 9.4C2.75 9.17025 2.75002 8.95401 2.75049 8.75H21.2495C21.25 8.95401 21.25 9.17025 21.25 9.4V14.6C21.25 15.7325 21.2494 16.5367 21.198 17.1661C21.1473 17.7867 21.0509 18.171 20.8958 18.4755C20.5842 19.087 20.087 19.5842 19.4755 19.8958C19.171 20.0509 18.7867 20.1473 18.1661 20.198C17.5367 20.2494 16.7325 20.25 15.6 20.25H8.4C7.26752 20.25 6.46327 20.2494 5.83388 20.198C5.21325 20.1473 4.829 20.0509 4.52453 19.8958C3.913 19.5842 3.41582 19.087 3.10423 18.4755C2.94909 18.171 2.85271 17.7867 2.80201 17.1661C2.75058 16.5367 2.75 15.7325 2.75 14.6V9.4ZM5.99988 11.25C5.58566 11.25 5.24988 11.5858 5.24988 12C5.24988 12.4142 5.58566 12.75 5.99988 12.75H9.99988C10.4141 12.75 10.7499 12.4142 10.7499 12C10.7499 11.5858 10.4141 11.25 9.99988 11.25H5.99988Z" fill="currentcolor"/>
</svg>
