<svg width="24" height="24" viewBox="0 0 24 24" fill="none" color="#FFFFFF" xmlns="http://www.w3.org/2000/svg">
    <path id="vector" d="M16.2965 3.34473C16.4509 3.20485 16.6556 3.13657 16.861 3.15332C16.9421 3.15414 17.0234 3.16644 17.1022 3.19434L20.5406 3.84863C20.9473 3.92627 21.2147 4.3198 21.1373 4.72656C21.0597 5.13307 20.667 5.39939 20.2604 5.32227L19.5094 5.17871C21.0884 6.9688 22.0504 9.32126 22.0504 11.8975C22.0504 17.505 17.5094 22.0505 11.9049 22.0508C11.1639 22.0508 10.4373 21.9731 9.73694 21.8174C9.33286 21.7274 9.07787 21.327 9.1676 20.9229C9.25753 20.5185 9.65878 20.2636 10.0631 20.3535C10.6512 20.4843 11.268 20.5508 11.9049 20.5508C16.6798 20.5505 20.5504 16.6776 20.5504 11.8975C20.5504 9.35007 19.4485 7.0568 17.6979 5.47266L17.8229 6.83203C17.8606 7.24428 17.5564 7.60941 17.1442 7.64746C16.7318 7.68513 16.3666 7.38109 16.3287 6.96875L16.0533 3.96875C16.0319 3.73429 16.1222 3.50298 16.2965 3.34473ZM11.8102 1.65039C12.5443 1.65039 13.2589 1.72763 13.9528 1.87207C14.3582 1.95647 14.618 2.35338 14.5338 2.75879C14.4494 3.16431 14.0526 3.42524 13.6471 3.34082C13.0505 3.21662 12.4383 3.15039 11.8102 3.15039C7.02583 3.15051 3.15002 7.02452 3.15002 11.8037C3.15012 14.3362 4.24103 16.6171 5.97717 18.2002L5.8385 16.8779C5.79542 16.4662 6.09482 16.0971 6.50647 16.0537C6.91841 16.0105 7.28744 16.3097 7.33069 16.7217L7.64514 19.7217C7.67016 19.9604 7.57945 20.1968 7.401 20.3574C7.25928 20.4848 7.07624 20.5506 6.88928 20.5479C6.87137 20.5487 6.85355 20.5473 6.83557 20.5469C6.83393 20.5467 6.83233 20.5461 6.83069 20.5459C6.74739 20.5434 6.66396 20.5302 6.58362 20.499L2.84338 19.7031C2.43856 19.6167 2.18016 19.2184 2.26624 18.8135C2.35247 18.4085 2.75087 18.1503 3.15588 18.2363L4.12268 18.4414C2.58399 16.6618 1.65011 14.3411 1.65002 11.8037C1.65002 6.19499 6.19851 1.65051 11.8102 1.65039ZM14.5397 7.67969C14.9539 7.67969 15.2897 8.01547 15.2897 8.42969V9.48926H17.1979C18.2814 9.48926 18.9895 10.4618 18.9899 11.4355V12.6328C18.9898 13.529 18.3898 14.4214 17.4498 14.5586V14.8672C17.4498 15.2814 17.114 15.6172 16.6998 15.6172C16.2857 15.6171 15.9499 15.2813 15.9498 14.8672V14.5791H8.55042V14.8672C8.55039 15.2812 8.21442 15.617 7.80042 15.6172C7.38621 15.6172 7.05044 15.2814 7.05042 14.8672V14.5586C6.11041 14.4214 5.51047 13.529 5.51038 12.6328V11.4355C5.51073 10.4618 6.21881 9.48926 7.30237 9.48926H13.7897V8.42969C13.7897 8.0156 14.1256 7.67989 14.5397 7.67969ZM7.30237 10.9893C7.2585 10.9893 7.19596 11.0082 7.13147 11.082C7.06564 11.1577 7.01055 11.2807 7.01038 11.4355V12.6328C7.01043 12.7878 7.06564 12.9106 7.13147 12.9863C7.19605 13.0604 7.25844 13.0791 7.30237 13.0791H7.76233C7.77482 13.0785 7.78777 13.0771 7.80042 13.0771C7.8132 13.0772 7.82587 13.0785 7.8385 13.0791H10.7184V10.9893H7.30237ZM12.2184 13.0791H16.6617C16.6744 13.0785 16.687 13.0772 16.6998 13.0771C16.7126 13.0771 16.7253 13.0785 16.7379 13.0791H17.1979C17.2418 13.0791 17.3042 13.0606 17.3688 12.9863C17.4346 12.9106 17.4898 12.7878 17.4899 12.6328V11.4355C17.4897 11.2807 17.4346 11.1577 17.3688 11.082C17.3042 11.008 17.2418 10.9893 17.1979 10.9893H12.2184V13.0791Z" fill="currentcolor"/>
</svg>
