<svg width="24" height="24" viewBox="0 0 24 24" fill="none" color="#FFFFFF" xmlns="http://www.w3.org/2000/svg">
    <path id="vector" fill-rule="evenodd" clip-rule="evenodd" d="M16.2969 3.34473C16.4512 3.20481 16.656 3.13667 16.8613 3.15332C16.9424 3.15414 17.0237 3.16644 17.1025 3.19434L20.541 3.84863C20.9479 3.92611 21.2152 4.31966 21.1377 4.72656C21.0601 5.13319 20.6675 5.39961 20.2607 5.32227L19.5098 5.17871C21.0888 6.9688 22.0508 9.32126 22.0508 11.8975C22.0507 17.505 17.5098 22.0505 11.9053 22.0508C11.1643 22.0508 10.4377 21.9731 9.7373 21.8174C9.33323 21.7274 9.07824 21.327 9.16797 20.9229C9.25789 20.5185 9.65914 20.2636 10.0635 20.3535C10.6516 20.4843 11.2684 20.5508 11.9053 20.5508C16.6802 20.5505 20.5507 16.6776 20.5508 11.8975C20.5508 9.35007 19.4489 7.0568 17.6982 5.47266L17.8232 6.83203C17.861 7.24441 17.5569 7.60959 17.1445 7.64746C16.7322 7.68513 16.367 7.38111 16.3291 6.96875L16.0537 3.96875C16.0323 3.73429 16.1225 3.50298 16.2969 3.34473ZM11.8105 1.65039C12.5446 1.65039 13.2592 1.72763 13.9531 1.87207C14.3585 1.95647 14.6184 2.35338 14.5342 2.75879C14.4498 3.16431 14.053 3.42524 13.6475 3.34082C13.0508 3.21662 12.4387 3.15039 11.8105 3.15039C7.02619 3.15051 3.15039 7.02452 3.15039 11.8037C3.15049 14.3362 4.2414 16.6171 5.97754 18.2002L5.83887 16.8779C5.79575 16.4661 6.09499 16.097 6.50684 16.0537C6.91879 16.0105 7.28783 16.3097 7.33105 16.7217L7.64551 19.7217C7.67053 19.9604 7.57981 20.1968 7.40137 20.3574C7.25971 20.4848 7.07657 20.5505 6.88965 20.5479C6.87206 20.5487 6.85457 20.5473 6.83691 20.5469C6.83462 20.5467 6.83237 20.5461 6.83008 20.5459C6.7471 20.5433 6.66401 20.5301 6.58398 20.499L2.84375 19.7031C2.4387 19.6169 2.18046 19.2185 2.2666 18.8135C2.35286 18.4083 2.75112 18.1501 3.15625 18.2363L4.12305 18.4414C2.58436 16.6618 1.65047 14.3411 1.65039 11.8037C1.65039 6.19499 6.19888 1.65051 11.8105 1.65039ZM14.6025 7.0166C15.0168 7.0166 15.3525 7.35239 15.3525 7.7666V9.22559H16.8125C17.779 9.22559 18.5625 10.0091 18.5625 10.9756V12.7256C18.5625 13.6921 17.779 14.4756 16.8125 14.4756H16.6064V15.1201C16.6062 15.5341 16.2705 15.8701 15.8564 15.8701C15.4424 15.8701 15.1067 15.5341 15.1064 15.1201V14.4756H9.39355V15.1201C9.39328 15.5341 9.0576 15.8701 8.64355 15.8701C8.22951 15.8701 7.89383 15.5341 7.89355 15.1201V14.4756H7.1875C6.221 14.4756 5.4375 13.6921 5.4375 12.7256V10.9756C5.4375 10.0091 6.221 9.22559 7.1875 9.22559H13.8525V7.7666C13.8525 7.35239 14.1883 7.0166 14.6025 7.0166ZM7.1875 10.7256C7.04943 10.7256 6.9375 10.8375 6.9375 10.9756V12.7256C6.9375 12.8637 7.04943 12.9756 7.1875 12.9756H16.8125C16.9506 12.9756 17.0625 12.8637 17.0625 12.7256V10.9756C17.0625 10.8375 16.9506 10.7256 16.8125 10.7256H7.1875Z" fill="currentcolor"/>
</svg>
