<svg width="24" height="24" viewBox="0 0 24 24" fill="none" color="#FFFFFF" xmlns="http://www.w3.org/2000/svg">
    <path id="vector" fill-rule="evenodd" clip-rule="evenodd" d="M12.5354 2.34276C12.1964 2.18197 11.8031 2.18197 11.4641 2.34276C11.3571 2.3935 11.1814 2.53839 10.8895 3.00963C10.6036 3.47116 10.2757 4.12519 9.80843 5.05977L4.68989 15.2969C3.93454 16.8076 3.38914 17.8996 3.05969 18.7121C2.89563 19.1167 2.79863 19.42 2.75363 19.6488C2.70796 19.8809 2.72778 19.9784 2.73611 20.0043C2.87152 20.4238 3.21795 20.7411 3.64781 20.8391C3.67426 20.8451 3.77314 20.8563 4.00039 20.7904C4.22432 20.7254 4.51796 20.6021 4.90656 20.4032C5.68689 20.0036 6.72681 19.3643 8.16527 18.4791L9.92959 17.3934C9.96062 17.3743 9.99123 17.3554 10.0215 17.3367C10.5398 17.0172 10.9468 16.7662 11.3979 16.6651C11.7942 16.5762 12.2053 16.5762 12.6017 16.6651C13.0527 16.7662 13.4598 17.0172 13.9781 17.3367C14.0083 17.3554 14.0389 17.3743 14.07 17.3934L15.8343 18.4791C17.2727 19.3643 18.3127 20.0036 19.093 20.4032C19.4816 20.6021 19.7752 20.7254 19.9992 20.7904C20.2264 20.8563 20.3253 20.8451 20.3517 20.8391C20.7816 20.7411 21.128 20.4238 21.2634 20.0043C21.2718 19.9784 21.2916 19.8809 21.2459 19.6488C21.2009 19.42 21.1039 19.1167 20.9399 18.7121C20.6104 17.8996 20.065 16.8076 19.3097 15.2969L14.1911 5.05978C13.7238 4.12519 13.396 3.47116 13.1101 3.00964C12.8182 2.53839 12.6424 2.3935 12.5354 2.34276ZM10.8213 0.98746C11.5671 0.633737 12.4324 0.633737 13.1782 0.98746C13.6945 1.23233 14.0607 1.69585 14.3852 2.21973C14.7115 2.74646 15.0695 3.46241 15.5153 4.354L15.5328 4.38896L20.6513 14.626L20.6682 14.6598C21.4032 16.1298 21.9756 17.2746 22.3299 18.1484C22.5091 18.5903 22.646 18.9947 22.7177 19.3593C22.7888 19.7205 22.8081 20.1019 22.6909 20.465C22.393 21.388 21.6309 22.0859 20.6852 22.3015C20.3132 22.3863 19.935 22.3335 19.5814 22.231C19.2246 22.1275 18.8337 21.9556 18.4093 21.7383C17.57 21.3085 16.4799 20.6377 15.0801 19.7763L15.0481 19.7566L13.2838 18.6708C12.6288 18.2677 12.4479 18.1679 12.2734 18.1287C12.0932 18.0883 11.9063 18.0883 11.7262 18.1287C11.5516 18.1679 11.3708 18.2677 10.7157 18.6708L8.95142 19.7566L8.91923 19.7764C7.51954 20.6377 6.42949 21.3085 5.59023 21.7383C5.16581 21.9556 4.775 22.1275 4.41813 22.231C4.06458 22.3335 3.68631 22.3863 3.31436 22.3015C2.36867 22.0859 1.60652 21.388 1.30861 20.465C1.19144 20.1019 1.21078 19.7205 1.28183 19.3593C1.35354 18.9947 1.49044 18.5903 1.66963 18.1484C2.02397 17.2746 2.59639 16.1297 3.33142 14.6597L3.34825 14.626L8.46679 4.38895L8.48425 4.35404C8.93004 3.46244 9.28801 2.74646 9.6143 2.21973C9.93882 1.69585 10.305 1.23233 10.8213 0.98746Z" fill="currentcolor"/>
</svg>
