<svg width="24" height="24" viewBox="0 0 24 24" fill="none" color="#FFFFFF" xmlns="http://www.w3.org/2000/svg">
    <path id="vector" fill-rule="evenodd" clip-rule="evenodd" d="M8.40088 13.2504C8.66819 13.2504 8.9145 13.2503 9.11865 13.267C9.33152 13.2844 9.56539 13.3236 9.79541 13.4408C10.1243 13.6085 10.3915 13.8765 10.5591 14.2055C10.6763 14.4356 10.7155 14.6693 10.7329 14.8822C10.7496 15.0865 10.7495 15.3327 10.7495 15.6V20.4008C10.7495 20.6682 10.7496 20.9144 10.7329 21.1186C10.7155 21.3315 10.6763 21.5653 10.5591 21.7953C10.3914 22.1241 10.1243 22.3923 9.79541 22.56C9.56537 22.6772 9.33153 22.7163 9.11865 22.7338C8.9145 22.7505 8.66819 22.7504 8.40088 22.7504H3.6001C3.33282 22.7504 3.0865 22.7505 2.88232 22.7338C2.66944 22.7163 2.43558 22.677 2.20557 22.56C1.87662 22.3924 1.60868 22.1242 1.44092 21.7953C1.32371 21.5653 1.28454 21.3315 1.26709 21.1186C1.25041 20.9144 1.25049 20.6682 1.25049 20.4008V15.6C1.25049 15.3327 1.25043 15.0865 1.26709 14.8822C1.28452 14.6693 1.32369 14.4356 1.44092 14.2055C1.60867 13.8764 1.87646 13.6085 2.20557 13.4408C2.43568 13.3236 2.66934 13.2844 2.88232 13.267C3.08651 13.2503 3.33279 13.2504 3.6001 13.2504H8.40088ZM20.3999 13.2504C20.6674 13.2504 20.9144 13.2503 21.1187 13.267C21.3315 13.2844 21.5654 13.3236 21.7954 13.4408C22.1243 13.6085 22.3915 13.8765 22.5591 14.2055C22.6763 14.4356 22.7155 14.6693 22.7329 14.8822C22.7496 15.0865 22.7495 15.3327 22.7495 15.6V20.4008C22.7495 20.6682 22.7496 20.9144 22.7329 21.1186C22.7155 21.3315 22.6763 21.5653 22.5591 21.7953C22.3914 22.1241 22.1243 22.3923 21.7954 22.56C21.5654 22.6772 21.3315 22.7163 21.1187 22.7338C20.9144 22.7505 20.6674 22.7504 20.3999 22.7504H15.6001C15.3328 22.7504 15.0865 22.7505 14.8823 22.7338C14.6692 22.7163 14.4348 22.6773 14.2046 22.56C13.8757 22.3923 13.6086 22.1241 13.4409 21.7953C13.3237 21.5653 13.2836 21.3316 13.2661 21.1186C13.2495 20.9144 13.2495 20.6682 13.2495 20.4008V15.6C13.2495 15.3327 13.2495 15.0864 13.2661 14.8822C13.2836 14.6693 13.3237 14.4356 13.4409 14.2055C13.6085 13.8766 13.8757 13.6085 14.2046 13.4408C14.4348 13.3235 14.6692 13.2844 14.8823 13.267C15.0865 13.2503 15.3328 13.2504 15.6001 13.2504H20.3999ZM3.6001 14.7504C3.30826 14.7504 3.13342 14.7507 3.00439 14.7611C2.93404 14.7669 2.89981 14.7741 2.88721 14.7777C2.84017 14.8017 2.8018 14.84 2.77783 14.8871C2.77424 14.8996 2.76701 14.9337 2.76123 15.0043C2.75072 15.1333 2.75049 15.308 2.75049 15.6V20.4008C2.75049 20.6927 2.75069 20.8674 2.76123 20.9965C2.76713 21.0682 2.77434 21.1018 2.77783 21.1137C2.80182 21.1605 2.84035 21.1992 2.88721 21.2231C2.87083 21.2148 2.88433 21.2299 3.00439 21.2397C3.13341 21.2502 3.30831 21.2504 3.6001 21.2504H8.40088C8.69276 21.2504 8.86759 21.2502 8.99658 21.2397C9.1157 21.2299 9.12979 21.215 9.11377 21.2231C9.1607 21.1992 9.19918 21.1606 9.22314 21.1137C9.21503 21.1298 9.22998 21.1158 9.23975 20.9965C9.25024 20.8674 9.24951 20.6927 9.24951 20.4008V15.6C9.24951 15.3081 9.25021 15.1333 9.23975 15.0043C9.22995 14.8842 9.21484 14.8707 9.22314 14.8871C9.19924 14.8402 9.1606 14.8018 9.11377 14.7777C9.12926 14.7855 9.11482 14.7708 8.99658 14.7611C8.86759 14.7506 8.69276 14.7504 8.40088 14.7504H3.6001ZM15.6001 14.7504C15.3079 14.7504 15.1325 14.7506 15.0034 14.7611C14.9334 14.7669 14.8998 14.7741 14.8872 14.7777C14.8401 14.8017 14.8018 14.84 14.7778 14.8871C14.7742 14.8996 14.767 14.9337 14.7612 15.0043C14.7507 15.1333 14.7495 15.3081 14.7495 15.6V20.4008C14.7495 20.6927 14.7506 20.8674 14.7612 20.9965C14.7671 21.0682 14.7743 21.1018 14.7778 21.1137C14.8018 21.1605 14.8403 21.1992 14.8872 21.2231C14.8708 21.2148 14.8838 21.2299 15.0034 21.2397C15.1325 21.2503 15.3079 21.2504 15.6001 21.2504H20.3999C20.6917 21.2504 20.8667 21.2502 20.9956 21.2397C21.1157 21.2299 21.1292 21.2148 21.1128 21.2231C21.1598 21.1992 21.1991 21.1607 21.2231 21.1137C21.215 21.1298 21.23 21.1158 21.2397 20.9965C21.2502 20.8674 21.2495 20.6927 21.2495 20.4008V15.6C21.2495 15.3081 21.2502 15.1333 21.2397 15.0043C21.2299 14.8842 21.2148 14.8707 21.2231 14.8871C21.1991 14.84 21.1599 14.8017 21.1128 14.7777C21.1002 14.7741 21.066 14.7669 20.9956 14.7611C20.8666 14.7507 20.6918 14.7504 20.3999 14.7504H15.6001ZM8.40088 1.2504C8.66819 1.2504 8.9145 1.25032 9.11865 1.267C9.33151 1.28444 9.56539 1.32364 9.79541 1.44083C10.1243 1.60859 10.3915 1.87655 10.5591 2.20547C10.6763 2.43563 10.7155 2.66923 10.7329 2.88223C10.7496 3.08644 10.7495 3.33267 10.7495 3.60001V8.40079C10.7495 8.66813 10.7496 8.91438 10.7329 9.11856C10.7155 9.33152 10.6763 9.56527 10.5591 9.79532C10.3914 10.1241 10.1243 10.3923 9.79541 10.56C9.56537 10.6772 9.33153 10.7163 9.11865 10.7338C8.9145 10.7505 8.66819 10.7504 8.40088 10.7504H3.6001C3.33282 10.7504 3.0865 10.7505 2.88232 10.7338C2.66944 10.7163 2.43558 10.677 2.20557 10.56C1.87662 10.3924 1.60868 10.1242 1.44092 9.79532C1.32371 9.56527 1.28454 9.33152 1.26709 9.11856C1.25041 8.91438 1.25049 8.66813 1.25049 8.40079V3.60001C1.25049 3.33267 1.25043 3.08644 1.26709 2.88223C1.28452 2.66923 1.32368 2.43563 1.44092 2.20547C1.60867 1.87637 1.87646 1.60858 2.20557 1.44083C2.43569 1.32363 2.66934 1.28441 2.88232 1.267C3.08651 1.25034 3.33279 1.2504 3.6001 1.2504H8.40088ZM20.3999 1.2504C20.6674 1.2504 20.9144 1.25031 21.1187 1.267C21.3315 1.28444 21.5654 1.32364 21.7954 1.44083C22.1243 1.60859 22.3915 1.87655 22.5591 2.20547C22.6763 2.43563 22.7155 2.66923 22.7329 2.88223C22.7496 3.08644 22.7495 3.33267 22.7495 3.60001V8.40079C22.7495 8.66813 22.7496 8.91438 22.7329 9.11856C22.7155 9.33152 22.6763 9.56527 22.5591 9.79532C22.3914 10.1241 22.1243 10.3923 21.7954 10.56C21.5654 10.6772 21.3315 10.7163 21.1187 10.7338C20.9144 10.7505 20.6674 10.7504 20.3999 10.7504H15.6001C15.3328 10.7504 15.0865 10.7505 14.8823 10.7338C14.6692 10.7163 14.4348 10.6773 14.2046 10.56C13.8757 10.3923 13.6086 10.1241 13.4409 9.79532C13.3237 9.56525 13.2836 9.33154 13.2661 9.11856C13.2495 8.91438 13.2495 8.66813 13.2495 8.40079V3.60001C13.2495 3.3327 13.2495 3.08643 13.2661 2.88223C13.2836 2.66923 13.3237 2.43562 13.4409 2.20547C13.6085 1.87655 13.8757 1.60859 14.2046 1.44083C14.4348 1.32355 14.6692 1.28442 14.8823 1.267C15.0865 1.25034 15.3328 1.2504 15.6001 1.2504H20.3999ZM3.6001 2.7504C3.30826 2.75041 3.13342 2.75062 3.00439 2.76114C2.93404 2.7669 2.89981 2.77414 2.88721 2.77774C2.84017 2.80171 2.8018 2.84008 2.77783 2.88712C2.77424 2.89964 2.76701 2.93375 2.76123 3.0043C2.75072 3.13334 2.75049 3.30811 2.75049 3.60001V8.40079C2.75049 8.69271 2.7507 8.86748 2.76123 8.99649C2.76712 9.06814 2.77434 9.10178 2.77783 9.11368C2.80182 9.16049 2.84034 9.19917 2.88721 9.22305C2.87083 9.21471 2.88433 9.22982 3.00439 9.23965C3.13341 9.25016 3.30831 9.2504 3.6001 9.2504H8.40088C8.69276 9.2504 8.86759 9.2502 8.99658 9.23965C9.11568 9.22987 9.12978 9.21498 9.11377 9.22305C9.16071 9.19909 9.19918 9.16059 9.22314 9.11368C9.21498 9.12986 9.22997 9.11594 9.23975 8.99649C9.25024 8.86748 9.24951 8.69271 9.24951 8.40079V3.60001C9.24951 3.30817 9.25021 3.13333 9.23975 3.0043C9.22995 2.88425 9.21484 2.87075 9.22314 2.88712C9.19924 2.84026 9.1606 2.80173 9.11377 2.77774C9.12927 2.78546 9.11483 2.77086 8.99658 2.76114C8.86759 2.75059 8.69276 2.75041 8.40088 2.7504H3.6001ZM15.6001 2.7504C15.3079 2.75041 15.1325 2.75059 15.0034 2.76114C14.9334 2.7669 14.8998 2.77415 14.8872 2.77774C14.8401 2.80171 14.8018 2.84008 14.7778 2.88712C14.7742 2.89963 14.767 2.93375 14.7612 3.0043C14.7507 3.13334 14.7495 3.30811 14.7495 3.60001V8.40079C14.7495 8.69271 14.7506 8.86748 14.7612 8.99649C14.7671 9.06815 14.7743 9.10179 14.7778 9.11368C14.8018 9.16049 14.8403 9.19917 14.8872 9.22305C14.8708 9.21472 14.8838 9.22982 15.0034 9.23965C15.1325 9.2502 15.3079 9.2504 15.6001 9.2504H20.3999C20.6917 9.2504 20.8667 9.25016 20.9956 9.23965C21.1157 9.22982 21.1292 9.21471 21.1128 9.22305C21.1599 9.1991 21.1991 9.16067 21.2231 9.11368C21.215 9.12986 21.23 9.11594 21.2397 8.99649C21.2502 8.86748 21.2495 8.69271 21.2495 8.40079V3.60001C21.2495 3.30817 21.2502 3.13333 21.2397 3.0043C21.2299 2.88425 21.2148 2.87075 21.2231 2.88712C21.1991 2.84008 21.1599 2.80171 21.1128 2.77774C21.1002 2.77413 21.066 2.7669 20.9956 2.76114C20.8666 2.75062 20.6918 2.75041 20.3999 2.7504H15.6001Z" fill="currentcolor"/>
</svg>
