<svg width="24" height="24" viewBox="0 0 24 24" fill="none" color="#FFFFFF" xmlns="http://www.w3.org/2000/svg">
    <path id="vector" fill-rule="evenodd" clip-rule="evenodd" d="M13.4014 0.00488281C13.4445 0.00852865 13.4877 0.0143229 13.5303 0.0214844C13.5729 0.0286389 13.6152 0.0373239 13.6572 0.0478516C13.6991 0.0585191 13.7404 0.0709151 13.7812 0.0849609C13.8223 0.0990206 13.8626 0.114522 13.9023 0.131836C13.9418 0.149232 13.9806 0.167975 14.0186 0.188477C14.0567 0.20917 14.0937 0.232174 14.1299 0.255859C14.166 0.279532 14.2013 0.304523 14.2354 0.331055C14.2695 0.357747 14.3032 0.385612 14.335 0.415039C14.3666 0.444259 14.3975 0.475026 14.4268 0.506836C14.4558 0.538564 14.4835 0.571553 14.5098 0.605469C14.5363 0.639714 14.5614 0.675716 14.585 0.711914C14.6085 0.748168 14.631 0.785172 14.6514 0.823242C14.6719 0.861258 14.6907 0.899886 14.708 0.939453C14.7253 0.979123 14.741 1.01958 14.7549 1.06055C14.7688 1.10132 14.7815 1.14276 14.792 1.18457L15.1924 2.79004L16.2559 3.23047L17.6748 2.37988C17.7117 2.35768 17.7495 2.33648 17.7881 2.31738L17.9072 2.26465L18.0293 2.22266C18.0707 2.21016 18.113 2.19954 18.1553 2.19043C18.1973 2.18152 18.2397 2.17439 18.2822 2.16895L18.4121 2.15723C18.4553 2.15528 18.4988 2.15554 18.542 2.15723C18.5851 2.15892 18.628 2.16277 18.6709 2.16797C18.7138 2.1733 18.7566 2.17964 18.7988 2.18848C18.8411 2.19733 18.8833 2.20846 18.9248 2.2207C18.966 2.23302 19.0067 2.24715 19.0469 2.2627C19.0871 2.27844 19.1271 2.29546 19.166 2.31445C19.2048 2.33346 19.243 2.35469 19.2803 2.37695C19.3173 2.39903 19.3536 2.42222 19.3887 2.44727C19.4238 2.4724 19.4583 2.49922 19.4912 2.52734C19.5242 2.55525 19.5556 2.58474 19.5859 2.61523L21.3857 4.41406C21.4163 4.44466 21.4458 4.47682 21.4736 4.50977C21.5016 4.54266 21.5276 4.57721 21.5527 4.6123C21.578 4.64756 21.6019 4.68363 21.624 4.7207C21.6461 4.75777 21.6666 4.79607 21.6855 4.83496C21.7045 4.87357 21.7216 4.91297 21.7373 4.95312C21.7529 4.99336 21.7679 5.03464 21.7803 5.07617C21.7925 5.1175 21.8027 5.15978 21.8115 5.20215C21.8203 5.24436 21.8277 5.28722 21.833 5.33008C21.8382 5.3729 21.8411 5.4159 21.8428 5.45898C21.8445 5.50221 21.8447 5.54564 21.8428 5.58887C21.8409 5.63196 21.8375 5.67494 21.832 5.71777L21.8105 5.8457L21.7783 5.97168L21.7354 6.09375L21.6826 6.21191C21.6635 6.25071 21.6434 6.2892 21.6211 6.32617L20.7695 7.74414L21.21 8.80859L22.8135 9.20898C22.8554 9.21953 22.8975 9.23216 22.9385 9.24609C22.9793 9.25989 23.0199 9.2758 23.0596 9.29297C23.099 9.31006 23.138 9.32832 23.1758 9.34863C23.2139 9.36921 23.2518 9.39147 23.2881 9.41504C23.3244 9.43845 23.3594 9.46384 23.3936 9.49023C23.4278 9.51666 23.4613 9.54493 23.4932 9.57422C23.5249 9.60326 23.5557 9.63342 23.585 9.66504C23.6144 9.69681 23.6424 9.73053 23.6689 9.76465C23.6954 9.79852 23.7205 9.83322 23.7441 9.86914C23.7678 9.90534 23.7898 9.94329 23.8105 9.98145C23.8311 10.0194 23.8508 10.0582 23.8682 10.0977C23.8855 10.137 23.9011 10.1772 23.915 10.2178C23.9291 10.2587 23.9416 10.3007 23.9521 10.3428C23.9628 10.3846 23.9714 10.4271 23.9785 10.4697C23.9855 10.5123 23.9916 10.5556 23.9951 10.5986C23.9987 10.6415 24 10.6845 24 10.7275V13.2725L23.9951 13.4014L23.9785 13.5303C23.9714 13.5729 23.9628 13.6154 23.9521 13.6572C23.9416 13.6992 23.9291 13.7412 23.915 13.7822L23.8682 13.9023C23.8509 13.942 23.8312 13.9806 23.8105 14.0186C23.79 14.0565 23.7678 14.0938 23.7441 14.1299C23.7205 14.1659 23.6955 14.2014 23.6689 14.2354C23.6424 14.2695 23.6144 14.3032 23.585 14.335C23.5558 14.3666 23.5249 14.3967 23.4932 14.4258C23.4613 14.4551 23.4278 14.4833 23.3936 14.5098C23.3594 14.5363 23.3242 14.5614 23.2881 14.585L23.1768 14.6504C23.1388 14.6708 23.0993 14.6897 23.0596 14.707C23.0199 14.7242 22.9794 14.7401 22.9385 14.7539C22.8976 14.7678 22.8563 14.7805 22.8145 14.791L21.21 15.1914L20.7705 16.2559L21.6211 17.6738C21.6433 17.7107 21.6636 17.7485 21.6826 17.7871C21.7018 17.8259 21.7195 17.866 21.7354 17.9062C21.7512 17.9464 21.7659 17.9869 21.7783 18.0283C21.7908 18.0697 21.8016 18.112 21.8105 18.1543C21.8195 18.1966 21.8266 18.2393 21.832 18.2822C21.8373 18.3251 21.841 18.368 21.8428 18.4111C21.8446 18.4544 21.8445 18.4978 21.8428 18.541C21.8411 18.5841 21.8383 18.6272 21.833 18.6699L21.8115 18.7979C21.8027 18.8401 21.7925 18.8824 21.7803 18.9238L21.7373 19.0469L21.6855 19.166L21.624 19.2803C21.6019 19.3173 21.5778 19.3535 21.5527 19.3887L21.4736 19.4912L21.3848 19.5859L19.5859 21.3848C19.5555 21.4155 19.5232 21.4445 19.4902 21.4727C19.4572 21.5007 19.423 21.5275 19.3877 21.5527C19.3526 21.5778 19.3164 21.6019 19.2793 21.624C19.2421 21.6462 19.2039 21.6666 19.165 21.6855C19.1263 21.7046 19.087 21.7226 19.0469 21.7383L18.9238 21.7803L18.7979 21.8115C18.7555 21.8204 18.7129 21.8278 18.6699 21.833C18.627 21.8383 18.5834 21.8421 18.54 21.8438C18.4971 21.8454 18.4541 21.8447 18.4111 21.8428C18.3678 21.841 18.3242 21.8375 18.2812 21.832C18.2385 21.8266 18.1956 21.8197 18.1533 21.8105L18.0273 21.7783L17.9053 21.7354C17.8652 21.7194 17.8257 21.7018 17.7871 21.6826C17.7483 21.6635 17.7098 21.6425 17.6729 21.6201L16.2559 20.7695L15.1914 21.21L14.791 22.8145C14.7805 22.8562 14.7688 22.8977 14.7549 22.9385C14.741 22.9794 14.7251 23.0201 14.708 23.0596L14.6514 23.1768C14.6309 23.2149 14.6085 23.2519 14.585 23.2881C14.5614 23.3243 14.5363 23.3594 14.5098 23.3936L14.4258 23.4932L14.334 23.585C14.3023 23.6143 14.2694 23.6423 14.2354 23.6689L14.1299 23.7441C14.0937 23.7678 14.0565 23.79 14.0186 23.8105C13.9804 23.8312 13.9419 23.8507 13.9023 23.8682L13.7812 23.915L13.6572 23.9521L13.5303 23.9785C13.4876 23.9857 13.4445 23.9916 13.4014 23.9951C13.3582 23.9988 13.3148 24 13.2715 24H10.7285L10.5986 23.9951C10.5555 23.9915 10.5124 23.9855 10.4697 23.9785C10.4272 23.9714 10.3848 23.9627 10.3428 23.9521C10.3009 23.9415 10.2596 23.9291 10.2188 23.915C10.1778 23.901 10.1372 23.8856 10.0977 23.8682L9.98145 23.8115L9.87012 23.7441L9.76465 23.6689C9.73053 23.6423 9.69694 23.6143 9.66504 23.585L9.57422 23.4932C9.54499 23.4613 9.51674 23.4287 9.49023 23.3945C9.46367 23.3604 9.43861 23.3243 9.41504 23.2881C9.39143 23.2519 9.36914 23.2148 9.34863 23.1768L9.29199 23.0605C9.27468 23.0209 9.25904 22.9804 9.24512 22.9395L9.20898 22.8154L8.80762 21.21L7.74414 20.7695L6.32617 21.6201C6.28906 21.6425 6.25072 21.6633 6.21191 21.6826L6.09375 21.7354C6.05352 21.7514 6.01211 21.7648 5.9707 21.7773C5.92945 21.7898 5.88786 21.8006 5.8457 21.8096C5.80344 21.8187 5.76055 21.8266 5.71777 21.832L5.58789 21.8428C5.54491 21.8446 5.50196 21.8444 5.45898 21.8428L5.3291 21.833C5.28619 21.8277 5.24343 21.8204 5.20117 21.8115L5.0752 21.7803C5.03387 21.7679 4.99328 21.753 4.95312 21.7373C4.91276 21.7215 4.87279 21.7047 4.83398 21.6855L4.71973 21.624C4.68267 21.6018 4.64644 21.5778 4.61133 21.5527C4.57629 21.5276 4.5426 21.5007 4.50977 21.4727C4.47682 21.4447 4.44466 21.4154 4.41406 21.3848L2.61426 19.5859C2.58366 19.5553 2.55423 19.5232 2.52637 19.4902C2.49842 19.4573 2.47235 19.4228 2.44727 19.3877C2.42203 19.3524 2.39809 19.3164 2.37598 19.2793C2.35387 19.2422 2.33344 19.2039 2.31445 19.165L2.2627 19.0469C2.24707 19.0066 2.2321 18.9652 2.21973 18.9238C2.20752 18.8825 2.19731 18.8402 2.18848 18.7979C2.17965 18.7556 2.17232 18.7128 2.16699 18.6699L2.15723 18.541C2.15553 18.4978 2.15527 18.4544 2.15723 18.4111L2.16797 18.2822C2.17344 18.2394 2.18047 18.1966 2.18945 18.1543C2.19844 18.112 2.20918 18.0697 2.22168 18.0283L2.26465 17.9062L2.31738 17.7881C2.33652 17.7493 2.35664 17.7108 2.37891 17.6738L3.23047 16.2559L2.79004 15.1914L1.18652 14.791C1.1446 14.7805 1.10254 14.7678 1.06152 14.7539C1.02067 14.7401 0.980112 14.7242 0.94043 14.707L0.824219 14.6514L0.711914 14.585C0.675635 14.5614 0.640646 14.5362 0.606445 14.5098C0.572215 14.4833 0.538724 14.4551 0.506836 14.4258C0.475098 14.3967 0.444197 14.3666 0.415039 14.335C0.385612 14.3032 0.357617 14.2695 0.331055 14.2354L0.255859 14.1309L0.189453 14.0186C0.168931 13.9806 0.149247 13.9418 0.131836 13.9023L0.0849609 13.7822C0.0708984 13.7413 0.0583984 13.6993 0.0478516 13.6572L0.0214844 13.5303C0.0144652 13.4877 0.00839438 13.4444 0.00488281 13.4014L0 13.2725V10.7275C5.06952e-06 10.6845 0.00127104 10.6415 0.00488281 10.5986L0.0214844 10.4697C0.0286345 10.4271 0.0371972 10.3846 0.0478516 10.3428L0.0849609 10.2178L0.131836 10.0977C0.149247 10.0582 0.168931 10.0194 0.189453 9.98145C0.210156 9.94329 0.232161 9.90534 0.255859 9.86914L0.331055 9.76465C0.357617 9.73053 0.385612 9.69681 0.415039 9.66504L0.506836 9.57422C0.538724 9.54493 0.572215 9.51666 0.606445 9.49023C0.640646 9.46384 0.675636 9.43845 0.711914 9.41504C0.748242 9.39147 0.786068 9.36921 0.824219 9.34863L0.94043 9.29297L1.06152 9.24609L1.18652 9.20898L2.79004 8.80859L3.22949 7.74414L2.37891 6.32617C2.35678 6.28939 2.33629 6.25147 2.31738 6.21289L2.26465 6.09375L2.22168 5.97168C2.20918 5.93028 2.19844 5.88801 2.18945 5.8457C2.1805 5.80349 2.17342 5.76063 2.16797 5.71777L2.15723 5.58887C2.15541 5.54566 2.1554 5.50232 2.15723 5.45898L2.16699 5.33008L2.18848 5.20215C2.19733 5.15983 2.20833 5.11771 2.2207 5.07617C2.23294 5.03479 2.24695 4.99347 2.2627 4.95312C2.27826 4.91296 2.29567 4.87358 2.31445 4.83496C2.33344 4.79608 2.35374 4.75777 2.37598 4.7207C2.39808 4.68351 2.42204 4.64742 2.44727 4.6123L2.52734 4.50977L2.61523 4.41406L4.41406 2.61523C4.44466 2.58464 4.4767 2.55521 4.50977 2.52734L4.6123 2.44824C4.64741 2.42315 4.68365 2.39906 4.7207 2.37695L4.83496 2.31543C4.87376 2.29642 4.91374 2.27845 4.9541 2.2627C4.99417 2.2472 5.03495 2.23384 5.07617 2.22168C5.11752 2.20933 5.15976 2.1983 5.20215 2.18945C5.2444 2.18074 5.28718 2.1733 5.33008 2.16797C5.37292 2.16263 5.41673 2.16003 5.45996 2.1582C5.50302 2.15653 5.54593 2.1564 5.58887 2.1582C5.6321 2.16016 5.67591 2.16348 5.71875 2.16895C5.76164 2.17441 5.80444 2.18146 5.84668 2.19043C5.88879 2.19938 5.93047 2.21023 5.97168 2.22266C6.01322 2.23516 6.05436 2.24987 6.09473 2.26562C6.13474 2.28143 6.17429 2.29836 6.21289 2.31738C6.25169 2.33652 6.29004 2.35762 6.32715 2.37988L7.74414 3.23047L8.80859 2.79004L9.20898 1.18555L9.24512 1.06152C9.25902 1.02061 9.27485 0.979922 9.29199 0.94043C9.30931 0.900716 9.32806 0.861263 9.34863 0.823242C9.36906 0.785128 9.39149 0.748078 9.41504 0.711914L9.49023 0.606445C9.5168 0.572201 9.54492 0.538737 9.57422 0.506836C9.60334 0.474997 9.6343 0.444284 9.66602 0.415039L9.76465 0.331055L9.87012 0.255859C9.9064 0.232193 9.94347 0.210132 9.98145 0.189453C10.0194 0.168897 10.058 0.149272 10.0977 0.131836L10.2188 0.0849609C10.2596 0.07092 10.3009 0.0585172 10.3428 0.0478516L10.4697 0.0214844C10.5124 0.0143244 10.5555 0.00839847 10.5986 0.00488281L10.7285 0H13.2715C13.3148 0 13.3583 0.00137219 13.4014 0.00488281ZM10.7178 1.50098H10.7119L10.7129 1.50195C10.7108 1.50248 10.709 1.50324 10.707 1.50391H10.7051L10.6953 1.50879L10.6943 1.50781C10.693 1.50857 10.6916 1.50903 10.6904 1.50977L10.6914 1.51074L10.6895 1.51172L10.6855 1.51465L10.6787 1.52148C10.6783 1.52189 10.6775 1.5232 10.6758 1.52539L10.6738 1.52734V1.52832L10.6719 1.53027C10.6708 1.53188 10.6707 1.53265 10.6709 1.53223L10.668 1.53711C10.6684 1.53638 10.6686 1.53679 10.668 1.53809C10.667 1.54041 10.6665 1.5426 10.666 1.54395L10.665 1.54492C10.6648 1.54566 10.6635 1.54647 10.6631 1.54785L10.6641 1.54883L10.2637 3.15332L10.0811 3.88672L9.38281 4.17578L8.31836 4.61621L7.62012 4.90625L6.97266 4.5166L5.55469 3.66602V3.66504C5.55273 3.66389 5.55092 3.66364 5.5498 3.66309H5.54883C5.54364 3.66107 5.541 3.65948 5.54004 3.65918H5.53809C5.53756 3.65904 5.53664 3.65852 5.53516 3.6582C5.53451 3.65807 5.53245 3.65763 5.5293 3.65723H5.52832L5.52637 3.65625V3.65723C5.52345 3.6571 5.52105 3.65623 5.51953 3.65625L5.51562 3.65723C5.51299 3.65755 5.51006 3.65682 5.50781 3.65723C5.50575 3.65767 5.50524 3.65839 5.50586 3.6582L5.50098 3.66016L5.49512 3.66211L5.48926 3.66504L5.48438 3.66797L5.48145 3.6709L5.47656 3.6748L5.47559 3.67578H5.47461L3.67578 5.47559L3.66504 5.48633V5.4873H3.66602L3.66211 5.49023L3.66309 5.49121C3.66082 5.49587 3.66036 5.49709 3.66113 5.49512L3.66016 5.49902L3.65918 5.50098L3.6582 5.50391C3.6581 5.50426 3.6578 5.50612 3.65723 5.50879C3.6572 5.50891 3.6567 5.51107 3.65625 5.51465C3.65613 5.51596 3.65628 5.51693 3.65625 5.51758L3.65527 5.52246L3.65723 5.53418C3.65768 5.53633 3.65811 5.53775 3.6582 5.53809C3.65886 5.54026 3.65972 5.54323 3.66113 5.54688L3.66504 5.55469L4.5166 6.97266L4.9043 7.62012L4.61621 8.31738L4.17676 9.38184L3.8877 10.0801L3.1543 10.2637L1.5498 10.665L1.54883 10.6641C1.54515 10.665 1.5437 10.6661 1.54395 10.666L1.54102 10.667C1.54035 10.6672 1.5386 10.6679 1.53613 10.6689L1.52832 10.6738L1.52539 10.6758C1.52479 10.6762 1.52429 10.6771 1.52344 10.6777L1.52148 10.6787L1.51953 10.6807L1.51855 10.6826L1.51562 10.6846L1.51465 10.6855L1.50879 10.6943H1.50781C1.50653 10.6967 1.506 10.6996 1.50488 10.7021C1.50479 10.7024 1.5037 10.7038 1.50293 10.7061V10.707L1.50195 10.7129C1.50189 10.7132 1.50148 10.7148 1.50098 10.7178L1.5 10.7168V13.2822H1.50098L1.50195 13.2871L1.50293 13.293V13.2939L1.50879 13.3057L1.51465 13.3145L1.51562 13.3154L1.51855 13.3174L1.51953 13.3193L1.52148 13.3213L1.52344 13.3223C1.52608 13.3243 1.52755 13.3257 1.52832 13.3262C1.5294 13.3269 1.53138 13.3285 1.53418 13.3301L1.53613 13.3311L1.54102 13.333L1.54395 13.334C1.54373 13.3339 1.54535 13.334 1.54883 13.335H1.5498L3.1543 13.7363L3.88672 13.9199L4.17578 14.6182L4.61621 15.6816L4.90527 16.3799L4.5166 17.0273L3.66504 18.4453L3.65918 18.457C3.6597 18.4557 3.65963 18.4572 3.6582 18.4619C3.6582 18.4619 3.65776 18.4633 3.65723 18.4658L3.65625 18.4717C3.65612 18.4727 3.65629 18.4737 3.65625 18.4746L3.65527 18.4795V18.4854H3.65625L3.65723 18.4912V18.4941C3.65786 18.4963 3.65845 18.4989 3.65918 18.501C3.65976 18.5025 3.66084 18.5042 3.66113 18.5049V18.5059L3.66211 18.5068C3.66276 18.5082 3.66345 18.5097 3.66406 18.5107L3.66699 18.5146V18.5156L3.66992 18.5186L3.67188 18.5215L5.48047 20.3301L5.4834 20.332C5.48496 20.3331 5.48745 20.3352 5.49023 20.3369L5.49219 20.3379L5.49805 20.3398V20.3408H5.5C5.50068 20.341 5.50164 20.3414 5.50293 20.3418H5.50391L5.50879 20.3438H5.50977C5.51381 20.3442 5.51658 20.3447 5.51758 20.3447C5.51822 20.3447 5.5192 20.3447 5.52051 20.3447C5.52374 20.3446 5.52601 20.3439 5.52734 20.3438H5.5293L5.53418 20.3428C5.53467 20.3427 5.5356 20.3422 5.53711 20.3418C5.53922 20.3412 5.54015 20.3414 5.53906 20.3418L5.55078 20.3359L5.55371 20.334L6.97266 19.4824L7.62012 19.0938L8.31836 19.3838L9.38184 19.8242L10.0801 20.1133L10.2637 20.8467L10.6631 22.4492L10.665 22.4551L10.666 22.457C10.6662 22.4576 10.6662 22.459 10.667 22.4609C10.6674 22.4619 10.6681 22.4631 10.6689 22.4648L10.6719 22.4688V22.4697L10.6738 22.4727L10.6758 22.4746L10.6768 22.4766L10.6855 22.4854C10.6873 22.4867 10.6895 22.488 10.6914 22.4893C10.6924 22.4899 10.6936 22.4912 10.6953 22.4922L10.6973 22.4932L10.7031 22.4951L10.707 22.4971C10.7095 22.4977 10.7126 22.4986 10.7148 22.499C10.7181 22.4995 10.722 22.4997 10.7256 22.5H13.2793C13.2799 22.5 13.2811 22.4992 13.2822 22.499H13.2861C13.2847 22.4993 13.2848 22.4986 13.2871 22.498L13.2939 22.4961C13.2961 22.4953 13.2983 22.4942 13.3008 22.4932L13.3037 22.4922L13.3047 22.4912C13.3059 22.4906 13.3074 22.4901 13.3086 22.4893C13.309 22.489 13.3113 22.4878 13.3145 22.4854L13.3213 22.4785C13.3223 22.4773 13.3232 22.4759 13.3242 22.4746C13.3252 22.4733 13.3258 22.4722 13.3262 22.4717L13.3281 22.4697C13.3292 22.4681 13.3294 22.4673 13.3291 22.4678L13.332 22.4629C13.3315 22.4638 13.332 22.4633 13.333 22.4609C13.3337 22.4591 13.3336 22.4572 13.334 22.4561L13.335 22.4551C13.3353 22.4542 13.3355 22.4529 13.3359 22.4512L13.7363 20.8467L13.9189 20.1133L14.6172 19.8242L15.6816 19.3838L16.3799 19.0938L17.0273 19.4834L18.4453 20.334L18.4502 20.3369L18.4561 20.3398C18.4573 20.3403 18.4608 20.3412 18.4658 20.3428L18.4697 20.3438H18.4707C18.472 20.3439 18.473 20.3447 18.4736 20.3447H18.4854L18.4893 20.3438H18.4912C18.4912 20.3438 18.4929 20.3427 18.4961 20.3418C18.4972 20.3415 18.4985 20.3414 18.5 20.3408H18.502L18.5068 20.3379C18.508 20.3373 18.5093 20.3372 18.5098 20.3369L18.5107 20.3359C18.5107 20.3359 18.5121 20.3348 18.5146 20.333C18.5151 20.3327 18.5176 20.3314 18.5215 20.3281L20.3242 18.5254C20.3262 18.5234 20.3288 18.5204 20.332 18.5166C20.3338 18.5141 20.3354 18.5127 20.3359 18.5117V18.5098C20.3362 18.5093 20.3377 18.5083 20.3389 18.5059C20.3397 18.5038 20.3403 18.5015 20.3408 18.5C20.3417 18.4971 20.3423 18.4946 20.3428 18.4922V18.4912C20.3428 18.4911 20.3433 18.4891 20.3438 18.4854V18.4844L20.3447 18.4824C20.3448 18.4813 20.3449 18.4787 20.3447 18.4746C20.3448 18.476 20.3442 18.4748 20.3438 18.4707C20.3436 18.4698 20.3433 18.4682 20.3428 18.4658C20.3422 18.4632 20.3418 18.4619 20.3418 18.4619V18.4609C20.3414 18.4596 20.3412 18.4581 20.3408 18.457C20.3396 18.4539 20.3382 18.4519 20.3379 18.4512C20.3373 18.4499 20.3371 18.4486 20.3369 18.4482L20.335 18.4453L19.4834 17.0273L19.0957 16.3799L19.3838 15.6816L19.8242 14.6182L20.1133 13.9199L20.8467 13.7363L22.4502 13.335C22.4534 13.3341 22.4554 13.3342 22.4561 13.334L22.459 13.333C22.4586 13.3331 22.4588 13.3325 22.46 13.332C22.4625 13.3309 22.4647 13.3307 22.4658 13.3301L22.4678 13.3291C22.469 13.3284 22.4704 13.327 22.4717 13.3262L22.4775 13.3223L22.4854 13.3145L22.4873 13.3115L22.4883 13.3105L22.4912 13.3047L22.4932 13.3018L22.4951 13.2979L22.4961 13.2949L22.498 13.2871C22.4981 13.2868 22.4985 13.2852 22.499 13.2822C22.4993 13.2799 22.4998 13.2776 22.5 13.2754V10.7197C22.4999 10.719 22.4992 10.7181 22.499 10.7168C22.4986 10.7143 22.4981 10.7131 22.498 10.7129L22.4971 10.707V10.7061C22.4963 10.7038 22.4952 10.7024 22.4951 10.7021C22.494 10.6997 22.4924 10.6976 22.4912 10.6953V10.6943L22.4854 10.6855L22.4785 10.6787L22.4766 10.6777C22.4757 10.6771 22.4752 10.6762 22.4746 10.6758L22.4717 10.6738C22.4704 10.673 22.4676 10.6709 22.4639 10.6689L22.459 10.667L22.4502 10.6641L20.8457 10.2637L20.1133 10.0801L19.8242 9.38184L19.3838 8.31836L19.0947 7.62012L19.4834 6.97266L20.335 5.55469L20.3408 5.54297C20.3403 5.54426 20.3404 5.54276 20.3418 5.53809C20.3418 5.53809 20.3422 5.53666 20.3428 5.53418C20.3434 5.53122 20.3436 5.52919 20.3438 5.52832V5.52539L20.3447 5.52051C20.3447 5.51984 20.3448 5.51881 20.3447 5.51758C20.3447 5.51688 20.3439 5.51562 20.3438 5.51367C20.3434 5.51107 20.3429 5.50935 20.3428 5.50879V5.50781C20.3425 5.50641 20.3421 5.50513 20.3418 5.50391C20.3415 5.5028 20.3416 5.50104 20.3408 5.49902L20.3389 5.49512V5.49414L20.3379 5.49316C20.3372 5.49185 20.3366 5.49032 20.3359 5.48926C20.3346 5.48705 20.3333 5.48576 20.333 5.48535V5.48438C20.3318 5.48271 20.3304 5.48185 20.3301 5.48145L20.3281 5.47852L18.5215 3.67188L18.5166 3.66797C18.5148 3.66671 18.5129 3.66575 18.5117 3.66504L18.5107 3.66406C18.5104 3.66384 18.5093 3.66286 18.5078 3.66211C18.5065 3.66145 18.5042 3.66046 18.501 3.65918C18.4986 3.65833 18.4964 3.6586 18.4951 3.6582V3.65723C18.494 3.65696 18.4923 3.65746 18.4912 3.65723L18.4902 3.65625H18.4727L18.4668 3.65723C18.4646 3.65775 18.4633 3.65808 18.4629 3.6582L18.4619 3.65918C18.4613 3.65935 18.4599 3.65943 18.458 3.66016C18.4568 3.66064 18.4546 3.66186 18.4521 3.66309L18.4512 3.66211C18.4501 3.66266 18.4495 3.66429 18.4482 3.66504L18.4463 3.66602L17.0273 4.51758L16.3799 4.90625L15.6816 4.61621L14.6182 4.17578L13.9199 3.88672L13.7363 3.15332L13.3369 1.55078C13.3362 1.5481 13.3354 1.54619 13.335 1.54492V1.54297L13.3281 1.5293V1.53027C13.3274 1.52908 13.3258 1.52738 13.3242 1.52539V1.52441C13.3242 1.52442 13.3234 1.52293 13.3213 1.52051V1.52148L13.3145 1.51465L13.3086 1.51074C13.3076 1.51012 13.3065 1.50882 13.3047 1.50781C13.3023 1.50655 13.2994 1.50599 13.2969 1.50488V1.50391H13.2949L13.2939 1.50293C13.2939 1.50293 13.2932 1.50231 13.292 1.50195C13.2885 1.50109 13.2851 1.50147 13.2822 1.50098L13.2812 1.5H10.7207L10.7178 1.50098ZM12 5.40625C15.6416 5.40625 18.5938 8.35837 18.5938 12C18.5938 15.6416 15.6416 18.5938 12 18.5938C8.35837 18.5938 5.40625 15.6416 5.40625 12C5.40625 8.35837 8.35837 5.40625 12 5.40625ZM12 6.90625C9.1868 6.90625 6.90625 9.1868 6.90625 12C6.90625 14.8132 9.1868 17.0938 12 17.0938C14.8132 17.0938 17.0938 14.8132 17.0938 12C17.0938 9.1868 14.8132 6.90625 12 6.90625ZM12.001 8.5332C12.4152 8.5332 12.751 8.86899 12.751 9.2832V11.25H14.7178C15.132 11.25 15.4678 11.5858 15.4678 12C15.4678 12.4142 15.132 12.75 14.7178 12.75H12.751V14.7178C12.7507 15.1318 12.415 15.4678 12.001 15.4678C11.5869 15.4678 11.2512 15.1318 11.251 14.7178V12.75H9.2832C8.86899 12.75 8.5332 12.4142 8.5332 12C8.5332 11.5858 8.86899 11.25 9.2832 11.25H11.251V9.2832C11.251 8.86899 11.5868 8.5332 12.001 8.5332Z" fill="currentcolor"/>
</svg>
