<svg width="24" height="24" viewBox="0 0 24 24" fill="none" color="#FFFFFF" xmlns="http://www.w3.org/2000/svg">
    <path id="vector" fill-rule="evenodd" clip-rule="evenodd" d="M12 2.75C8.54822 2.75 5.75 5.54822 5.75 9C5.75 12.4518 8.54822 15.25 12 15.25C15.4518 15.25 18.25 12.4518 18.25 9C18.25 5.54822 15.4518 2.75 12 2.75ZM4.25 9C4.25 4.71979 7.71979 1.25 12 1.25C16.2802 1.25 19.75 4.71979 19.75 9C19.75 13.2802 16.2802 16.75 12 16.75C7.71979 16.75 4.25 13.2802 4.25 9ZM18.6164 1.46443C18.9122 1.17446 19.387 1.17918 19.677 1.47497C21.5771 3.41323 22.75 6.0704 22.75 9C22.75 14.6849 18.3372 19.3392 12.75 19.7242V21.25H14C14.4142 21.25 14.75 21.5858 14.75 22C14.75 22.4142 14.4142 22.75 14 22.75H12H10C9.58579 22.75 9.25 22.4142 9.25 22C9.25 21.5858 9.58579 21.25 10 21.25H11.25V19.7242C8.61838 19.5427 6.24643 18.4136 4.47497 16.677C4.17918 16.387 4.17446 15.9122 4.46443 15.6164C4.75439 15.3206 5.22924 15.3159 5.52503 15.6059C7.19427 17.2422 9.4787 18.25 12 18.25C17.1086 18.25 21.25 14.1086 21.25 9C21.25 6.4787 20.2422 4.19427 18.6059 2.52503C18.3159 2.22924 18.3206 1.75439 18.6164 1.46443Z" fill="currentcolor"/>
</svg>
