<svg width="24" height="24" viewBox="0 0 24 24" fill="none" color="#FFFFFF" xmlns="http://www.w3.org/2000/svg">
    <path id="vector" fill-rule="evenodd" clip-rule="evenodd" d="M9.94428 1.72413C12.0233 1.35467 14.7869 1.28002 16.6962 2.91944L19.0292 4.92335L19.0956 4.98683C19.1575 5.05483 19.2067 5.135 19.2402 5.2212L19.9824 7.13038L20.1874 7.30616C20.4631 7.0901 20.8626 7.09194 21.1386 7.32862L23.4081 9.27784C23.7221 9.54776 23.758 10.0213 23.4882 10.3355L20.6552 13.6343C20.3855 13.9481 19.9118 13.9846 19.5976 13.7153L17.3281 11.7661C17.0685 11.543 17.0016 11.1816 17.1376 10.8853L15.8603 9.78858L14.3681 11.478C14.3202 11.5322 14.2642 11.5749 14.206 11.6118L5.82123 21.3745C5.37145 21.8981 4.58221 21.958 4.05854 21.5083L1.43549 19.2554C0.911817 18.8056 0.85206 18.0164 1.3017 17.4927L9.67572 7.74073C9.70528 7.66966 9.74403 7.60114 9.79682 7.53956L11.4794 5.5796C11.4898 5.5675 11.4955 5.55409 11.5029 5.54444C11.4829 5.52603 11.4555 5.50216 11.4179 5.47511C11.093 5.24114 10.4609 5.01095 9.65815 4.81593C8.88538 4.62824 8.05431 4.4957 7.40912 4.40968C7.088 4.36687 6.81555 4.33595 6.62494 4.31593C6.53024 4.30598 6.45567 4.29919 6.40522 4.29444C6.37996 4.29207 6.36019 4.28971 6.3476 4.28858C6.34158 4.28805 6.33687 4.28692 6.33393 4.28663C6.3328 4.28653 6.33158 4.2876 6.331 4.28761C5.98898 4.25865 5.71021 4.00025 5.65424 3.66163C5.59853 3.3232 5.77851 2.98949 6.09272 2.85206L6.3935 3.53956L6.09467 2.85206L6.09662 2.85108C6.09781 2.85052 6.09967 2.84992 6.1015 2.84913C6.10555 2.84741 6.11123 2.8452 6.11811 2.84229C6.13265 2.8361 6.15404 2.82598 6.18061 2.81495C6.23363 2.79295 6.31003 2.76218 6.40717 2.72413C6.60239 2.64766 6.88313 2.54261 7.22846 2.42628C7.91722 2.19428 8.87501 1.91417 9.94428 1.72413ZM2.60248 18.2808L4.84565 20.2075L12.7197 11.0386L10.4755 9.11183L2.60248 18.2808ZM18.8749 11.1167L20.0058 12.0884L21.8622 9.92726L20.7304 8.95558L18.8749 11.1167ZM15.7197 4.05714C14.3622 2.89151 12.2182 2.84331 10.207 3.20069C10.0441 3.22964 9.88352 3.26039 9.7265 3.29347C9.8221 3.3149 9.91778 3.33586 10.0126 3.3589C10.8281 3.55701 11.7133 3.83933 12.2949 4.25831C12.5871 4.46889 12.9111 4.79149 13.0097 5.25538C13.1162 5.75768 12.9172 6.20767 12.6171 6.55714L11.4619 7.90089L13.7724 9.88624L15.2265 8.24073C15.498 7.93436 15.9655 7.90204 16.2763 8.16847L18.0908 9.72706L19.1992 8.43507L18.8632 8.14601C18.7697 8.06571 18.6969 7.96399 18.6523 7.84913L17.9101 5.93897L15.7197 4.05714Z" fill="currentcolor"/>
</svg>
