<svg width="24" height="24" viewBox="0 0 24 24" fill="none" color="#FFFFFF" xmlns="http://www.w3.org/2000/svg">
    <path id="vector" d="M12.4872 1.58398C14.2398 1.40807 16.5893 1.51435 18.1122 3.03711L19.9188 4.84473L19.9803 4.91406C20.0367 4.98637 20.0795 5.06903 20.1063 5.15723L20.5927 6.75684L20.6639 6.82812C20.9427 6.69492 21.2855 6.74187 21.5165 6.97266L23.2753 8.73047C23.568 9.02323 23.5678 9.4981 23.2753 9.79102L20.7186 12.3477C20.4257 12.6405 19.951 12.6405 19.6581 12.3477L17.9003 10.5898C17.6825 10.3721 17.6262 10.0536 17.7323 9.78418L16.8944 8.94629L15.6405 10.166C15.4326 10.368 15.1384 10.422 14.8807 10.3359L8.80359 16.4141C8.77365 16.444 8.74026 16.4693 8.70691 16.4932C8.63044 16.7816 8.48191 17.0551 8.25574 17.2812L4.68933 20.8477C4.00591 21.5311 2.89814 21.5311 2.21472 20.8477L1.23328 19.8662C0.550069 19.1828 0.549929 18.0749 1.23328 17.3916L4.79968 13.8252C5.0257 13.5992 5.29861 13.4486 5.58679 13.3721C5.61046 13.339 5.63719 13.307 5.66687 13.2773L11.744 7.2002C11.6567 6.93916 11.7141 6.64058 11.9218 6.43262L13.37 4.98438C13.1249 4.79372 12.6531 4.57839 12.0302 4.37598C11.4071 4.17356 10.7305 4.01193 10.203 3.90039C9.94089 3.84498 9.71818 3.80284 9.56238 3.77441C9.48487 3.76027 9.42385 3.74924 9.38269 3.74219C9.36218 3.73867 9.34599 3.73607 9.33582 3.73438C9.33113 3.73361 9.32739 3.73376 9.32507 3.7334C9.32392 3.73321 9.3226 3.73347 9.32214 3.7334C8.98323 3.6786 8.72526 3.39961 8.69519 3.05762C8.66514 2.7157 8.87019 2.39635 9.19421 2.2832L9.44128 2.99219C9.21617 2.34675 9.19675 2.28932 9.19519 2.28418L9.19714 2.2832C9.19833 2.28279 9.20017 2.28189 9.20203 2.28125C9.20574 2.27997 9.21136 2.2785 9.21765 2.27637C9.23043 2.27204 9.24854 2.26532 9.27136 2.25781C9.31744 2.24266 9.38387 2.22198 9.46765 2.19629C9.63593 2.14469 9.87719 2.07421 10.1727 1.99902C10.7624 1.84903 11.581 1.675 12.4872 1.58398ZM6.21375 14.8857C6.1161 14.7883 5.95779 14.7882 5.86023 14.8857L2.29382 18.4521C2.19626 18.5497 2.1964 18.708 2.29382 18.8057L3.27527 19.7871C3.3729 19.8847 3.53115 19.8847 3.62878 19.7871L7.19519 16.2207C7.29282 16.1231 7.29282 15.9648 7.19519 15.8672L6.21375 14.8857ZM7.25769 13.8086L7.2655 13.8164C7.26852 13.8194 7.27227 13.8222 7.27527 13.8252L8.27332 14.8232L13.7626 9.33301L12.7469 8.31836L7.25769 13.8086ZM20.9862 8.56348L19.4911 10.0596L20.1884 10.7568L21.6835 9.26074L20.9862 8.56348ZM16.8534 3.91895C15.8652 3.10013 14.3351 2.93148 12.8134 3.06152C13.3846 3.26511 13.9705 3.52581 14.371 3.86328C14.6103 4.06503 14.8856 4.37787 14.9442 4.81348C15.008 5.28858 14.7892 5.68726 14.5009 5.97559L13.5135 6.96289L15.1259 8.5752L16.3798 7.35547L16.4364 7.30469C16.7312 7.07064 17.1607 7.09154 17.4325 7.36328L18.7499 8.67969L19.5712 7.85645L19.4003 7.68555C19.3131 7.5984 19.2476 7.49097 19.2118 7.37305L18.7264 5.77344L17.0516 4.09863L16.8534 3.91895Z" fill="currentcolor"/>
</svg>
