<svg width="24" height="24" viewBox="0 0 24 24" fill="none" color="#FFFFFF" xmlns="http://www.w3.org/2000/svg">
    <path id="vector" fill-rule="evenodd" clip-rule="evenodd" d="M12 1.25C8.78914 1.25 6.13821 2.58674 4.31407 3.8897C3.70169 4.32711 3.17725 4.76436 2.75 5.15307V3C2.75 2.58579 2.41421 2.25 2 2.25C1.58579 2.25 1.25 2.58579 1.25 3V7C1.25 7.41421 1.58579 7.75 2 7.75H5.5C5.91421 7.75 6.25 7.41421 6.25 7C6.25 6.58579 5.91421 6.25 5.5 6.25H3.7733C4.15999 5.89905 4.63392 5.50459 5.18593 5.1103C6.86179 3.91326 9.21086 2.75 12 2.75C14.8296 2.75 17.1293 3.68991 18.7197 5.28033C20.3101 6.87075 21.25 9.17044 21.25 12C21.25 14.8296 20.3101 17.1293 18.7197 18.7197C17.1293 20.3101 14.8296 21.25 12 21.25C6.46344 21.25 2.75 16.6074 2.75 12C2.75 11.5858 2.41421 11.25 2 11.25C1.58579 11.25 1.25 11.5858 1.25 12C1.25 17.3338 5.53656 22.75 12 22.75C15.1704 22.75 17.8707 21.6899 19.7803 19.7803C21.6899 17.8707 22.75 15.1704 22.75 12C22.75 8.82956 21.6899 6.12925 19.7803 4.21967C17.8707 2.31009 15.1704 1.25 12 1.25ZM12.75 8C12.75 7.58579 12.4142 7.25 12 7.25C11.5858 7.25 11.25 7.58579 11.25 8V12C11.25 12.2508 11.3753 12.4849 11.584 12.624L14.584 14.624C14.9286 14.8538 15.3943 14.7607 15.624 14.416C15.8538 14.0714 15.7607 13.6057 15.416 13.376L12.75 11.5986V8Z" fill="currentcolor"/>
</svg>
