<svg width="24" height="24" viewBox="0 0 24 24" fill="none" color="#FFFFFF" xmlns="http://www.w3.org/2000/svg">
    <path id="vector" d="M7 6.25C7.41421 6.25 7.75 6.58579 7.75 7V17C7.75 17.4142 7.41421 17.75 7 17.75C6.58579 17.75 6.25 17.4142 6.25 17V7C6.25 6.58579 6.58579 6.25 7 6.25ZM12 6.25C13.4923 6.25 14.6386 6.24998 15.5039 6.29004C16.3471 6.3291 17.0292 6.40816 17.5381 6.62012C17.8098 6.73332 18.0545 6.89273 18.251 7.12012C18.4472 7.34723 18.5621 7.60345 18.6309 7.86133C18.756 8.33053 18.75 8.91718 18.75 9.5C18.75 10.0828 18.756 10.6695 18.6309 11.1387C18.5621 11.3965 18.4472 11.6528 18.251 11.8799C18.0545 12.1073 17.8098 12.2667 17.5381 12.3799C17.0292 12.5918 16.3471 12.6709 15.5039 12.71C14.7896 12.743 13.8838 12.747 12.75 12.748V17C12.75 17.4142 12.4142 17.75 12 17.75C11.5858 17.75 11.25 17.4142 11.25 17V7C11.25 6.58579 11.5858 6.25 12 6.25ZM12.75 11.248C13.8826 11.2471 14.7543 11.2433 15.4336 11.2119C16.2775 11.1728 16.721 11.0955 16.9619 10.9951C17.065 10.9521 17.1018 10.9161 17.1162 10.8994C17.1309 10.8824 17.1567 10.8456 17.1816 10.752C17.244 10.518 17.25 10.1671 17.25 9.5C17.25 8.83293 17.244 8.48197 17.1816 8.24805C17.1567 8.15442 17.1309 8.11758 17.1162 8.10059C17.1018 8.08386 17.065 8.04787 16.9619 8.00488C16.721 7.90449 16.2775 7.82715 15.4336 7.78809C14.7543 7.75665 13.8826 7.75197 12.75 7.75098V11.248Z" fill="currentcolor"/>
</svg>
