<svg width="24" height="24" viewBox="0 0 24 24" fill="none" color="#FFFFFF" xmlns="http://www.w3.org/2000/svg">
    <path id="vector" fill-rule="evenodd" clip-rule="evenodd" d="M9.4 2.25H9.367H9.36697C8.27484 2.25 7.40935 2.24999 6.71173 2.30699C5.99834 2.36527 5.39472 2.48688 4.84354 2.76772C3.94978 3.22312 3.22312 3.94978 2.76772 4.84355C2.48688 5.39472 2.36527 5.99835 2.30699 6.71173C2.24999 7.40936 2.24999 8.27486 2.25 9.367L2.25 9.4V16.25H1.44444C0.784771 16.25 0.25 16.7848 0.25 17.4444C0.25 19.8223 2.17766 21.75 4.55556 21.75H19.4444C21.8223 21.75 23.75 19.8223 23.75 17.4444C23.75 16.7848 23.2152 16.25 22.5556 16.25H21.75V9.4V9.36698C21.75 8.27485 21.75 7.40935 21.693 6.71173C21.6347 5.99835 21.5131 5.39472 21.2323 4.84355C20.7769 3.94978 20.0502 3.22312 19.1565 2.76772C18.6053 2.48688 18.0017 2.36527 17.2883 2.30699C16.5907 2.24999 15.7252 2.25 14.633 2.25H14.633H14.6H9.4ZM20.25 16.25V9.4C20.25 8.26752 20.2494 7.46327 20.198 6.83388C20.1473 6.21325 20.0509 5.829 19.8958 5.52453C19.5842 4.913 19.087 4.41582 18.4755 4.10423C18.171 3.94909 17.7867 3.85271 17.1661 3.80201C16.5367 3.75058 15.7325 3.75 14.6 3.75H9.4C8.26752 3.75 7.46326 3.75058 6.83388 3.80201C6.21325 3.85271 5.829 3.94909 5.52453 4.10423C4.913 4.41582 4.41582 4.913 4.10423 5.52453C3.94909 5.829 3.85271 6.21325 3.80201 6.83388C3.75058 7.46327 3.75 8.26752 3.75 9.4V16.25H20.25ZM3 17.75H1.76645C1.9187 19.1557 3.10934 20.25 4.55556 20.25H19.4444C20.8907 20.25 22.0813 19.1557 22.2336 17.75H21H3Z" fill="currentcolor"/>
</svg>
