<svg width="24" height="24" viewBox="0 0 24 24" fill="none" color="#FFFFFF" xmlns="http://www.w3.org/2000/svg">
    <path id="vector" fill-rule="evenodd" clip-rule="evenodd" d="M13.0535 2.76989C12.8837 2.5843 12.6322 2.49618 12.3836 2.53526C12.3842 2.53517 12.3845 2.53511 12.3845 2.53511C12.3845 2.53513 12.342 2.54393 12.245 2.61256C12.1391 2.68745 12.0007 2.8103 11.8166 3.00426C11.4442 3.39651 10.9762 3.98055 10.3117 4.81111L5.70522 10.5692C5.19658 11.205 4.84813 11.6418 4.6217 11.9843C4.38761 12.3384 4.37113 12.4686 4.37109 12.4992C4.37085 12.7276 4.4747 12.9437 4.65321 13.0861C4.67708 13.1052 4.78909 13.1737 5.21182 13.2121C5.62071 13.2492 6.17942 13.25 6.99366 13.25H7.60016H7.62908C8.02444 13.25 8.3655 13.25 8.64643 13.2729C8.94294 13.2971 9.23785 13.3506 9.52164 13.4952C9.945 13.7109 10.2892 14.0551 10.5049 14.4785C10.6495 14.7623 10.703 15.0572 10.7272 15.3537C10.7502 15.6346 10.7502 15.9757 10.7502 16.3711V16.4V18.1581C10.7502 19.2218 10.7508 19.9702 10.7965 20.5091C10.8191 20.7756 10.8505 20.958 10.8864 21.0826C10.918 21.1924 10.9448 21.2275 10.9468 21.2301C11.1166 21.4157 11.3682 21.5038 11.6167 21.4647C11.6091 21.4659 11.6502 21.4617 11.7553 21.3874C11.8612 21.3125 11.9996 21.1897 12.1837 20.9957C12.5561 20.6035 13.0241 20.0194 13.6886 19.1889L18.2951 13.4307C18.8037 12.7949 19.1522 12.3582 19.3786 12.0157C19.6127 11.6616 19.6292 11.5313 19.6292 11.5008C19.6295 11.2724 19.5256 11.0563 19.3471 10.9138C19.3232 10.8948 19.2112 10.8263 18.7885 10.7879C18.3796 10.7507 17.8209 10.75 17.0067 10.75H16.4002H16.3712C15.9759 10.75 15.6348 10.75 15.3539 10.7271C15.0574 10.7028 14.7625 10.6493 14.4787 10.5047C14.0553 10.289 13.7111 9.94483 13.4954 9.52146C13.3508 9.23768 13.2973 8.94276 13.2731 8.64626C13.2501 8.36533 13.2501 8.02426 13.2502 7.62891V7.59999V5.84186C13.2502 4.77822 13.2495 4.02976 13.2038 3.49087C13.1812 3.2244 13.1498 3.04198 13.1139 2.91735C13.0823 2.80739 13.0554 2.77234 13.0535 2.76989ZM12.1506 1.05348C12.8968 0.936108 13.6522 1.20107 14.1616 1.75892C14.5448 2.17849 14.6494 2.78637 14.6984 3.36412C14.7502 3.97421 14.7502 4.78683 14.7502 5.80372V5.84186V7.59999C14.7502 8.0324 14.7507 8.3116 14.7681 8.52411C14.7847 8.72786 14.813 8.80339 14.8319 8.84048C14.9038 8.9816 15.0185 9.09633 15.1597 9.16824C15.1967 9.18713 15.2723 9.21539 15.476 9.23204C15.6885 9.2494 15.9677 9.24998 16.4002 9.24998H17.0067H17.0446C17.8116 9.24997 18.4391 9.24996 18.9242 9.29402C19.4034 9.33754 19.8962 9.43289 20.2829 9.74151C20.8184 10.169 21.13 10.8172 21.1292 11.5024C21.1287 11.9971 20.8952 12.4416 20.6299 12.8429C20.3613 13.2492 19.9692 13.7392 19.49 14.3382L19.4664 14.3678L14.8599 20.1259L14.8361 20.1557C14.2008 20.9497 13.6932 21.5843 13.2717 22.0284C12.8725 22.4489 12.411 22.8582 11.8497 22.9465C11.1035 23.0639 10.3481 22.7989 9.83869 22.2411C9.45554 21.8215 9.35088 21.2136 9.30188 20.6359C9.25014 20.0258 9.25015 19.2131 9.25016 18.1962V18.1581V16.4C9.25016 15.9676 9.24957 15.6884 9.23221 15.4759C9.21556 15.2721 9.18731 15.1966 9.16841 15.1595C9.09651 15.0184 8.98177 14.9036 8.84065 14.8317C8.80357 14.8128 8.72803 14.7846 8.52428 14.7679C8.31178 14.7506 8.03257 14.75 7.60016 14.75H6.99366H6.95573C6.18868 14.75 5.56117 14.75 5.07613 14.7059C4.59695 14.6624 4.10407 14.5671 3.71743 14.2585C3.1819 13.831 2.87036 13.1828 2.8711 12.4976C2.87163 12.0028 3.10508 11.5584 3.37044 11.157C3.63904 10.7508 4.03106 10.2607 4.51026 9.66177L4.53392 9.63219L9.14042 3.87407L9.16422 3.84432C9.79947 3.05025 10.3071 2.41568 10.7286 1.97159C11.1278 1.55106 11.5893 1.14176 12.1506 1.05348Z" fill="currentcolor"/>
</svg>
