<svg width="24" height="24" viewBox="0 0 24 24" fill="none" color="#FFFFFF" xmlns="http://www.w3.org/2000/svg">
    <path id="vector" fill-rule="evenodd" clip-rule="evenodd" d="M5.68784 4.11564C6.5011 3.67204 6.91301 3.45187 7.25015 3.33278V18.5052C7.21634 18.5124 7.1826 18.52 7.14892 18.528C6.52863 18.6753 5.95476 18.9884 5.06395 19.4746L4.96956 19.5261L4.24379 19.9219C3.80221 20.1628 3.51623 20.3179 3.29716 20.4126C3.12964 20.485 3.06357 20.4929 3.05262 20.4938C2.95902 20.481 2.87457 20.4309 2.81849 20.3548C2.81406 20.3448 2.78935 20.283 2.77269 20.1013C2.7509 19.8636 2.75015 19.5383 2.75015 19.0353V6.6975C2.75015 6.12711 2.75929 6.0142 2.78856 5.92629C2.82254 5.82424 2.87807 5.7307 2.95139 5.652C3.01455 5.5842 3.10929 5.52211 3.61004 5.24898L5.68784 4.11564ZM8.82406 18.435C8.79944 18.4319 8.7748 18.4291 8.75015 18.4265V3.2125C9.12764 3.2772 9.55443 3.44623 10.5326 3.84641L12.8997 4.81476L12.9992 4.85549C13.9384 5.23992 14.5435 5.48757 15.1762 5.56517C15.2009 5.56819 15.2255 5.57101 15.2501 5.57364V20.7876C14.8727 20.7229 14.4459 20.5539 13.4677 20.1537L11.1006 19.1854L11.0011 19.1446C10.0619 18.7602 9.45684 18.5125 8.82406 18.435ZM16.7501 20.6673C17.0873 20.5483 17.4992 20.3281 18.3125 19.8845L20.3903 18.7511C20.891 18.478 20.9858 18.4159 21.0489 18.3481C21.1222 18.2694 21.1778 18.1759 21.2117 18.0738C21.241 17.9859 21.2502 17.873 21.2502 17.3026V4.96485C21.2502 4.46186 21.2494 4.13651 21.2276 3.89886C21.2109 3.71714 21.1862 3.65536 21.1818 3.64529C21.1257 3.56926 21.0413 3.51913 20.9477 3.5063C20.9367 3.50723 20.8707 3.51512 20.7031 3.58751C20.4841 3.68218 20.1981 3.83732 19.7565 4.07818L19.0307 4.47405L18.9364 4.52555C18.0455 5.01168 17.4717 5.32484 16.8514 5.47208C16.8177 5.48007 16.784 5.48769 16.7501 5.49494V20.6673ZM7.14892 1.80077C7.69735 1.67059 8.26458 1.63907 8.82406 1.70768C9.45684 1.78528 10.0619 2.03293 11.0011 2.41736L11.1006 2.45808L13.4677 3.42644C14.5405 3.86534 14.9501 4.0262 15.3588 4.07632C15.7416 4.12326 16.1297 4.10169 16.505 4.01263C16.9056 3.91753 17.2948 3.71228 18.3125 3.15721L19.0382 2.76134L19.0684 2.74486L19.0684 2.74486C19.4713 2.52511 19.8181 2.33589 20.1081 2.21059C20.4028 2.08324 20.7482 1.97069 21.1247 2.01674C21.639 2.07963 22.1033 2.35525 22.4047 2.77657C22.6254 3.08508 22.692 3.4422 22.7213 3.76189C22.7502 4.07645 22.7502 4.47161 22.7502 4.93048V4.96485V17.3026L22.7502 17.3922C22.7508 17.821 22.7513 18.1983 22.6349 18.5477C22.533 18.8539 22.3664 19.1345 22.1464 19.3706C21.8954 19.64 21.564 19.8203 21.1872 20.0252L21.1085 20.068L19.0307 21.2013L18.9363 21.2528C18.0455 21.739 17.4717 22.0521 16.8514 22.1993C16.3029 22.3295 15.7357 22.361 15.1762 22.2924C14.5435 22.2148 13.9384 21.9672 12.9992 21.5828L12.8997 21.542L10.5326 20.5737C9.45976 20.1348 9.0502 19.9739 8.64148 19.9238C8.25868 19.8769 7.87058 19.8984 7.49534 19.9875C7.09469 20.0826 6.70547 20.2878 5.68784 20.8429L4.96207 21.2388L4.93189 21.2552L4.93185 21.2553L4.93177 21.2553C4.52898 21.475 4.18213 21.6642 3.8922 21.7895C3.59751 21.9169 3.2521 22.0294 2.87557 21.9834C2.36134 21.9205 1.89705 21.6449 1.5956 21.2235C1.37487 20.915 1.30827 20.5579 1.27896 20.2382C1.25012 19.9237 1.25013 19.5285 1.25015 19.0696L1.25015 19.0353V6.6975L1.25007 6.60792C1.24953 6.17907 1.24904 5.8018 1.36539 5.4524C1.46733 5.14625 1.63392 4.86562 1.85387 4.62952C2.1049 4.36008 2.43634 4.17984 2.81308 3.97497L2.81308 3.97497L2.89177 3.93213L4.96956 2.79879L5.06395 2.74729C5.95477 2.26116 6.52863 1.948 7.14892 1.80077Z" fill="currentcolor"/>
</svg>
