<svg width="24" height="24" viewBox="0 0 24 24" fill="none" color="#FFFFFF" xmlns="http://www.w3.org/2000/svg">
    <path id="vector" fill-rule="evenodd" clip-rule="evenodd" d="M11.9229 0.525574C12.5276 0.153588 13.2974 0.183505 13.8711 0.601746L20.8418 5.68671C21.2932 6.01616 21.5605 6.54188 21.5605 7.10077V22.1906H22.7334C23.1475 22.1906 23.4832 22.5265 23.4834 22.9406C23.4834 23.3548 23.1476 23.6906 22.7334 23.6906H1.2334C0.819185 23.6906 0.483398 23.3548 0.483398 22.9406C0.483564 22.5265 0.819287 22.1906 1.2334 22.1906H2.43945V11.7473C2.43956 11.0841 2.8148 10.478 3.4082 10.1818L6.05566 8.86053V5.11249C6.05577 4.50485 6.37114 3.94068 6.88867 3.62225L11.9229 0.525574ZM12.9873 1.81366C12.9054 1.75401 12.7953 1.74981 12.709 1.80292L7.6748 4.8996C7.60098 4.94505 7.55577 5.0258 7.55566 5.11249V8.11151L10.2021 6.7912C11.3655 6.21076 12.7331 7.05659 12.7334 8.35663V12.6144H14.9365C15.903 12.6144 16.6865 13.3979 16.6865 14.3644V22.1906H20.0605V7.10077C20.0605 7.02109 20.0223 6.9457 19.958 6.89862L12.9873 1.81366ZM9.03027 14.1144C8.8922 14.1144 8.78027 14.2264 8.78027 14.3644V22.1906H15.1865V14.3644C15.1865 14.2264 15.0746 14.1144 14.9365 14.1144H9.03027ZM11.2334 8.35663C11.2331 8.17125 11.0381 8.05049 10.8721 8.133L4.07812 11.5236C3.99346 11.5659 3.93956 11.6526 3.93945 11.7473V22.1906H7.28027V14.3644C7.28027 13.3979 8.06377 12.6144 9.03027 12.6144H11.2334V8.35663Z" fill="currentcolor"/>
</svg>
