<svg width="24" height="24" viewBox="0 0 24 24" fill="none" color="#FFFFFF" xmlns="http://www.w3.org/2000/svg">
    <path id="vector" fill-rule="evenodd" clip-rule="evenodd" d="M12 2.75C9.65279 2.75 7.75 4.65279 7.75 7C7.75 9.34721 9.65279 11.25 12 11.25C14.3472 11.25 16.25 9.34721 16.25 7C16.25 4.65279 14.3472 2.75 12 2.75ZM12.75 12.7015C15.5713 12.334 17.75 9.92145 17.75 7C17.75 3.82436 15.1756 1.25 12 1.25C8.82436 1.25 6.25 3.82436 6.25 7C6.25 9.92145 8.42873 12.334 11.25 12.7015V18C11.25 18.4142 11.5858 18.75 12 18.75C12.4142 18.75 12.75 18.4142 12.75 18V12.7015ZM7.73404 13.8461C7.81904 14.2515 7.55931 14.649 7.15391 14.734C5.57311 15.0655 4.443 15.5624 3.72556 16.1201C3.01891 16.6695 2.75 17.2416 2.75 17.7807C2.75 18.1054 2.90279 18.4803 3.31553 18.8921C3.73117 19.3067 4.37051 19.7146 5.22049 20.0732C6.91744 20.7892 9.31389 21.25 12 21.25C14.6861 21.25 17.0826 20.7892 18.7795 20.0732C19.6295 19.7146 20.2688 19.3067 20.6845 18.8921C21.0972 18.4803 21.25 18.1054 21.25 17.7807C21.25 17.2416 20.9811 16.6695 20.2744 16.1201C19.557 15.5624 18.4269 15.0655 16.8461 14.734C16.4407 14.649 16.181 14.2515 16.266 13.8461C16.351 13.4407 16.7485 13.181 17.1539 13.266C18.8658 13.6249 20.2357 14.1901 21.1951 14.9359C22.1653 15.6901 22.75 16.6632 22.75 17.7807C22.75 18.6211 22.3431 19.3562 21.7438 19.954C21.1474 20.549 20.3223 21.0503 19.3626 21.4552C17.4403 22.2663 14.8367 22.75 12 22.75C9.16326 22.75 6.55971 22.2663 4.63737 21.4552C3.67771 21.0503 2.85259 20.549 2.25617 19.954C1.65685 19.3562 1.25 18.6211 1.25 17.7807C1.25 16.6632 1.83474 15.6901 2.80491 14.9359C3.7643 14.1901 5.13419 13.6249 6.84609 13.266C7.25148 13.181 7.64903 13.4407 7.73404 13.8461Z" fill="currentcolor"/>
</svg>
