<svg width="24" height="24" viewBox="0 0 24 24" fill="none" color="#FFFFFF" xmlns="http://www.w3.org/2000/svg">
    <path id="vector" fill-rule="evenodd" clip-rule="evenodd" d="M5.75 8.80006C5.75 5.25042 8.4882 2.75 12 2.75C15.5118 2.75 18.25 5.25042 18.25 8.80006C18.25 11.7034 16.9978 13.8182 15.5601 15.2183C14.8382 15.9212 14.0739 16.4389 13.4093 16.7777C12.7191 17.1296 12.2133 17.25 12 17.25C11.7867 17.25 11.2809 17.1296 10.5907 16.7777C9.9261 16.4389 9.16178 15.9212 8.43991 15.2183C7.00217 13.8182 5.75 11.7034 5.75 8.80006ZM12 1.25C7.73402 1.25 4.25 4.34964 4.25 8.80006C4.25 12.1782 5.72005 14.6634 7.39342 16.2929C8.22711 17.1048 9.11557 17.7093 9.90935 18.114C10.6774 18.5056 11.4356 18.75 12 18.75C12.5644 18.75 13.3226 18.5056 14.0907 18.114C14.8844 17.7093 15.7729 17.1048 16.6066 16.2929C18.2799 14.6634 19.75 12.1782 19.75 8.80006C19.75 4.34964 16.266 1.25 12 1.25ZM12 6.75C11.3096 6.75 10.75 7.30964 10.75 8C10.75 8.69036 11.3096 9.25 12 9.25C12.6904 9.25 13.25 8.69036 13.25 8C13.25 7.30964 12.6904 6.75 12 6.75ZM9.25 8C9.25 6.48122 10.4812 5.25 12 5.25C13.5188 5.25 14.75 6.48122 14.75 8C14.75 9.51878 13.5188 10.75 12 10.75C10.4812 10.75 9.25 9.51878 9.25 8ZM4.92345 16.734C5.07038 17.1212 4.87555 17.5543 4.48827 17.7012C3.83542 17.9489 3.36741 18.2115 3.07621 18.4595C2.7811 18.7108 2.75 18.8715 2.75 18.9299C2.75 18.9981 2.79718 19.2064 3.22642 19.5179C3.63898 19.8174 4.28423 20.1183 5.14905 20.3838C6.86949 20.912 9.29184 21.25 12 21.25C14.7082 21.25 17.1305 20.912 18.8509 20.3838C19.7158 20.1183 20.361 19.8174 20.7736 19.5179C21.2028 19.2064 21.25 18.9981 21.25 18.9299C21.25 18.8715 21.2189 18.7108 20.9238 18.4595C20.6326 18.2115 20.1646 17.9489 19.5117 17.7012C19.1245 17.5543 18.9296 17.1212 19.0766 16.734C19.2235 16.3467 19.6565 16.1518 20.0438 16.2988C20.7808 16.5784 21.4239 16.9151 21.8963 17.3175C22.3649 17.7165 22.75 18.257 22.75 18.9299C22.75 19.7094 22.2375 20.3088 21.6547 20.7319C21.0552 21.167 20.236 21.5277 19.2912 21.8177C17.3923 22.4007 14.8147 22.75 12 22.75C9.18532 22.75 6.60766 22.4007 4.70881 21.8177C3.76399 21.5277 2.94478 21.167 2.34528 20.7319C1.76246 20.3088 1.25 19.7094 1.25 18.9299C1.25 18.257 1.63512 17.7165 2.10368 17.3175C2.57615 16.9151 3.21925 16.5784 3.95617 16.2988C4.34345 16.1518 4.77651 16.3467 4.92345 16.734Z" fill="currentcolor"/>
</svg>
