<svg width="24" height="24" viewBox="0 0 24 24" fill="none" color="#FFFFFF" xmlns="http://www.w3.org/2000/svg">
    <path id="vector" fill-rule="evenodd" clip-rule="evenodd" d="M8.00002 1.25C8.41423 1.25 8.75002 1.58579 8.75002 2V6.25H15.25V2C15.25 1.58579 15.5858 1.25 16 1.25C16.4142 1.25 16.75 1.58579 16.75 2V6.25209C17.235 6.25744 17.5994 6.27618 17.9267 6.34127C19.811 6.71608 21.2839 8.18904 21.6587 10.0733C21.7502 10.5332 21.7502 11.0666 21.75 11.9047L21.75 12V13V13.0554C21.75 13.9317 21.75 14.4296 21.7079 14.8576C21.2987 19.0119 18.012 22.2987 13.8577 22.7079C13.4296 22.75 12.9317 22.75 12.0556 22.75H12.0555H12.0555H12H11.9446H11.9445H11.9445C11.0683 22.75 10.5704 22.75 10.1424 22.7079C5.98807 22.2987 2.70131 19.0119 2.29215 14.8576C2.24999 14.4296 2.25 13.9317 2.25002 13.0555L2.25002 13.0554L2.25002 13V12L2.25001 11.9047C2.24988 11.0667 2.24981 10.5332 2.34129 10.0733C2.71609 8.18904 4.18906 6.71608 6.07334 6.34127C6.40059 6.27618 6.76506 6.25744 7.25002 6.25209V2C7.25002 1.58579 7.5858 1.25 8.00002 1.25ZM16 7.75H8.00002C7.03476 7.75 6.66166 7.75363 6.36597 7.81245C5.07673 8.06889 4.06891 9.07671 3.81247 10.366C3.75365 10.6616 3.75002 11.0347 3.75002 12V13C3.75002 13.9465 3.75093 14.3654 3.78493 14.7106C4.12395 18.1528 6.84726 20.8761 10.2894 21.2151C10.6346 21.2491 11.0535 21.25 12 21.25C12.9465 21.25 13.3654 21.2491 13.7106 21.2151C17.1528 20.8761 19.8761 18.1528 20.2151 14.7106C20.2491 14.3654 20.25 13.9465 20.25 13V12C20.25 11.0347 20.2464 10.6616 20.1876 10.366C19.9311 9.07671 18.9233 8.06889 17.6341 7.81245C17.3384 7.75363 16.9653 7.75 16 7.75Z" fill="currentcolor"/>
</svg>
