<svg width="24" height="24" viewBox="0 0 24 24" fill="none" color="#FFFFFF" xmlns="http://www.w3.org/2000/svg">
    <path id="vector" fill-rule="evenodd" clip-rule="evenodd" d="M12.6623 2.93807C12.2308 2.80515 11.7693 2.80515 11.3377 2.93807C11.1354 3.00039 10.9119 3.12236 10.5787 3.38537C10.2382 3.65407 9.83203 4.0294 9.24844 4.56977L8.56139 5.20593C7.77771 5.93156 7.48392 6.21083 7.27566 6.53101C7.08056 6.83095 6.93634 7.16105 6.8488 7.50798C6.75536 7.87833 6.75004 8.28364 6.75004 9.35167L6.75004 10.9992L6.75004 10.9996L6.75004 15.9999L6.75004 16.0332C6.75006 16.9578 6.75088 17.6173 6.78636 18.1374C6.82182 18.6571 6.88936 18.9827 6.99743 19.2436C7.32729 20.0399 7.95998 20.6726 8.75632 21.0025C9.01725 21.1105 9.34283 21.1781 9.86247 21.2135C10.237 21.2391 10.6839 21.2467 11.2499 21.2489L11.2499 18.9996C11.2499 18.5854 11.5857 18.2496 11.9999 18.2496C12.4141 18.2496 12.7499 18.5854 12.7499 18.9996L12.7499 21.2489C13.3161 21.2467 13.763 21.2391 14.1376 21.2135C14.6573 21.1781 14.9828 21.1105 15.2438 21.0025C16.0401 20.6726 16.6728 20.0399 17.0027 19.2436C17.1107 18.9827 17.1783 18.6571 17.2137 18.1374C17.2496 17.611 17.25 16.942 17.25 15.9999L17.25 10.9996L17.25 9.35167C17.25 8.28364 17.2447 7.87833 17.1513 7.50798C17.0638 7.16105 16.9195 6.83095 16.7244 6.53101C16.5162 6.21083 16.2224 5.93156 15.4387 5.20593L14.7516 4.56977C14.1681 4.0294 13.7619 3.65407 13.4214 3.38537C13.0882 3.12236 12.8647 3.00039 12.6623 2.93807ZM18.75 10.6246L18.75 9.35167L18.7501 9.25296C18.7502 8.31721 18.7503 7.71424 18.6057 7.14102C18.4778 6.63396 18.267 6.15151 17.9818 5.71313C17.6595 5.21756 17.217 4.80797 16.5302 4.17234L16.4578 4.10528L15.7708 3.46913L15.7482 3.44828L15.7482 3.44824L15.7482 3.44822C15.1924 2.93364 14.7431 2.5176 14.3507 2.20788C13.9457 1.88827 13.555 1.64346 13.1039 1.50452C12.3847 1.283 11.6154 1.283 10.8962 1.50452C10.4451 1.64346 10.0544 1.88827 9.64941 2.20788C9.25694 2.51761 8.80761 2.93367 8.25186 3.44827L8.22933 3.46913L7.54228 4.10529L7.46984 4.17234C6.7831 4.80798 6.34059 5.21756 6.01825 5.71313C5.73311 6.15151 5.52232 6.63396 5.39438 7.14102C5.24975 7.71424 5.24986 8.31721 5.25003 9.25296L5.25004 9.35167L5.25004 10.6246L3.47004 11.9596L3.38735 12.0216C2.76298 12.4895 2.3311 12.8132 2.0127 13.2328C1.73163 13.6032 1.5219 14.0227 1.39421 14.4698C1.24957 14.9763 1.24975 15.516 1.25002 16.2963L1.25004 16.3996L1.25004 19.9996C1.25004 20.2306 1.35645 20.4486 1.53848 20.5908C1.72052 20.7329 1.95789 20.7832 2.18195 20.7272L5.63148 19.8648C6.11884 21.0065 7.0342 21.9127 8.1823 22.3883C8.65646 22.5847 9.16435 22.6694 9.76037 22.7101C10.3438 22.7499 11.0639 22.7499 11.9724 22.7499L11.9725 22.7499L11.9726 22.7499L11.9726 22.7499L11.9727 22.7499L12 22.7499L12.0274 22.7499L12.0276 22.7499L12.0276 22.7499L12.0276 22.7499L12.0277 22.7499C12.9362 22.7499 13.6563 22.7499 14.2397 22.7101C14.8357 22.6694 15.3436 22.5847 15.8178 22.3883C16.9659 21.9127 17.8812 21.0065 18.3686 19.8648L21.8181 20.7272C22.0422 20.7832 22.2796 20.7329 22.4616 20.5908C22.6436 20.4486 22.75 20.2306 22.75 19.9996L22.75 16.3996L22.7501 16.2963C22.7503 15.516 22.7505 14.9763 22.6059 14.4698C22.4782 14.0227 22.2685 13.6032 21.9874 13.2328C21.669 12.8132 21.2371 12.4895 20.6127 12.0216L20.53 11.9596L18.75 10.6246ZM18.75 12.4996L18.75 15.9999L18.75 16.0272L18.75 16.0273L18.75 16.0274L18.75 18.414L21.25 19.039L21.25 16.3996C21.25 15.4761 21.2433 15.1609 21.1635 14.8817C21.0869 14.6135 20.9611 14.3618 20.7924 14.1395C20.617 13.9083 20.3688 13.7137 19.63 13.1596L18.75 12.4996ZM4.37004 13.1596L5.25004 12.4996L5.25004 15.9999L5.25004 16.0272L5.25004 16.0823L5.25004 18.414L2.75004 19.039L2.75004 16.3996C2.75004 15.4761 2.75682 15.1609 2.83655 14.8817C2.91316 14.6135 3.039 14.3618 3.20764 14.1395C3.38313 13.9083 3.63127 13.7137 4.37004 13.1596ZM10.75 11.0001C10.75 10.3097 11.3097 9.7501 12 9.7501C12.6904 9.7501 13.25 10.3097 13.25 11.0001C13.25 11.6905 12.6904 12.2501 12 12.2501C11.3097 12.2501 10.75 11.6905 10.75 11.0001ZM12 8.2501C10.4813 8.2501 9.25004 9.48132 9.25004 11.0001C9.25004 12.5189 10.4813 13.7501 12 13.7501C13.5188 13.7501 14.75 12.5189 14.75 11.0001C14.75 9.48132 13.5188 8.2501 12 8.2501Z" fill="currentcolor"/>
</svg>
