<svg width="24" height="24" viewBox="0 0 24 24" fill="none" color="#FFFFFF" xmlns="http://www.w3.org/2000/svg">
    <path id="vector" fill-rule="evenodd" clip-rule="evenodd" d="M1.25 12C1.25 6.06454 6.02863 1.25 12 1.25C15.5536 1.25 18.2167 2.71897 19.9773 4.17147C20.4706 4.57844 20.8947 4.98535 21.25 5.36063V4C21.25 3.58579 21.5858 3.25 22 3.25C22.4142 3.25 22.75 3.58579 22.75 4V7.5C22.75 7.91421 22.4142 8.25 22 8.25H18.5C18.0858 8.25 17.75 7.91421 17.75 7.5C17.75 7.08579 18.0858 6.75 18.5 6.75H20.4869C20.1154 6.32579 19.627 5.8271 19.0227 5.32853C17.45 4.03103 15.1131 2.75 12 2.75C6.86026 2.75 2.75 6.88977 2.75 12C2.75 17.1086 6.89137 21.25 12 21.25C17.1086 21.25 21.25 17.1086 21.25 12C21.25 11.5858 21.5858 11.25 22 11.25C22.4142 11.25 22.75 11.5858 22.75 12C22.75 17.9371 17.9371 22.75 12 22.75C6.06294 22.75 1.25 17.9371 1.25 12Z" fill="currentcolor"/>
</svg>
