<svg width="24" height="24" viewBox="0 0 24 24" fill="none" color="#FFFFFF" xmlns="http://www.w3.org/2000/svg">
    <path id="vector" fill-rule="evenodd" clip-rule="evenodd" d="M18 2.75C16.7574 2.75 15.75 3.75736 15.75 5C15.75 6.24264 16.7574 7.25 18 7.25C19.2426 7.25 20.25 6.24264 20.25 5C20.25 3.75736 19.2426 2.75 18 2.75ZM14.25 5C14.25 2.92893 15.9289 1.25 18 1.25C20.0711 1.25 21.75 2.92893 21.75 5C21.75 7.07107 20.0711 8.75 18 8.75C15.9289 8.75 14.25 7.07107 14.25 5ZM5 16.75C3.75736 16.75 2.75 17.7574 2.75 19C2.75 20.2426 3.75736 21.25 5 21.25C6.24264 21.25 7.25 20.2426 7.25 19C7.25 17.7574 6.24264 16.75 5 16.75ZM8.67499 18.25C8.32753 16.5383 6.81422 15.25 5 15.25C2.92893 15.25 1.25 16.9289 1.25 19C1.25 21.0711 2.92893 22.75 5 22.75C6.81422 22.75 8.32753 21.4617 8.67499 19.75H16.5C18.8472 19.75 20.75 17.8472 20.75 15.5C20.75 13.1528 18.8472 11.25 16.5 11.25H6.5C4.98122 11.25 3.75 10.0188 3.75 8.5C3.75 6.98122 4.98122 5.75 6.5 5.75H10.1893L8.96967 6.96967C8.67678 7.26256 8.67678 7.73744 8.96967 8.03033C9.26256 8.32322 9.73744 8.32322 10.0303 8.03033L12.5303 5.53033C12.8232 5.23744 12.8232 4.76256 12.5303 4.46967L10.0303 1.96967C9.73744 1.67678 9.26256 1.67678 8.96967 1.96967C8.67678 2.26256 8.67678 2.73744 8.96967 3.03033L10.1893 4.25H6.5C4.15279 4.25 2.25 6.15279 2.25 8.5C2.25 10.8472 4.15279 12.75 6.5 12.75H16.5C18.0188 12.75 19.25 13.9812 19.25 15.5C19.25 17.0188 18.0188 18.25 16.5 18.25H8.67499Z" fill="currentcolor"/>
</svg>
