<svg width="24" height="24" viewBox="0 0 24 24" fill="none" color="#FFFFFF" xmlns="http://www.w3.org/2000/svg">
    <path id="vector" fill-rule="evenodd" clip-rule="evenodd" d="M2.55859 14.1231C2.97281 14.1231 3.30859 14.4589 3.30859 14.8731V19.4405C3.30863 20.1308 3.86832 20.6904 4.55859 20.6905H9.12598C9.54006 20.6905 9.87577 21.0265 9.87598 21.4405C9.87594 21.8547 9.54017 22.1905 9.12598 22.1905H4.55859C3.03989 22.1904 1.80863 20.9592 1.80859 19.4405V14.8731C1.80859 14.4589 2.14444 14.1232 2.55859 14.1231ZM21.4404 14.1231C21.8546 14.1231 22.1904 14.4589 22.1904 14.8731V19.4405C22.1904 20.9593 20.9592 22.1905 19.4404 22.1905H14.873C14.4588 22.1905 14.123 21.8547 14.123 21.4405C14.1233 21.0265 14.459 20.6905 14.873 20.6905H19.4404C20.1308 20.6905 20.6904 20.1308 20.6904 19.4405V14.8731C20.6904 14.459 21.0264 14.1233 21.4404 14.1231ZM12 5.25006C13.8614 5.25015 15.6239 6.53023 15.624 8.38385V9.34186C16.5394 9.39846 17.2646 10.1573 17.2646 11.087V16.4756C17.2646 17.4421 16.4811 18.2255 15.5146 18.2256H8.48438C7.51788 18.2256 6.73438 17.4421 6.73438 16.4756V11.087C6.73438 10.1565 7.46044 9.39731 8.37695 9.34186V8.38385C8.37712 6.53028 10.1387 5.25022 12 5.25006ZM8.48438 10.837C8.3463 10.837 8.23438 10.9489 8.23438 11.087V16.4756C8.23438 16.6137 8.3463 16.7256 8.48438 16.7256H15.5146C15.6526 16.7255 15.7646 16.6137 15.7646 16.4756V11.087C15.7646 10.949 15.6526 10.8371 15.5146 10.837H8.48438ZM12 11.7999C12.6439 11.8 13.161 12.3162 13.1611 12.96C13.1611 13.3171 13.0013 13.6342 12.75 13.8467V15.0128C12.75 15.4269 12.4141 15.7626 12 15.7628C11.5858 15.7628 11.25 15.427 11.25 15.0128V13.8467C10.9989 13.6342 10.8398 13.317 10.8398 12.96C10.84 12.3162 11.3562 11.8 12 11.7999ZM9.12598 1.80865C9.54019 1.80865 9.87598 2.14444 9.87598 2.55865C9.87594 2.97283 9.54017 3.30865 9.12598 3.30865H4.55859C3.8683 3.30872 3.30859 3.86834 3.30859 4.55865V9.12604C3.30855 9.54022 2.97278 9.87604 2.55859 9.87604C2.14446 9.87597 1.80863 9.54017 1.80859 9.12604V4.55865C1.80859 3.03991 3.03987 1.80872 4.55859 1.80865H9.12598ZM19.4404 1.80865C20.9592 1.80865 22.1904 3.03987 22.1904 4.55865V9.12604C22.1904 9.54025 21.8546 9.87604 21.4404 9.87604C21.0264 9.87583 20.6904 9.54012 20.6904 9.12604V4.55865C20.6904 3.8683 20.1308 3.30865 19.4404 3.30865H14.873C14.4588 3.30865 14.123 2.97287 14.123 2.55865C14.123 2.14444 14.4588 1.80865 14.873 1.80865H19.4404ZM12 6.75006C10.6929 6.75021 9.87714 7.60854 9.87695 8.38385V9.33698H14.124V8.38385C14.1238 7.60851 13.3071 6.75015 12 6.75006Z" fill="currentcolor"/>
</svg>
