<svg width="24" height="24" viewBox="0 0 24 24" fill="none" color="#FFFFFF" xmlns="http://www.w3.org/2000/svg">
    <path id="vector" d="M2.55859 14.3545C2.97281 14.3545 3.30859 14.6903 3.30859 15.1045V15.6719C3.30859 18.5713 5.65921 20.9217 8.55859 20.9219H9.12598C9.54006 20.9219 9.87577 21.2578 9.87598 21.6719C9.87598 22.0861 9.54019 22.4219 9.12598 22.4219H8.55859C4.83078 22.4217 1.80859 19.3997 1.80859 15.6719V15.1045C1.80859 14.6904 2.14449 14.3546 2.55859 14.3545ZM21.4404 14.3545C21.8546 14.3545 22.1904 14.6903 22.1904 15.1045V15.6719C22.1904 19.3998 19.1684 22.4219 15.4404 22.4219H14.873C14.459 22.4217 14.123 22.086 14.123 21.6719C14.1233 21.258 14.4591 20.9221 14.873 20.9219H15.4404C18.3399 20.9219 20.6904 18.5714 20.6904 15.6719V15.1045C20.6904 14.6905 21.0266 14.3549 21.4404 14.3545ZM12 5.32422C13.9984 5.32442 15.6238 6.94886 15.624 8.94727V10.8994C16.6144 11.5744 17.2646 12.7111 17.2646 14V15.3887C17.2646 17.4597 15.5857 19.1387 13.5146 19.1387H10.4844C8.41342 19.1385 6.73438 17.4597 6.73438 15.3887V14C6.73438 12.7103 7.38552 11.5723 8.37695 10.8975V8.94727C8.37714 6.94886 10.0016 5.32441 12 5.32422ZM10.4844 11.75C9.24185 11.7501 8.23438 12.7574 8.23438 14V15.3887C8.23438 16.6312 9.24185 17.6385 10.4844 17.6387H13.5146C14.7573 17.6387 15.7646 16.6313 15.7646 15.3887V14C15.7646 12.7574 14.7573 11.75 13.5146 11.75H10.4844ZM12 12.7129C12.6438 12.7131 13.161 13.2292 13.1611 13.873C13.1611 14.23 13.0013 14.5472 12.75 14.7598V15.9258C12.75 16.34 12.4142 16.6758 12 16.6758C11.5858 16.6758 11.25 16.34 11.25 15.9258V14.7598C10.9989 14.5472 10.8398 14.2301 10.8398 13.873C10.84 13.2292 11.3562 12.7131 12 12.7129ZM12 6.82422C10.83 6.82441 9.87714 7.77728 9.87695 8.94727V10.25H14.124V8.94727C14.1238 7.77729 13.17 6.82442 12 6.82422ZM9.12598 2.04004C9.54019 2.04004 9.87598 2.37583 9.87598 2.79004C9.87598 3.20425 9.54019 3.54004 9.12598 3.54004H8.55859C5.65921 3.54017 3.30859 5.89063 3.30859 8.79004V9.35742C3.30859 9.77164 2.97281 10.1074 2.55859 10.1074C2.14449 10.1073 1.80859 9.77155 1.80859 9.35742V8.79004C1.80859 5.0622 4.83078 2.04017 8.55859 2.04004H9.12598ZM15.4404 2.04004C19.1684 2.04004 22.1904 5.06212 22.1904 8.79004V9.35742C22.1904 9.77164 21.8546 10.1074 21.4404 10.1074C21.0266 10.107 20.6904 9.77139 20.6904 9.35742V8.79004C20.6904 5.89054 18.3399 3.54004 15.4404 3.54004H14.873C14.459 3.53984 14.123 3.20413 14.123 2.79004C14.123 2.37595 14.459 2.04024 14.873 2.04004H15.4404Z" fill="currentcolor"/>
</svg>
