<svg width="24" height="24" viewBox="0 0 24 24" fill="none" color="#FFFFFF" xmlns="http://www.w3.org/2000/svg">
    <path id="vector" fill-rule="evenodd" clip-rule="evenodd" d="M11.5156 0.125031C11.801 -0.0207136 12.1298 -0.0390586 12.4258 0.070343L12.5508 0.125031L12.5537 0.126984C14.7224 1.24767 16.9104 1.57976 18.5723 1.62698C20.2044 1.67329 21.3026 1.44422 21.3252 1.43948V1.44046C21.6413 1.36551 21.9776 1.42746 22.2451 1.61526L22.2461 1.61624C22.5505 1.83085 22.7129 2.17402 22.7129 2.52054V14.7608C22.7129 14.9458 22.6644 15.125 22.5879 15.2744L22.5557 15.3369L22.5518 15.3457L22.5459 15.3555C20.4533 19.1689 16.8479 22.1987 12.4072 23.9229L12.3936 23.9287C12.2856 23.9682 12.1491 24 11.9971 24C11.8454 24 11.7096 23.9682 11.6016 23.9287L11.5879 23.9239C7.15589 22.2085 3.55775 19.1807 1.47363 15.378L1.47266 15.3789L1.43555 15.3164L1.42383 15.2959L1.41211 15.2744C1.33817 15.1302 1.28614 14.9564 1.28613 14.7608V2.52054C1.28613 2.17398 1.44947 1.83084 1.75391 1.61624L1.7627 1.61038L1.77051 1.6055C2.04254 1.42444 2.38776 1.35788 2.71973 1.44925C2.71139 1.44698 2.70372 1.44474 2.69824 1.44339C2.70335 1.44447 2.71373 1.44634 2.72852 1.44925C2.75936 1.45531 2.80811 1.4649 2.87207 1.47562C3.00089 1.49718 3.1931 1.52576 3.4375 1.55276C3.92723 1.60686 4.62723 1.65444 5.46387 1.63089C7.14183 1.58359 9.34484 1.2499 11.5127 0.126984L11.5156 0.125031ZM12.0332 1.54202C9.66331 2.72944 7.29279 3.08052 5.50586 3.13089C4.5897 3.15667 3.81966 3.10345 3.27246 3.043C3.08371 3.02214 2.92075 2.99863 2.78711 2.97855V14.6563C4.66228 18.0786 7.91884 20.8599 11.9971 22.4707C16.0716 20.8565 19.3264 18.0841 21.2129 14.666V2.97855C19.9336 3.1688 15.9965 3.52402 12.0332 1.54202ZM14.6387 6.05276C14.5111 6.56105 14.5602 7.03869 14.8672 7.72171C15.1105 8.26313 15.4968 8.89308 16.0479 9.72073L16.6553 10.6192L16.6748 10.6475L16.6914 10.6768C17.6676 12.4271 17.5538 14.1959 16.751 15.5967C15.9623 16.9727 14.5314 17.959 12.9189 18.2598C10.2947 18.7492 8.19395 17.2493 7.22656 15.2569C6.26293 13.2719 6.35293 10.6611 8.19824 8.81546L9.90527 7.10843L9.4668 9.48148C9.29068 10.4341 9.55779 11.1995 9.95312 11.6739C10.3683 12.1718 10.8424 12.2839 11.1377 12.1953C11.1491 12.1919 11.1591 12.1868 11.1689 12.1836C11.1619 12.1589 11.1549 12.1287 11.1436 12.0948C11.0217 11.7298 10.6036 10.8697 10.6035 9.91898V9.91116C10.6114 9.16282 10.7328 8.26388 11.1777 7.40237C11.6301 6.52649 12.3931 5.73626 13.6006 5.18753L15.0176 4.54398L14.6387 6.05276ZM13.1445 7.25491C12.8623 7.51903 12.6583 7.80333 12.5098 8.09085C12.2088 8.6737 12.11 9.31797 12.1035 9.92679C12.1055 10.5494 12.3545 10.9851 12.5664 11.6201C12.6507 11.8728 12.7805 12.3102 12.624 12.75C12.4438 13.2562 11.9981 13.503 11.5684 13.6319C10.5258 13.9446 9.47188 13.4383 8.80176 12.6348C8.57455 12.3623 8.38204 12.0466 8.23438 11.6973C8.00014 12.6635 8.13737 13.6977 8.57617 14.6016C9.31127 16.1156 10.8159 17.1263 12.6445 16.7852C13.8488 16.5604 14.8924 15.8239 15.4502 14.8506C15.9912 13.9063 16.0967 12.7048 15.3896 11.4248C14.5382 10.1775 13.8847 9.19415 13.499 8.33597C13.333 7.96648 13.2144 7.60944 13.1445 7.25491Z" fill="currentcolor"/>
</svg>
