<svg width="24" height="24" viewBox="0 0 24 24" fill="none" color="#FFFFFF" xmlns="http://www.w3.org/2000/svg">
    <path id="vector" fill-rule="evenodd" clip-rule="evenodd" d="M7.00005 1.25005L6.88425 1.25002C6.06629 1.24975 5.50814 1.24957 5.02948 1.37783C3.73538 1.72458 2.72458 2.73538 2.37783 4.02948C2.24957 4.50814 2.24975 5.06629 2.25002 5.88425L2.25005 6.00005L2.25002 6.11584C2.24975 6.93381 2.24957 7.49196 2.37783 7.97062C2.72458 9.26472 3.73538 10.2755 5.02948 10.6223C5.50814 10.7505 6.06629 10.7503 6.88425 10.7501L7.00005 10.75H17L17.1158 10.7501C17.9338 10.7503 18.492 10.7505 18.9706 10.6223C20.2647 10.2755 21.2755 9.26472 21.6223 7.97062C21.7505 7.49197 21.7503 6.93384 21.7501 6.11592V6.1159V6.11589V6.11583L21.75 6.00005L21.7501 5.88427V5.88421V5.8842V5.88418C21.7503 5.06626 21.7505 4.50812 21.6223 4.02948C21.2755 2.73538 20.2647 1.72458 18.9706 1.37783C18.492 1.24957 17.9338 1.24975 17.1158 1.25002L17 1.25005H7.00005ZM3.82672 7.58239C3.75649 7.32031 3.75005 6.97831 3.75005 6.00005C3.75005 5.02179 3.75649 4.67979 3.82672 4.41771C4.03477 3.64125 4.64125 3.03477 5.41771 2.82672C5.67979 2.75649 6.02179 2.75005 7.00005 2.75005H17C17.9783 2.75005 18.3203 2.75649 18.5824 2.82672C19.3589 3.03477 19.9653 3.64125 20.1734 4.41771C20.2436 4.67979 20.25 5.02179 20.25 6.00005C20.25 6.97831 20.2436 7.32031 20.1734 7.58239C19.9653 8.35885 19.3589 8.96533 18.5824 9.17338C18.3203 9.24361 17.9783 9.25005 17 9.25005H7.00005C6.02179 9.25005 5.67979 9.24361 5.41771 9.17338C4.64125 8.96533 4.03477 8.35885 3.82672 7.58239ZM7.00005 12.25L6.88425 12.25C6.06629 12.2498 5.50814 12.2496 5.02948 12.3778C3.73538 12.7246 2.72458 13.7354 2.37783 15.0295C2.24957 15.5081 2.24975 16.0663 2.25002 16.8843L2.25005 17L2.25002 17.1158C2.24975 17.9338 2.24957 18.492 2.37783 18.9706C2.72458 20.2647 3.73538 21.2755 5.02948 21.6223C5.50813 21.7505 6.06628 21.7503 6.88422 21.7501H6.88425L7.00005 21.75H17L17.1158 21.7501H17.1159C17.9338 21.7503 18.492 21.7505 18.9706 21.6223C20.2647 21.2755 21.2755 20.2647 21.6223 18.9706C21.7505 18.492 21.7503 17.9338 21.7501 17.1159V17.1159V17.1159V17.1158L21.75 17L21.7501 16.8843V16.8842V16.8842V16.8842C21.7503 16.0663 21.7505 15.5081 21.6223 15.0295C21.2755 13.7354 20.2647 12.7246 18.9706 12.3778C18.492 12.2496 17.9338 12.2498 17.1158 12.25L17 12.25H7.00005ZM3.82672 18.5824C3.75649 18.3203 3.75005 17.9783 3.75005 17C3.75005 16.0218 3.75649 15.6798 3.82672 15.4177C4.03477 14.6412 4.64125 14.0348 5.41771 13.8267C5.67979 13.7565 6.02179 13.75 7.00005 13.75H17C17.9783 13.75 18.3203 13.7565 18.5824 13.8267C19.3589 14.0348 19.9653 14.6412 20.1734 15.4177C20.2436 15.6798 20.25 16.0218 20.25 17C20.25 17.9783 20.2436 18.3203 20.1734 18.5824C19.9653 19.3588 19.3589 19.9653 18.5824 20.1734C18.3203 20.2436 17.9783 20.25 17 20.25H7.00005C6.02179 20.25 5.67979 20.2436 5.41771 20.1734C4.64125 19.9653 4.03477 19.3588 3.82672 18.5824ZM18 6.00005C18 6.55233 17.5523 7.00005 17 7.00005C16.4478 7.00005 16 6.55233 16 6.00005C16 5.44776 16.4478 5.00005 17 5.00005C17.5523 5.00005 18 5.44776 18 6.00005ZM17 18C17.5523 18 18 17.5523 18 17C18 16.4478 17.5523 16 17 16C16.4478 16 16 16.4478 16 17C16 17.5523 16.4478 18 17 18Z" fill="currentcolor"/>
</svg>
