<svg width="24" height="24" viewBox="0 0 24 24" fill="none" color="#FFFFFF" xmlns="http://www.w3.org/2000/svg">
    <path id="vector" fill-rule="evenodd" clip-rule="evenodd" d="M20.7822 13.002C20.9029 13.0039 21.0159 13.0082 21.1182 13.0166C21.3312 13.034 21.5647 13.0731 21.7949 13.1904C22.124 13.3582 22.3918 13.626 22.5596 13.9551C22.6769 14.1853 22.716 14.4188 22.7334 14.6318C22.7501 14.8361 22.75 15.0821 22.75 15.3496V19.6504C22.75 19.9179 22.7501 20.1639 22.7334 20.3682C22.716 20.5812 22.6769 20.8147 22.5596 21.0449C22.3918 21.374 22.124 21.6418 21.7949 21.8096C21.5647 21.9269 21.3312 21.966 21.1182 21.9834C20.9139 22.0001 20.6679 22 20.4004 22H3.59961C3.33211 22 3.08611 22.0001 2.88184 21.9834C2.66879 21.966 2.43527 21.9269 2.20508 21.8096C1.87597 21.6418 1.60818 21.374 1.44043 21.0449C1.32314 20.8147 1.28403 20.5812 1.2666 20.3682C1.24991 20.1639 1.25 19.9179 1.25 19.6504V15.3496C1.25 15.0821 1.24991 14.8361 1.2666 14.6318C1.28403 14.4188 1.32314 14.1853 1.44043 13.9551C1.60818 13.626 1.87597 13.3582 2.20508 13.1904C2.43527 13.0731 2.66879 13.034 2.88184 13.0166C3.08611 12.9999 3.33211 13 3.59961 13H20.4004L20.7822 13.002ZM3.59961 14.5C3.30744 14.5 3.13298 14.5002 3.00391 14.5107C2.88384 14.5206 2.87034 14.5357 2.88672 14.5273C2.83968 14.5513 2.80131 14.5897 2.77734 14.6367C2.78569 14.6203 2.77058 14.6338 2.76074 14.7539C2.7502 14.883 2.75 15.0574 2.75 15.3496V19.6504C2.75 19.9426 2.7502 20.117 2.76074 20.2461C2.77058 20.3662 2.78569 20.3797 2.77734 20.3633C2.80131 20.4103 2.83968 20.4487 2.88672 20.4727C2.87034 20.4643 2.88384 20.4794 3.00391 20.4893C3.13298 20.4998 3.30744 20.5 3.59961 20.5H20.4004C20.6926 20.5 20.867 20.4998 20.9961 20.4893C21.1162 20.4794 21.1297 20.4643 21.1133 20.4727C21.1603 20.4487 21.1987 20.4103 21.2227 20.3633C21.2143 20.3797 21.2294 20.3662 21.2393 20.2461C21.2498 20.117 21.25 19.9426 21.25 19.6504V15.3496C21.25 15.0574 21.2498 14.883 21.2393 14.7539C21.2294 14.6338 21.2143 14.6203 21.2227 14.6367C21.1987 14.5897 21.1603 14.5513 21.1133 14.5273C21.1297 14.5357 21.1162 14.5206 20.9961 14.5107C20.9315 14.5055 20.8552 14.5034 20.7588 14.502L20.4004 14.5H3.59961ZM17.8037 15.0117C19.178 15.0117 20.2928 16.1257 20.293 17.5C20.2927 18.8742 19.1779 19.9893 17.8037 19.9893C16.4296 19.9891 15.3157 18.8741 15.3154 17.5C15.3156 16.1258 16.4295 15.0119 17.8037 15.0117ZM17.8037 16.5117C17.258 16.5119 16.8156 16.9542 16.8154 17.5C16.8157 18.0456 17.258 18.4891 17.8037 18.4893C18.3495 18.4893 18.7927 18.0457 18.793 17.5C18.7928 16.9542 18.3496 16.5117 17.8037 16.5117ZM20.7822 2.00195C20.9029 2.00389 21.0159 2.00824 21.1182 2.0166C21.3312 2.03403 21.5647 2.07314 21.7949 2.19043C22.124 2.35818 22.3918 2.62597 22.5596 2.95508C22.6769 3.18527 22.716 3.41879 22.7334 3.63184C22.7501 3.83611 22.75 4.08211 22.75 4.34961V8.65039C22.75 8.91789 22.7501 9.16389 22.7334 9.36816C22.716 9.58121 22.6769 9.81473 22.5596 10.0449C22.3918 10.374 22.124 10.6418 21.7949 10.8096C21.5647 10.9269 21.3312 10.966 21.1182 10.9834C20.9139 11.0001 20.6679 11 20.4004 11H3.59961C3.33211 11 3.08611 11.0001 2.88184 10.9834C2.66879 10.966 2.43527 10.9269 2.20508 10.8096C1.87597 10.6418 1.60818 10.374 1.44043 10.0449C1.32314 9.81473 1.28403 9.58121 1.2666 9.36816C1.24991 9.16389 1.25 8.91789 1.25 8.65039V4.34961C1.25 4.08211 1.24991 3.83611 1.2666 3.63184C1.28403 3.41879 1.32314 3.18527 1.44043 2.95508C1.60818 2.62597 1.87597 2.35818 2.20508 2.19043C2.43527 2.07314 2.66879 2.03403 2.88184 2.0166C3.08611 1.99991 3.33211 2 3.59961 2H20.4004L20.7822 2.00195ZM3.59961 3.5C3.30744 3.5 3.13298 3.5002 3.00391 3.51074C2.88384 3.52058 2.87034 3.53569 2.88672 3.52734C2.83968 3.55131 2.80131 3.58968 2.77734 3.63672C2.78569 3.62034 2.77058 3.63384 2.76074 3.75391C2.7502 3.88298 2.75 4.05744 2.75 4.34961V8.65039C2.75 8.94256 2.7502 9.11702 2.76074 9.24609C2.77058 9.36616 2.78569 9.37966 2.77734 9.36328C2.80131 9.41032 2.83968 9.44869 2.88672 9.47266C2.87034 9.46431 2.88384 9.47942 3.00391 9.48926C3.13298 9.4998 3.30744 9.5 3.59961 9.5H20.4004C20.6926 9.5 20.867 9.4998 20.9961 9.48926C21.1162 9.47942 21.1297 9.46431 21.1133 9.47266C21.1603 9.44869 21.1987 9.41032 21.2227 9.36328C21.2143 9.37966 21.2294 9.36616 21.2393 9.24609C21.2498 9.11702 21.25 8.94256 21.25 8.65039V4.34961C21.25 4.05744 21.2498 3.88298 21.2393 3.75391C21.2294 3.63384 21.2143 3.62034 21.2227 3.63672C21.1987 3.58968 21.1603 3.55131 21.1133 3.52734C21.1297 3.53569 21.1162 3.52058 20.9961 3.51074C20.9315 3.50546 20.8552 3.50342 20.7588 3.50195L20.4004 3.5H3.59961ZM17.8037 4.01172C19.178 4.01172 20.2928 5.12574 20.293 6.5C20.2927 7.87415 19.1779 8.98926 17.8037 8.98926C16.4296 8.98913 15.3157 7.87407 15.3154 6.5C15.3156 5.12582 16.4295 4.01185 17.8037 4.01172ZM17.8037 5.51172C17.258 5.51185 16.8156 5.95425 16.8154 6.5C16.8157 7.04564 17.258 7.48913 17.8037 7.48926C18.3495 7.48926 18.7927 7.04572 18.793 6.5C18.7928 5.95416 18.3496 5.51172 17.8037 5.51172Z" fill="currentcolor"/>
</svg>
