<svg width="24" height="24" viewBox="0 0 24 24" fill="none" color="#FFFFFF" xmlns="http://www.w3.org/2000/svg">
    <path id="vector" fill-rule="evenodd" clip-rule="evenodd" d="M15.325 4.25C15.6725 2.53832 17.1858 1.25 19 1.25C21.0711 1.25 22.75 2.92894 22.75 5C22.75 7.07107 21.0711 8.75 19 8.75C17.1858 8.75 15.6725 7.46168 15.325 5.75L9 5.75C7.43146 5.75 6.12245 6.86118 5.8172 8.3393C7.49529 8.71226 8.75 10.2096 8.75 12C8.75 13.7904 7.49529 15.2877 5.8172 15.6607C6.12245 17.1388 7.43146 18.25 9 18.25L15.325 18.25C15.6725 16.5383 17.1858 15.25 19 15.25C21.0711 15.25 22.75 16.9289 22.75 19C22.75 21.0711 21.0711 22.75 19 22.75C17.1858 22.75 15.6725 21.4617 15.325 19.75L9 19.75C6.60912 19.75 4.63081 17.9836 4.29897 15.6846C2.56295 15.3563 1.25 13.8315 1.25 12C1.25 10.1685 2.56295 8.6437 4.29897 8.31542C4.63081 6.01644 6.60912 4.25 9 4.25L15.325 4.25ZM16.75 19C16.75 20.2426 17.7574 21.25 19 21.25C20.2426 21.25 21.25 20.2426 21.25 19C21.25 17.7574 20.2426 16.75 19 16.75C17.7574 16.75 16.75 17.7574 16.75 19ZM7.25 12C7.25 13.2423 6.2432 14.2494 5.00105 14.25L5 14.25C3.75736 14.25 2.75 13.2426 2.75 12C2.75 10.7574 3.75736 9.75 5 9.75C6.24264 9.75 7.25 10.7574 7.25 12ZM16.75 5C16.75 6.24264 17.7574 7.25 19 7.25C20.2426 7.25 21.25 6.24264 21.25 5C21.25 3.75736 20.2426 2.75 19 2.75C17.7574 2.75 16.75 3.75736 16.75 5Z" fill="currentcolor"/>
</svg>
