<svg width="24" height="24" viewBox="0 0 24 24" fill="none" color="#FFFFFF" xmlns="http://www.w3.org/2000/svg">
    <path id="vector" fill-rule="evenodd" clip-rule="evenodd" d="M6.53424 4.08839C8.21945 3.38561 10.2435 2.75 12 2.75C13.7566 2.75 15.7806 3.38561 17.4658 4.08839C18.4479 4.49793 18.8013 4.65339 19.2101 5.0326C19.5279 5.32731 19.9003 5.88605 20.05 6.29275C20.2404 6.81017 20.25 7.30104 20.25 8.62361L20.25 10.6972C20.25 13.0412 20.2423 14.0611 19.8934 15.132C19.6228 15.9625 18.9642 17.0995 18.3785 17.7475C17.6184 18.5885 16.953 18.9765 15.4008 19.867C14.6912 20.2741 14.0045 20.6274 13.3967 20.8769C12.771 21.1337 12.3006 21.25 12 21.25C11.6994 21.25 11.2291 21.1337 10.6034 20.8769C9.99559 20.6274 9.30884 20.2741 8.59922 19.867C7.04708 18.9765 6.38169 18.5885 5.62154 17.7475C5.03584 17.0995 4.37731 15.9625 4.10672 15.132C3.75778 14.0611 3.75003 13.0412 3.75003 10.6972L3.75003 8.62361C3.75003 7.30104 3.75964 6.81017 3.9501 6.29275C4.09981 5.88605 4.47218 5.32731 4.78992 5.0326C5.19876 4.65339 5.55222 4.49793 6.53424 4.08839ZM12 1.25C9.94126 1.25 7.6951 1.97907 5.95688 2.70396L5.89008 2.73181C4.98582 3.10873 4.39111 3.35662 3.76987 3.93283C3.27893 4.38818 2.77375 5.14621 2.54244 5.77459C2.24956 6.57025 2.24974 7.33709 2.25002 8.51252L2.25003 8.62361L2.25003 10.6972L2.25003 10.8133C2.2499 13.0097 2.24982 14.2749 2.68051 15.5967C3.0164 16.6276 3.78172 17.949 4.50875 18.7533C5.44074 19.7844 6.30472 20.28 7.79654 21.1358L7.85278 21.1681C8.59309 21.5928 9.34245 21.9807 10.0338 22.2645C10.7071 22.5409 11.3988 22.75 12 22.75C12.6012 22.75 13.2929 22.5409 13.9663 22.2645C14.6576 21.9807 15.407 21.5928 16.1473 21.1681L16.2035 21.1358L16.2036 21.1358C17.6954 20.28 18.5593 19.7844 19.4913 18.7533C20.2183 17.9489 20.9837 16.6276 21.3196 15.5967C21.7502 14.2749 21.7502 13.0097 21.75 10.8133L21.75 10.6972L21.75 8.62361L21.7501 8.51253C21.7503 7.33709 21.7505 6.57026 21.4576 5.77459C21.2263 5.14621 20.7211 4.38818 20.2302 3.93283C19.609 3.35662 19.0142 3.10873 18.11 2.73181L18.0432 2.70396C16.305 1.97907 14.0588 1.25 12 1.25ZM16.0304 10.0303C16.3233 9.73744 16.3233 9.26256 16.0304 8.96967C15.7375 8.67678 15.2626 8.67678 14.9697 8.96967L11 12.9393L9.53036 11.4697C9.23747 11.1768 8.7626 11.1768 8.4697 11.4697C8.17681 11.7626 8.17681 12.2374 8.4697 12.5303L10.4697 14.5303C10.7626 14.8232 11.2375 14.8232 11.5304 14.5303L16.0304 10.0303Z" fill="currentcolor"/>
</svg>
