<svg width="24" height="24" viewBox="0 0 24 24" fill="none" color="#FFFFFF" xmlns="http://www.w3.org/2000/svg">
    <path id="vector" fill-rule="evenodd" clip-rule="evenodd" d="M6.75 2C6.75 1.58579 6.41421 1.25 6 1.25C5.58579 1.25 5.25 1.58579 5.25 2V4.25H5.2L5.16957 4.25C4.63541 4.24999 4.18956 4.24998 3.82533 4.27974C3.44545 4.31078 3.08879 4.37789 2.75153 4.54973C2.23408 4.81338 1.81338 5.23408 1.54973 5.75153C1.37789 6.08879 1.31078 6.44545 1.27974 6.82533C1.24998 7.18956 1.24999 7.63541 1.25 8.16957L1.25 8.2V9.8L1.25 9.83043C1.24999 10.3646 1.24998 10.8104 1.27974 11.1747C1.31078 11.5546 1.37789 11.9112 1.54973 12.2485C1.81338 12.7659 2.23408 13.1866 2.75153 13.4503C3.08879 13.6221 3.44545 13.6892 3.82533 13.7203C4.18955 13.75 4.63538 13.75 5.16951 13.75H5.16955H5.2H6.8H6.83045H6.83049C7.36462 13.75 7.81045 13.75 8.17467 13.7203C8.55456 13.6892 8.91121 13.6221 9.24848 13.4503C9.76592 13.1866 10.1866 12.7659 10.4503 12.2485C10.6221 11.9112 10.6892 11.5546 10.7203 11.1747C10.75 10.8105 10.75 10.3646 10.75 9.8305V9.83045V9.8V8.2V8.16955V8.16951C10.75 7.63538 10.75 7.18955 10.7203 6.82533C10.6892 6.44545 10.6221 6.08879 10.4503 5.75153C10.1866 5.23408 9.76592 4.81338 9.24848 4.54973C8.91121 4.37789 8.55456 4.31078 8.17467 4.27974C7.81044 4.24998 7.36459 4.24999 6.83044 4.25L6.8 4.25H6.75V2ZM5.2 5.75H6H6.8C7.37243 5.75 7.75664 5.75058 8.05252 5.77476C8.33965 5.79822 8.47693 5.8401 8.56749 5.88624C8.80269 6.00608 8.99392 6.19731 9.11376 6.43251C9.1599 6.52307 9.20178 6.66035 9.22524 6.94748C9.24942 7.24336 9.25 7.62757 9.25 8.2V9.8C9.25 10.3724 9.24942 10.7566 9.22524 11.0525C9.20178 11.3396 9.1599 11.4769 9.11376 11.5675C8.99392 11.8027 8.80269 11.9939 8.56749 12.1138C8.47693 12.1599 8.33965 12.2018 8.05252 12.2252C7.75664 12.2494 7.37243 12.25 6.8 12.25H5.2C4.62757 12.25 4.24336 12.2494 3.94748 12.2252C3.66036 12.2018 3.52307 12.1599 3.43251 12.1138C3.19731 11.9939 3.00608 11.8027 2.88624 11.5675C2.8401 11.4769 2.79822 11.3396 2.77476 11.0525C2.75058 10.7566 2.75 10.3724 2.75 9.8V8.2C2.75 7.62757 2.75058 7.24336 2.77476 6.94748C2.79822 6.66035 2.8401 6.52307 2.88624 6.43251C3.00608 6.19731 3.19731 6.00608 3.43251 5.88624C3.52307 5.8401 3.66036 5.79822 3.94748 5.77476C4.24336 5.75058 4.62757 5.75 5.2 5.75ZM6.75 16C6.75 15.5858 6.41421 15.25 6 15.25C5.58579 15.25 5.25 15.5858 5.25 16L5.25 22C5.25 22.4142 5.58579 22.75 6 22.75C6.41421 22.75 6.75 22.4142 6.75 22L6.75 16ZM18 18.25H18.8C19.3724 18.25 19.7566 18.2494 20.0525 18.2252C20.3396 18.2018 20.4769 18.1599 20.5675 18.1138C20.8027 17.9939 20.9939 17.8027 21.1138 17.5675C21.1599 17.4769 21.2018 17.3396 21.2252 17.0525C21.2494 16.7566 21.25 16.3724 21.25 15.8V14.2C21.25 13.6276 21.2494 13.2434 21.2252 12.9475C21.2018 12.6604 21.1599 12.5231 21.1138 12.4325C20.9939 12.1973 20.8027 12.0061 20.5675 11.8862C20.4769 11.8401 20.3396 11.7982 20.0525 11.7748C19.7566 11.7506 19.3724 11.75 18.8 11.75H17.2C16.6276 11.75 16.2434 11.7506 15.9475 11.7748C15.6604 11.7982 15.5231 11.8401 15.4325 11.8862C15.1973 12.0061 15.0061 12.1973 14.8862 12.4325C14.8401 12.5231 14.7982 12.6604 14.7748 12.9475C14.7506 13.2434 14.75 13.6276 14.75 14.2V15.8C14.75 16.3724 14.7506 16.7566 14.7748 17.0525C14.7982 17.3396 14.8401 17.4769 14.8862 17.5675C15.0061 17.8027 15.1973 17.9939 15.4325 18.1138C15.5231 18.1599 15.6604 18.2018 15.9475 18.2252C16.2434 18.2494 16.6276 18.25 17.2 18.25H18ZM18.75 22V19.75H18.8H18.8305C19.3646 19.75 19.8104 19.75 20.1747 19.7203C20.5546 19.6892 20.9112 19.6221 21.2485 19.4503C21.7659 19.1866 22.1866 18.7659 22.4503 18.2485C22.6221 17.9112 22.6892 17.5546 22.7203 17.1747C22.75 16.8105 22.75 16.3647 22.75 15.8306V15.8305V15.8V14.2V14.1695V14.1694C22.75 13.6353 22.75 13.1895 22.7203 12.8253C22.6892 12.4454 22.6221 12.0888 22.4503 11.7515C22.1866 11.2341 21.7659 10.8134 21.2485 10.5497C20.9112 10.3779 20.5546 10.3108 20.1747 10.2797C19.8104 10.25 19.3646 10.25 18.8304 10.25H18.8H17.2H17.1696C16.6354 10.25 16.1896 10.25 15.8253 10.2797C15.4454 10.3108 15.0888 10.3779 14.7515 10.5497C14.2341 10.8134 13.8134 11.2341 13.5497 11.7515C13.3779 12.0888 13.3108 12.4454 13.2797 12.8253C13.25 13.1896 13.25 13.6354 13.25 14.1696V14.2V15.8V15.8304C13.25 16.3646 13.25 16.8104 13.2797 17.1747C13.3108 17.5546 13.3779 17.9112 13.5497 18.2485C13.8134 18.7659 14.2341 19.1866 14.7515 19.4503C15.0888 19.6221 15.4454 19.6892 15.8253 19.7203C16.1896 19.75 16.6354 19.75 17.1695 19.75H17.2H17.25V22C17.25 22.4142 17.5858 22.75 18 22.75C18.4142 22.75 18.75 22.4142 18.75 22ZM18 1.25C18.4142 1.25 18.75 1.58579 18.75 2V8C18.75 8.41421 18.4142 8.75 18 8.75C17.5858 8.75 17.25 8.41421 17.25 8V2C17.25 1.58579 17.5858 1.25 18 1.25Z" fill="currentcolor"/>
</svg>
