<svg width="24" height="24" viewBox="0 0 24 24" fill="none" color="#FFFFFF" xmlns="http://www.w3.org/2000/svg">
    <path id="vector" fill-rule="evenodd" clip-rule="evenodd" d="M5.75 2C5.75 1.58579 5.41421 1.25 5 1.25C4.58579 1.25 4.25 1.58579 4.25 2L4.25 4.32501C2.53832 4.67247 1.25 6.18578 1.25 8C1.25 10.0711 2.92893 11.75 5 11.75C7.07107 11.75 8.75 10.0711 8.75 8C8.75 6.18578 7.46168 4.67247 5.75 4.32501L5.75 2ZM5 5.75C3.75736 5.75 2.75 6.75736 2.75 8C2.75 9.24264 3.75736 10.25 5 10.25C6.24264 10.25 7.25 9.24264 7.25 8C7.25 6.75736 6.24264 5.75 5 5.75ZM19 1.25C19.4142 1.25 19.75 1.58579 19.75 2V4.32501C21.4617 4.67247 22.75 6.18578 22.75 8C22.75 10.0711 21.0711 11.75 19 11.75C16.9289 11.75 15.25 10.0711 15.25 8C15.25 6.18578 16.5383 4.67247 18.25 4.32501V2C18.25 1.58579 18.5858 1.25 19 1.25ZM16.75 8C16.75 6.75736 17.7574 5.75 19 5.75C20.2426 5.75 21.25 6.75736 21.25 8C21.25 9.24264 20.2426 10.25 19 10.25C17.7574 10.25 16.75 9.24264 16.75 8ZM12.75 19.675C14.4617 19.3275 15.75 17.8142 15.75 16C15.75 13.9289 14.0711 12.25 12 12.25C9.92893 12.25 8.25 13.9289 8.25 16C8.25 17.8142 9.53832 19.3275 11.25 19.675V22C11.25 22.4142 11.5858 22.75 12 22.75C12.4142 22.75 12.75 22.4142 12.75 22V19.675ZM12 18.25C13.2426 18.25 14.25 17.2426 14.25 16C14.25 14.7574 13.2426 13.75 12 13.75C10.7574 13.75 9.75 14.7574 9.75 16C9.75 17.2426 10.7574 18.25 12 18.25ZM19 13.25C19.4142 13.25 19.75 13.5858 19.75 14V22C19.75 22.4142 19.4142 22.75 19 22.75C18.5858 22.75 18.25 22.4142 18.25 22V14C18.25 13.5858 18.5858 13.25 19 13.25ZM12.75 2C12.75 1.58579 12.4142 1.25 12 1.25C11.5858 1.25 11.25 1.58579 11.25 2L11.25 10C11.25 10.4142 11.5858 10.75 12 10.75C12.4142 10.75 12.75 10.4142 12.75 10L12.75 2ZM5 13.25C5.41421 13.25 5.75 13.5858 5.75 14L5.75 22C5.75 22.4142 5.41421 22.75 5 22.75C4.58579 22.75 4.25 22.4142 4.25 22L4.25 14C4.25 13.5858 4.58579 13.25 5 13.25Z" fill="currentcolor"/>
</svg>
