<svg width="24" height="24" viewBox="0 0 24 24" fill="none" color="#FFFFFF" xmlns="http://www.w3.org/2000/svg">
    <path id="vector" fill-rule="evenodd" clip-rule="evenodd" d="M11.4189 0.599609C11.8569 0.444608 12.3438 0.470222 12.7656 0.676758C13.1382 0.85937 13.3661 1.1983 13.5303 1.48926C13.7037 1.79665 13.8896 2.21226 14.1113 2.7041L16.4121 7.80957H20.7764C21.3853 7.80957 21.8928 7.80944 22.2793 7.84277C22.6369 7.87368 23.0791 7.9417 23.4111 8.22754C23.8327 8.59073 24.0486 9.13456 23.9902 9.68359C23.9441 10.116 23.6675 10.4639 23.4268 10.7266C23.1665 11.0102 22.7947 11.3503 22.3486 11.7588L18.7549 15.0479L20.415 19.7119C20.6345 20.3287 20.8155 20.837 20.9189 21.2324C21.0129 21.5918 21.1024 22.0532 20.9238 22.4707C20.7004 22.993 20.2266 23.3717 19.6621 23.4785C19.2108 23.5637 18.7714 23.3814 18.4346 23.2158C18.064 23.0337 17.5972 22.7531 17.0312 22.4131L12 19.3887L6.96875 22.4131C6.40288 22.7531 5.93606 23.0337 5.56543 23.2158C5.22855 23.3813 4.78918 23.5638 4.33789 23.4785C3.77339 23.3717 3.29963 22.993 3.07617 22.4707C2.89765 22.0532 2.9871 21.5918 3.08105 21.2324C3.18447 20.837 3.36558 20.3286 3.58496 19.7119L5.24414 15.0479L1.65137 11.7588C1.20524 11.3502 0.833466 11.0103 0.573242 10.7266C0.332409 10.4639 0.0559191 10.116 0.00976562 9.68359C-0.048592 9.13464 0.168374 8.59073 0.589844 8.22754L0.717773 8.13086C1.02957 7.92557 1.40768 7.86983 1.7207 7.84277C2.10716 7.80943 2.61462 7.80957 3.22363 7.80957H7.58789L9.88867 2.7041C10.1103 2.21236 10.2963 1.79663 10.4697 1.48926C10.6339 1.19837 10.862 0.859412 11.2344 0.676758L11.4189 0.599609ZM12.0918 1.97266C12.0325 1.94907 11.9664 1.94881 11.9072 1.97266C11.8903 1.99137 11.8406 2.05132 11.7588 2.19629C11.6253 2.43288 11.4699 2.77672 11.2363 3.29492L8.74121 8.83203C8.62278 9.09452 8.35775 9.26367 8.06641 9.26367H3.22363C2.58589 9.26367 2.15619 9.26459 1.84961 9.29102C1.65621 9.30775 1.57052 9.33069 1.54395 9.33887C1.4994 9.38481 1.47564 9.44621 1.47656 9.50977C1.4907 9.53411 1.53727 9.6094 1.66699 9.75098C1.87346 9.97601 2.18793 10.2644 2.65527 10.6924L6.60254 14.3066C6.81725 14.5033 6.89362 14.8073 6.79688 15.0801L4.97656 20.1943C4.74783 20.8372 4.59263 21.2751 4.50879 21.5957C4.45591 21.798 4.44774 21.8941 4.44629 21.9258C4.47718 21.982 4.52974 22.0236 4.5918 22.042C4.62177 22.0343 4.71557 22.0082 4.90723 21.9141C5.20782 21.7664 5.61016 21.5255 6.2002 21.1709L11.6162 17.916C11.8518 17.7744 12.1481 17.7744 12.3838 17.916L17.7998 21.1709C18.39 21.5256 18.7921 21.7664 19.0928 21.9141C19.2823 22.0072 19.3761 22.0339 19.4072 22.042C19.4695 22.0238 19.5216 21.982 19.5527 21.9258C19.5512 21.8941 19.5441 21.798 19.4912 21.5957C19.4073 21.2751 19.2522 20.8372 19.0234 20.1943L17.2031 15.0801C17.1064 14.8074 17.183 14.5034 17.3975 14.3066L21.3447 10.6924C21.8119 10.2645 22.1265 9.97601 22.333 9.75098C22.4617 9.61056 22.5079 9.53469 22.5225 9.50977C22.5233 9.44589 22.5 9.38489 22.4551 9.33887C22.4274 9.3304 22.3416 9.30754 22.1504 9.29102C21.8438 9.2646 21.414 9.26367 20.7764 9.26367H15.9336C15.6422 9.26359 15.3771 9.09454 15.2588 8.83203L12.7637 3.29492C12.53 2.7766 12.3747 2.43289 12.2412 2.19629C12.1584 2.04951 12.108 1.99058 12.0918 1.97266Z" fill="currentcolor"/>
</svg>
