<svg width="24" height="24" viewBox="0 0 24 24" fill="none" color="#FFFFFF" xmlns="http://www.w3.org/2000/svg">
    <path id="vector" fill-rule="evenodd" clip-rule="evenodd" d="M10.8215 0.98746C11.5673 0.633737 12.4326 0.633737 13.1784 0.987461C13.6947 1.23234 14.0609 1.69585 14.3854 2.21973C14.7117 2.74646 15.0697 3.46242 15.5155 4.35402L15.5329 4.38896L15.8922 5.10753C16.1979 5.71889 16.2868 5.87911 16.3984 5.99592C16.5135 6.1164 16.6516 6.21266 16.8044 6.27902C16.9526 6.34336 17.1337 6.37138 17.813 6.44687L18.1392 6.48311L18.1783 6.48746C19.2493 6.60644 20.1048 6.70149 20.7525 6.83323C21.3913 6.96316 21.9866 7.1555 22.4033 7.58066C22.9995 8.18896 23.2802 9.03923 23.1633 9.88295C23.0816 10.4726 22.7178 10.9816 22.282 11.4663C21.84 11.9578 21.2093 12.5435 20.4197 13.2766L20.3908 13.3035L20.0464 13.6232C19.4483 14.1786 19.2949 14.3358 19.209 14.5031C19.1203 14.6758 19.073 14.8668 19.071 15.061C19.069 15.2488 19.1327 15.4632 19.4066 16.2438L19.4196 16.2806C19.8238 17.4327 20.144 18.3452 20.3257 19.055C20.5023 19.7445 20.6012 20.4216 20.3711 21.0079C20.0471 21.833 19.3454 22.4514 18.4861 22.6689C17.8772 22.823 17.2237 22.6435 16.5678 22.3847C15.8944 22.1191 15.0418 21.6928 13.9668 21.1553L13.9316 21.1377L13.0956 20.7197C12.532 20.4379 12.3782 20.3686 12.2305 20.3409C12.0781 20.3123 11.9218 20.3123 11.7695 20.3409C11.6217 20.3686 11.4679 20.4379 10.9043 20.7197L10.0684 21.1377L10.0331 21.1553C8.95812 21.6928 8.10548 22.1191 7.43213 22.3847C6.77621 22.6435 6.12274 22.823 5.51383 22.6689C4.65455 22.4514 3.95279 21.833 3.62886 21.0079C3.39868 20.4216 3.49761 19.7445 3.67418 19.055C3.85594 18.3452 4.17609 17.4328 4.58033 16.2807L4.59327 16.2438C4.86719 15.4632 4.93089 15.2488 4.92891 15.061C4.92687 14.8668 4.87962 14.6758 4.79091 14.5031C4.70499 14.3358 4.55163 14.1786 3.9535 13.6232L3.60916 13.3035L3.58031 13.2767C2.79069 12.5435 2.15991 11.9578 1.71795 11.4663C1.28207 10.9816 0.918273 10.4726 0.836584 9.88295C0.719705 9.03923 1.0004 8.18896 1.59663 7.58066C2.01335 7.1555 2.60866 6.96316 3.24745 6.83323C3.89514 6.70149 4.75065 6.60644 5.8216 6.48746L5.86073 6.48311L6.1869 6.44687C6.86625 6.37138 7.04732 6.34335 7.19551 6.27902C7.34835 6.21266 7.48639 6.1164 7.6015 5.99592C7.7131 5.87911 7.802 5.7189 8.10769 5.10753L8.46697 4.38895L8.48444 4.35403C8.93023 3.46243 9.2882 2.74646 9.61449 2.21973C9.93901 1.69585 10.3052 1.23233 10.8215 0.98746ZM12.5356 2.34276C12.1966 2.18197 11.8033 2.18197 11.4643 2.34276C11.3573 2.3935 11.1816 2.53839 10.8897 3.00964C10.6038 3.47116 10.2759 4.12519 9.80861 5.05977L9.44933 5.77835C9.43494 5.80713 9.42075 5.83556 9.40673 5.86364C9.16443 6.34914 8.97395 6.7308 8.68607 7.03212C8.43283 7.29719 8.12914 7.50894 7.79288 7.65494C7.41061 7.8209 6.98663 7.86769 6.44729 7.92721C6.4161 7.93066 6.38452 7.93414 6.35255 7.93769L6.02638 7.97393C4.90742 8.09826 4.11972 8.18653 3.54643 8.30314C2.95636 8.42316 2.75013 8.5467 2.66787 8.63063C2.39686 8.90713 2.26927 9.29362 2.3224 9.67713C2.33852 9.79353 2.43066 10.0156 2.8333 10.4633C3.22448 10.8983 3.80482 11.4382 4.62983 12.2043L4.97418 12.524C5.00261 12.5504 5.03071 12.5765 5.05845 12.6022C5.53162 13.0408 5.90299 13.3851 6.12522 13.8178C6.32039 14.1978 6.42434 14.618 6.42883 15.0452C6.43394 15.5317 6.26421 16.0141 6.04753 16.6299C6.03474 16.6663 6.02177 16.7031 6.00867 16.7405C5.58863 17.9376 5.29089 18.7882 5.12729 19.4271C4.95657 20.0938 4.9837 20.3543 5.02511 20.4598C5.17235 20.8348 5.49133 21.1159 5.88191 21.2147C5.99347 21.243 6.25267 21.2375 6.88174 20.9894C7.48604 20.751 8.27943 20.3551 9.39754 19.7961L10.2335 19.3781C10.2599 19.3649 10.286 19.3518 10.3118 19.3389C10.7598 19.1145 11.1121 18.938 11.4929 18.8666C11.828 18.8037 12.1719 18.8037 12.5071 18.8666C12.8878 18.938 13.2401 19.1145 13.6881 19.3389C13.7139 19.3518 13.74 19.3649 13.7665 19.3781L14.6024 19.796C15.7205 20.3551 16.5139 20.751 17.1182 20.9894C17.7472 21.2375 18.0064 21.243 18.118 21.2147C18.5086 21.1159 18.8276 20.8348 18.9748 20.4598C19.0162 20.3543 19.0434 20.0938 18.8726 19.4271C18.709 18.7882 18.4113 17.9376 17.9912 16.7405C17.9781 16.7031 17.9652 16.6663 17.9524 16.6299C17.7357 16.0141 17.566 15.5317 17.5711 15.0452C17.5756 14.618 17.6795 14.1978 17.8747 13.8178C18.0969 13.3851 18.4683 13.0408 18.9415 12.6022C18.9692 12.5765 18.9973 12.5504 19.0257 12.524L19.3701 12.2043C20.1951 11.4382 20.7754 10.8983 21.1666 10.4633C21.5693 10.0156 21.6614 9.79353 21.6775 9.67713C21.7306 9.29362 21.6031 8.90713 21.332 8.63063C21.2498 8.5467 21.0436 8.42316 20.4535 8.30314C19.8802 8.18653 19.0925 8.09826 17.9735 7.97393L17.6474 7.93769C17.6154 7.93414 17.5838 7.93066 17.5526 7.92721C17.0133 7.86769 16.5893 7.8209 16.207 7.65494C15.8708 7.50894 15.5671 7.29718 15.3138 7.03212C15.026 6.7308 14.8355 6.34914 14.5932 5.86363C14.5792 5.83555 14.565 5.80712 14.5506 5.77834L14.1913 5.05978C13.724 4.12519 13.3962 3.47116 13.1103 3.00964C12.8184 2.5384 12.6426 2.3935 12.5356 2.34276Z" fill="currentcolor"/>
</svg>
