<svg width="24" height="24" viewBox="0 0 24 24" fill="none" color="#FFFFFF" xmlns="http://www.w3.org/2000/svg">
    <path id="vector" fill-rule="evenodd" clip-rule="evenodd" d="M11.4189 0.599457C11.8569 0.444456 12.3438 0.470069 12.7656 0.676605C13.1383 0.859207 13.3671 1.19809 13.5312 1.48911C13.7046 1.79644 13.8897 2.21229 14.1113 2.70395L16.4121 7.80942H20.7773C21.386 7.80942 21.8929 7.80931 22.2793 7.84262C22.6369 7.87353 23.0791 7.94253 23.4111 8.22836C23.8325 8.59154 24.0496 9.13456 23.9912 9.68344C23.9451 10.1159 23.6676 10.4637 23.4268 10.7264C23.1665 11.0101 22.7947 11.3502 22.3486 11.7586L18.7559 15.0477L20.415 19.7118C20.6345 20.3285 20.8155 20.8368 20.9189 21.2323C21.0129 21.5917 21.1024 22.053 20.9238 22.4706C20.7003 22.9929 20.2267 23.3716 19.6621 23.4784C19.2108 23.5635 18.7714 23.3812 18.4346 23.2157C18.0641 23.0336 17.598 22.7529 17.0322 22.4129L12 19.3885L6.96875 22.4129C6.40284 22.753 5.93608 23.0336 5.56543 23.2157C5.22855 23.3811 4.78918 23.5636 4.33789 23.4784C3.77348 23.3715 3.29961 22.9928 3.07617 22.4706C2.89773 22.0531 2.98711 21.5916 3.08105 21.2323C3.18447 20.8368 3.36655 20.3284 3.58594 19.7118L5.24414 15.0477L1.65137 11.7586C1.20515 11.35 0.833472 11.0102 0.573242 10.7264C0.33238 10.4637 0.0558689 10.1159 0.00976562 9.68344C-0.0485905 9.1345 0.168395 8.59155 0.589844 8.22836L0.717773 8.13071C1.02957 7.92542 1.40768 7.86968 1.7207 7.84262C2.10718 7.80926 2.61454 7.80942 3.22363 7.80942H7.58789L9.88867 2.70395C10.1103 2.21223 10.2963 1.79647 10.4697 1.48911C10.6339 1.19814 10.8628 0.859214 11.2354 0.676605L11.4189 0.599457Z" fill="currentcolor"/>
</svg>
