<svg width="24" height="24" viewBox="0 0 24 24" fill="none" color="#FFFFFF" xmlns="http://www.w3.org/2000/svg">
    <path id="vector" d="M16.5 12.75C18.7158 12.75 20.3132 13.7428 21.3428 14.8691C21.8539 15.4283 22.2287 16.0238 22.4785 16.5566C22.7181 17.0677 22.875 17.5906 22.875 18C22.875 18.4094 22.7181 18.9323 22.4785 19.4434C22.2287 19.9762 21.8539 20.5717 21.3428 21.1309C20.3132 22.2572 18.7158 23.25 16.5 23.25C14.2842 23.25 12.6868 22.2572 11.6572 21.1309C11.1461 20.5717 10.7713 19.9762 10.5215 19.4434C10.2819 18.9323 10.125 18.4094 10.125 18C10.125 17.5906 10.2819 17.0677 10.5215 16.5566C10.7713 16.0238 11.1461 15.4283 11.6572 14.8691C12.6868 13.7428 14.2842 12.75 16.5 12.75ZM14 1.25C15.3876 1.25 16.4734 1.24915 17.3447 1.32031C18.2249 1.39222 18.9522 1.54162 19.6104 1.87695C20.6923 2.42822 21.5718 3.30774 22.123 4.38965C22.4584 5.04778 22.6078 5.77513 22.6797 6.65527C22.7311 7.28536 22.7404 8.02763 22.7441 8.91504C22.7473 8.94296 22.75 8.97123 22.75 9C22.75 9.02605 22.7487 9.05179 22.7461 9.07715C22.7469 9.36909 22.75 9.67633 22.75 10V13.9697C22.3246 13.5078 21.8249 13.065 21.25 12.6748V10C21.25 9.91525 21.249 9.83193 21.249 9.75H12.75V12.0928C12.1953 12.3642 11.6963 12.6884 11.25 13.042V9.75H2.75098C2.75096 9.83193 2.75 9.91525 2.75 10V14C2.75 14.0848 2.75096 14.1681 2.75098 14.25H10.0039C9.58138 14.749 9.24064 15.2627 8.97559 15.75H2.75879C2.76653 16.3196 2.78104 16.8017 2.81543 17.2227C2.87976 18.01 3.00326 18.5183 3.21289 18.9297C3.62035 19.7293 4.27066 20.3797 5.07031 20.7871C5.48174 20.9967 5.98996 21.1202 6.77734 21.1846C7.49787 21.2434 8.39707 21.2475 9.6084 21.248C9.79464 21.5024 10.0003 21.7572 10.2275 22.0059C10.4614 22.2617 10.7188 22.5109 10.998 22.75H10C8.61244 22.75 7.5266 22.7509 6.65527 22.6797C5.77513 22.6078 5.04778 22.4584 4.38965 22.123C3.30773 21.5718 2.42822 20.6923 1.87695 19.6104C1.54162 18.9522 1.39222 18.2249 1.32031 17.3447C1.26883 16.7144 1.25857 15.9718 1.25488 15.084C1.25181 15.0564 1.25 15.0284 1.25 15C1.25 14.973 1.25112 14.9462 1.25391 14.9199C1.25308 14.6289 1.25 14.3226 1.25 14V10C1.25 9.67633 1.25307 9.36909 1.25391 9.07715C1.25131 9.05179 1.25 9.02605 1.25 9C1.25 8.97127 1.25174 8.94293 1.25488 8.91504C1.25858 8.02763 1.26885 7.28536 1.32031 6.65527C1.39222 5.77513 1.54162 5.04778 1.87695 4.38965C2.42822 3.30774 3.30774 2.42822 4.38965 1.87695C5.04778 1.54162 5.77513 1.39222 6.65527 1.32031C7.5266 1.24915 8.61244 1.25 10 1.25H14ZM16.5 14.25C14.7784 14.25 13.5632 15.0073 12.7646 15.8809C12.3618 16.3216 12.0685 16.7888 11.8789 17.1934C11.6791 17.6197 11.625 17.9094 11.625 18C11.625 18.0906 11.6791 18.3803 11.8789 18.8066C12.0685 19.2112 12.3618 19.6784 12.7646 20.1191C13.5632 20.9927 14.7784 21.75 16.5 21.75C18.2216 21.75 19.4368 20.9927 20.2354 20.1191C20.6382 19.6784 20.9315 19.2112 21.1211 18.8066C21.3209 18.3803 21.375 18.0906 21.375 18C21.375 17.9094 21.3209 17.6197 21.1211 17.1934C20.9315 16.7888 20.6382 16.3216 20.2354 15.8809C19.4368 15.0073 18.2216 14.25 16.5 14.25ZM16.5 15.5625C17.8462 15.5625 18.9375 16.6538 18.9375 18C18.9375 19.3462 17.8462 20.4375 16.5 20.4375C15.1538 20.4375 14.0625 19.3462 14.0625 18C14.0625 16.6538 15.1538 15.5625 16.5 15.5625ZM16.5 17.0625C15.9822 17.0625 15.5625 17.4822 15.5625 18C15.5625 18.5178 15.9822 18.9375 16.5 18.9375C17.0178 18.9375 17.4375 18.5178 17.4375 18C17.4375 17.4822 17.0178 17.0625 16.5 17.0625ZM10 2.75C8.58766 2.75 7.57344 2.75041 6.77734 2.81543C5.98996 2.87976 5.48174 3.00326 5.07031 3.21289C4.27066 3.62035 3.62035 4.27066 3.21289 5.07031C3.00326 5.48174 2.87976 5.98997 2.81543 6.77734C2.78104 7.19835 2.76653 7.68037 2.75879 8.25H21.2412C21.2335 7.68037 21.219 7.19835 21.1846 6.77734C21.1202 5.98997 20.9967 5.48174 20.7871 5.07031C20.3797 4.27066 19.7293 3.62035 18.9297 3.21289C18.5183 3.00326 18.01 2.87976 17.2227 2.81543C16.4266 2.75041 15.4123 2.75 14 2.75H10Z" fill="currentcolor"/>
</svg>
