<svg width="24" height="24" viewBox="0 0 24 24" fill="none" color="#FFFFFF" xmlns="http://www.w3.org/2000/svg">
    <path id="vector" fill-rule="evenodd" clip-rule="evenodd" d="M16.75 5C16.75 3.75736 17.7574 2.75 19 2.75C20.2426 2.75 21.25 3.75736 21.25 5C21.25 6.24264 20.2426 7.25 19 7.25L18.9993 7.25C17.757 7.2496 16.75 6.2424 16.75 5ZM15.325 5.75L8.67499 5.75C8.37672 7.21935 7.21935 8.37673 5.75 8.67499L5.75 15.325C7.21935 15.6233 8.37672 16.7807 8.67499 18.25L15.325 18.25C15.6233 16.7807 16.7807 15.6233 18.25 15.325L18.25 8.67499C16.7807 8.37673 15.6233 7.21935 15.325 5.75ZM8.67499 19.75L15.325 19.75C15.6725 21.4617 17.1858 22.75 19 22.75C21.0711 22.75 22.75 21.0711 22.75 19C22.75 17.1858 21.4617 15.6725 19.75 15.325L19.75 8.67499C21.4617 8.32754 22.75 6.81422 22.75 5C22.75 2.92894 21.0711 1.25 19 1.25C17.1858 1.25 15.6725 2.53832 15.325 4.25L8.67499 4.25C8.32753 2.53832 6.81422 1.25 5 1.25C2.92893 1.25 1.25 2.92894 1.25 5C1.25 6.81422 2.53832 8.32754 4.25 8.67499L4.25 15.325C2.53832 15.6725 1.25 17.1858 1.25 19C1.25 21.0711 2.92893 22.75 5 22.75C6.81422 22.75 8.32753 21.4617 8.67499 19.75ZM7.25 19C7.25 17.7574 6.24264 16.75 5 16.75C3.75736 16.75 2.75 17.7574 2.75 19C2.75 20.2426 3.75736 21.25 5 21.25C6.24264 21.25 7.25 20.2426 7.25 19ZM19 21.25C17.7577 21.25 16.7506 20.2432 16.75 19.001L16.75 19C16.75 17.7577 17.7568 16.7506 18.999 16.75L19 16.75C20.2426 16.75 21.25 17.7574 21.25 19C21.25 20.2426 20.2426 21.25 19 21.25ZM5 2.75C3.75736 2.75 2.75 3.75736 2.75 5C2.75 6.24264 3.75736 7.25 5 7.25C6.24264 7.25 7.25 6.24264 7.25 5C7.25 3.75736 6.24264 2.75 5 2.75Z" fill="currentcolor"/>
</svg>
