<?xml version="1.0" encoding="UTF-8" standalone="no"?>
<!-- Created with Inkscape (http://www.inkscape.org/) -->

<svg
   width="96"
   height="96"
   id="svg2"
   sodipodi:version="0.32"
   inkscape:version="1.4 (86a8ad7, 2024-10-11)"
   version="1.0"
   sodipodi:docname="Jinja_software_logo.svg"
   inkscape:export-filename="/Users/mitsuhiko/Development/jinja2/docs/_static/jinjabanner.png"
   inkscape:export-xdpi="60"
   inkscape:export-ydpi="60"
   inkscape:output_extension="org.inkscape.output.svg.inkscape"
   xmlns:inkscape="http://www.inkscape.org/namespaces/inkscape"
   xmlns:sodipodi="http://sodipodi.sourceforge.net/DTD/sodipodi-0.dtd"
   xmlns:xlink="http://www.w3.org/1999/xlink"
   xmlns="http://www.w3.org/2000/svg"
   xmlns:svg="http://www.w3.org/2000/svg"
   xmlns:rdf="http://www.w3.org/1999/02/22-rdf-syntax-ns#"
   xmlns:cc="http://creativecommons.org/ns#"
   xmlns:dc="http://purl.org/dc/elements/1.1/">
  <defs
     id="defs4">
    <linearGradient
       id="linearGradient6558">
      <stop
         style="stop-color:#007dff;stop-opacity:1;"
         offset="0"
         id="stop6560" />
      <stop
         style="stop-color:#007dff;stop-opacity:1;"
         offset="1"
         id="stop6562" />
    </linearGradient>
    <radialGradient
       inkscape:collect="always"
       xlink:href="#linearGradient6558"
       id="radialGradient6564"
       cx="61.297768"
       cy="60.910988"
       fx="61.297768"
       fy="60.910988"
       r="44.688255"
       gradientTransform="matrix(1,0,0,0.945104,0,3.343747)"
       gradientUnits="userSpaceOnUse" />
  </defs>
  <sodipodi:namedview
     id="base"
     pagecolor="#ffffff"
     bordercolor="#666666"
     borderopacity="1.0"
     gridtolerance="10000"
     guidetolerance="10"
     objecttolerance="10"
     inkscape:pageopacity="0.0"
     inkscape:pageshadow="2"
     inkscape:zoom="2.8"
     inkscape:cx="137.67857"
     inkscape:cy="57.5"
     inkscape:document-units="px"
     inkscape:current-layer="layer1"
     width="120px"
     height="120px"
     showguides="true"
     inkscape:guide-bbox="true"
     inkscape:window-width="1396"
     inkscape:window-height="900"
     inkscape:window-x="295"
     inkscape:window-y="40"
     inkscape:showpageshadow="2"
     inkscape:pagecheckerboard="0"
     inkscape:deskcolor="#d1d1d1"
     inkscape:window-maximized="0" />
  <metadata
     id="metadata7">
    <rdf:RDF>
      <cc:Work
         rdf:about="">
        <dc:format>image/svg+xml</dc:format>
        <dc:type
           rdf:resource="http://purl.org/dc/dcmitype/StillImage" />
      </cc:Work>
    </rdf:RDF>
  </metadata>
  <g
     inkscape:label="Layer 1"
     inkscape:groupmode="layer"
     id="layer1"
     transform="translate(-13.571429,-13.928572)">
    <path
       style="fill:url(#radialGradient6564);fill-opacity:1;fill-rule:evenodd;stroke:#007dff;stroke-width:1;stroke-linecap:butt;stroke-linejoin:miter;stroke-miterlimit:4;stroke-dasharray:none;stroke-opacity:1"
       d="m 105.45673,18.675923 c 0,0 -17.244781,8.242538 -31.283896,10.061975 -14.039107,1.819435 -40.8124,3.639673 -46.127212,2.355358 -5.314804,-1.284315 -9.129977,-2.78406 -9.129977,-2.78406 l 1.105796,3.747387 -3.411928,2.995888 0.604887,1.069255 1.40352,0.105914 4.30981,0.534612 0.604891,1.926657 2.405354,0.216875 1.205046,4.065143 c 0,0 5.111743,0.428701 6.615932,0.428701 1.504189,0 4.513013,-0.211826 4.513013,-0.211826 l 0.09924,1.603855 1.1058,0.211838 v 1.820732 l -2.410085,2.143532 0.60489,0.105912 v 0.746456 c 0,0 -5.41635,0.43203 -7.622506,0.110963 -2.206144,-0.321084 -2.608554,-0.322804 -2.608554,-0.322804 l -0.198489,0.211841 -0.09924,0.963328 h 0.500925 l 0.198474,4.176089 11.133671,-0.4287 -0.803363,14.449903 -0.09925,1.815695 -9.4277,-0.534626 -0.09924,-3.853303 h 2.102918 l 0.203211,-1.497956 1.904434,-0.4287 0.302448,-0.423665 -7.12158,-1.714818 -5.415611,1.603855 0.902596,0.751503 h 0.902612 l 0.09924,1.286116 1.904445,0.105912 v 3.747387 l -2.102919,0.53463 0.401674,0.852369 0.500925,0.322785 v 2.889986 h 1.304284 v 13.375612 l -2.107646,0.322791 0.302437,3.853297 1.29956,0.216875 -0.198476,8.775868 5.718048,0.1059 -1.205036,-8.669926 8.624341,-0.211842 -0.600161,4.705689 -0.80336,3.318679 8.723576,0.10591 0.09924,-8.558977 6.015767,-0.534612 -0.29772,5.45717 -0.203201,3.207719 h 5.117899 l -0.20321,-8.775853 0.704123,0.110964 0.198485,-4.176105 h -0.803361 l -0.297723,-1.714818 -0.500924,-4.922556 0.198485,-5.668996 h 1.101071 v -3.424601 l -1.403517,0.10591 0.203199,-4.039919 1.630357,-0.161388 0.07561,-1.311334 0.926236,-0.136182 0.949857,-0.721236 -5.713334,-1.175154 -5.666072,1.255848 0.552898,0.907857 0.600162,-0.05044 0.699398,-0.02522 0.1276,1.654296 1.578368,-0.07565 0.02835,3.58095 -6.795506,-0.15635 0.226837,-3.828095 0.222099,-3.480075 v -4.574549 l 0.20321,-4.81663 13.609913,-0.696015 16.194854,-0.933059 0.151215,3.076591 -0.576523,7.383817 -0.250464,6.874418 -5.963796,-0.105915 -0.02835,-4.816629 2.206879,-0.08069 0.09925,-1.361781 0.902596,-0.136178 -0.04726,-0.267302 0.90261,-0.05044 0.500912,-0.670795 -6.743521,-1.578651 -6.719895,1.44247 0.477288,0.832193 0.751385,-0.05549 v 0.378277 h 0.926233 v 1.523161 l 1.980057,0.02522 -0.02364,4.226529 h -2.003678 l -0.02835,0.963331 0.704124,0.08069 -0.07561,3.666695 1.479132,0.08071 -0.174851,14.530598 -1.956419,0.398445 0.02363,0.696015 h 0.680499 v 3.72217 h 1.124707 l -0.297722,5.083953 -0.378048,4.438358 7.121569,0.1866 -0.226828,-3.853298 -0.524546,-3.207722 -0.103963,-2.784073 6.044121,-0.105914 -0.174851,4.307231 -0.02835,4.549316 3.411932,0.26731 4.635874,-0.1866 1.455507,-0.42872 -0.80337,-2.436048 -0.198478,-3.828092 -0.378047,-2.728585 5.765306,-0.211826 -0.250459,3.343904 -0.02363,5.245327 2.30612,0.21183 2.282498,-0.0504 1.101077,-0.348 -0.652135,-4.978015 -0.222116,-3.747394 0.978216,-0.105915 0.02363,-3.343902 0.274093,-0.05548 -0.04728,-0.721233 h -1.129421 l -0.226827,-2.461285 -0.09924,-10.677284 0.850626,-0.02522 v -3.505308 l 0.354416,0.05549 v -0.696017 l -1.25702,-0.110961 0.02835,-4.06514 2.102917,-0.186605 -0.122861,-1.366825 0.926237,-0.08069 -0.052,-0.267314 1.228675,-0.61532 -6.24261,-1.255849 -6.341832,1.286115 0.401673,0.746456 0.978213,-0.0807 0.05199,0.32279 h 0.826987 l 0.04726,1.603855 2.05567,-0.02522 0.174848,3.934007 -7.268076,-0.05547 -0.850624,-5.911092 -0.680487,-3.132083 -0.548183,-5.618557 0.326073,-3.288431 14.488882,-1.099496 0.04726,-4.897336 0.727755,-0.186608 -0.04724,-0.746454 -0.552908,-0.322787 c -1.14e-4,0 -7.922562,1.174894 -10.429546,1.442468 -0.706297,0.07537 -0.652807,0.07042 -1.228673,0.13113 l -0.07561,-0.907852 -2.996075,-1.568554 0.03781,-1.825778 1.030198,-0.03027 0.0756,-2.51171 c 0,0 6.139781,-0.402974 8.421138,-0.938108 2.281355,-0.535141 5.51485,-1.069244 5.51485,-1.069244 l 1.531113,-4.145836 3.033892,-0.882633 0.250451,-0.696015 6.86639,-1.901424 0.77974,-0.640542 -2.60858,-5.699265 0.25048,-1.286117 1.32792,-0.696013 0.95457,-2.915207 z m -32.989856,21.727805 -0.03781,2.072926 1.554746,0.06556 -0.09924,1.96701 -3.048061,1.997266 -0.189019,0.57497 1.228671,0.01009 -0.0095,0.484186 -9.31428,0.453923 0.06143,-1.37691 0.425312,-0.685933 0.02835,-0.438784 0.0095,-0.948193 0.264629,-0.630458 0.09924,-0.509392 v -0.363141 l 0.401684,-1.603871 z m -19.479186,1.765256 -0.226835,1.392043 0.727746,0.857404 -0.04725,1.497955 0.675763,1.044022 -0.17485,1.230631 0.500923,0.721234 -9.503313,0.373227 -0.02363,-0.317741 1.101086,-0.13618 0.05197,-0.403482 -2.405367,-1.3063 -0.127589,-2.088047 1.15306,-0.05547 0.09925,-2.249446 z m 14.063574,32.107534 5.765308,0.373224 -0.198471,7.762091 0.751371,6.365024 -6.115005,-0.211839 z m -38.608682,0.322786 9.229227,0.479138 -0.803361,5.35126 v 4.498891 l 0.652137,2.511709 -9.026014,0.428704 z m 59.066078,0.05044 V 87.92449 l -5.864545,0.428706 -0.203201,-7.010602 -0.652148,-6.531449 z m -44.421242,0.29757 6.819132,0.02522 0.07089,12.306371 -6.365468,0.110961 -0.326075,-3.989484 -0.02363,-3.959223 z"
       id="path4735" />
  </g>
</svg>
