<svg version="1" xmlns="http://www.w3.org/2000/svg" width="533.3" height="533.3" viewBox="0 0 400 400"><path fill="#337ab7" d="M 34.3 1.6 C 17.4 6.1 3.9 20.5 0.3 37.8 C -0.5 41.5 -0.8 89.1 -0.8 199.3 c 0 169.6 -0.2 163.5 5.5 174.8 c 3.7 7.2 12.3 16 19.5 19.8 c 11.8 6.3 4.3 6.1 174.5 6.1 c 96 0 157.3 -0.4 161 -1 c 13.3 -2.2 27 -12 33.5 -24.1 c 6.2 -11.7 6 -4.2 6 -175.6 c 0 -109.9 -0.3 -157.8 -1.1 -161.5 c -3.6 -17.2 -17.4 -31.8 -34.4 -36.3 c -8.7 -2.2 -321 -2.2 -329.4 0.1 z m 192.6 79.9 c 17.9 3.4 31.2 9.6 41.7 19.5 c 15.7 14.8 25.4 33 27.6 51.8 c 0.6 5 1 39.6 1 81.4 V 307 h 11.3 c 13 0 17.4 1 20.8 4.6 c 1.9 2 2.4 3.7 2.4 7.5 c 0 4.2 -0.5 5.3 -3.3 8.1 l -3.2 3.3 l -37.8 0.3 c -25.1 0.2 -38.9 0 -41.4 -0.8 c -5.2 -1.5 -7.8 -5.2 -7.8 -11 c 0 -9.2 5.5 -12 23.8 -12 h 11.3 l -0.3 -78.3 l -0.3 -78.2 l -2.3 -5.9 c -4.7 -12.5 -13.5 -23.5 -24.6 -30.8 c -9.9 -6.4 -19.7 -9 -36.1 -9.5 c -19.6 -0.7 -31.7 2.2 -46.1 10.8 c -6.9 4.2 -25.2 21.4 -36.8 34.8 l -8.6 9.9 V 307 h 14.8 c 8.1 0 16.4 0.5 18.4 1 c 7.5 2.1 10.9 10.1 7.2 17.1 c -2.9 5.8 -4 5.9 -51.9 5.9 c -46.8 0 -48.4 -0.2 -51.9 -5.1 c -2.5 -3.6 -2.1 -11.1 0.8 -14.2 c 3.5 -3.7 8.4 -4.7 24.9 -4.7 H 95.2 V 112 H 82.5 c -15.1 0 -18.7 -1.2 -21.7 -7.4 c -1.7 -3.6 -1.8 -4.3 -0.5 -7.9 c 0.8 -2.2 2.7 -5 4.2 -6.1 c 2.7 -2 4.3 -2.1 28.3 -2.4 l 25.4 -0.3 v 35.2 l 10.3 -9.2 c 21.9 -19.7 38.1 -28.8 57.4 -32.3 c 10.6 -1.9 31.2 -2 41 -0.1 z"/></svg>