<svg width="34" height="40" viewBox="0 0 17 20" fill="none" xmlns="http://www.w3.org/2000/svg">
    <path d="M0.277304 13C0.181925 13 0.102443 12.9571 0.054754 12.8856C-0.0247279 12.7711 0.022961 12.6281 0.150132 12.5566L4.96673 9.99603L0.134236 7.4498C0.00706488 7.37828 -0.040624 7.23523 0.0388579 7.12079C0.11834 7.00636 0.277303 6.96344 0.404474 7.03497L6 9.99603L0.404474 12.9714C0.372681 13 0.324993 13 0.277304 13Z" fill="#FF8400"/>
    <path d="M6.26141 13C6.16603 13 6.08655 12.9571 6.03886 12.8856C5.95938 12.7711 6.00706 12.6281 6.13424 12.5566L10.9508 9.99603L6.13424 7.4498C6.00706 7.37828 5.95938 7.23523 6.03886 7.12079C6.11834 7.00636 6.2773 6.96344 6.40447 7.03497L12 9.99603L6.40447 12.9714C6.35679 13 6.3091 13 6.26141 13Z" fill="#FF8400"/>
    <path d="M12.2311 13C12.1516 13 12.0854 12.9571 12.0456 12.8856C11.9794 12.7711 12.0191 12.6281 12.1251 12.5566L16.1389 9.99603L12.1119 7.4498C12.0059 7.37828 11.9661 7.23523 12.0324 7.12079C12.0986 7.00636 12.2311 6.96344 12.3371 7.03497L17 9.99603L12.3371 12.9714C12.3106 13 12.2708 13 12.2311 13Z" fill="#FF8400"/>
</svg>
