<svg width="24" height="24" viewBox="0 0 24 24" fill="none" color="#FFFFFF" xmlns="http://www.w3.org/2000/svg">
    <path id="vector" d="M10.8218 0.987122C11.5675 0.633591 12.4335 0.633462 13.1792 0.987122C13.6953 1.23205 14.0618 1.69581 14.3862 2.21954C14.7167 2.7531 15.0799 3.48081 15.5337 4.38849L15.8931 5.10724C16.1987 5.71854 16.2873 5.87911 16.3989 5.99591C16.514 6.1163 16.6524 6.21279 16.8052 6.27911C16.9533 6.34327 17.1355 6.3717 17.814 6.44708L18.1401 6.48322C19.229 6.6042 20.098 6.69952 20.7534 6.83282C21.3919 6.96275 21.9872 7.15587 22.4038 7.58087C22.9998 8.18909 23.2803 9.03915 23.1636 9.88263C23.0819 10.4721 22.7183 10.9811 22.2827 11.4656C21.8354 11.963 21.1941 12.5579 20.3911 13.3035L20.0474 13.6229C19.4497 14.1779 19.2954 14.3356 19.2095 14.5027C19.1209 14.6753 19.0739 14.8664 19.0718 15.0604C19.0698 15.2482 19.1328 15.4633 19.4067 16.244C19.817 17.4132 20.143 18.3372 20.3267 19.0545C20.5032 19.7439 20.6016 20.4214 20.3716 21.0076C20.0477 21.8325 19.3458 22.4511 18.4868 22.6688C17.878 22.8229 17.2237 22.6432 16.5679 22.3846C15.8873 22.1161 15.0234 21.6832 13.9321 21.1375L13.0962 20.7195C12.533 20.438 12.3786 20.3684 12.231 20.3406C12.0788 20.3121 11.9222 20.3121 11.77 20.3406C11.6223 20.3683 11.4681 20.4379 10.9048 20.7195L10.0688 21.1375C8.97766 21.6831 8.11367 22.1161 7.43311 22.3846C6.77731 22.6432 6.12298 22.8227 5.51416 22.6688C4.65495 22.4512 3.9533 21.8327 3.62939 21.0076C3.39926 20.4213 3.49776 19.744 3.67432 19.0545C3.85803 18.3372 4.184 17.4131 4.59424 16.244C4.86807 15.4635 4.93117 15.2481 4.9292 15.0604C4.92707 14.8664 4.88012 14.6753 4.7915 14.5027C4.70559 14.3355 4.55159 14.1781 3.95361 13.6229L3.60986 13.3035C2.8068 12.5578 2.16559 11.9631 1.71826 11.4656C1.28253 10.981 0.919071 10.4722 0.837402 9.88263C0.720607 9.03907 1.00113 8.18912 1.59717 7.58087C2.01379 7.156 2.60906 6.96272 3.24756 6.83282C3.90298 6.69955 4.77203 6.60419 5.86084 6.48322L6.18701 6.44708C6.86554 6.37169 7.0477 6.34334 7.1958 6.27911C7.34845 6.21278 7.48706 6.11624 7.60205 5.99591C7.71351 5.87913 7.80251 5.71803 8.10791 5.10724L8.46729 4.38849C8.92107 3.48093 9.28428 2.75304 9.61475 2.21954C9.93918 1.69586 10.3057 1.23197 10.8218 0.987122Z" fill="currentcolor"/>
</svg>
