<svg xmlns="http://www.w3.org/2000/svg" viewBox="0 0 128 128">
  <path fill="#000000" fill-rule="evenodd" d="M8.45,37.97v52.06c0,3.74,1.99,7.19,5.23,9.06l45.09,26.03c3.24,1.87,7.22,1.87,10.46,0l45.09-26.03c3.24-1.87,5.23-5.32,5.23-9.06v-52.06c0-3.74-1.99-7.19-5.23-9.06L69.23,2.88c-3.24-1.87-7.22-1.87-10.46,0L13.68,28.91c-3.24,1.87-5.23,5.32-5.23,9.06Z M42.63,30.48v10.18c4.7-4.76,8.95-8.05,12.75-9.86s8.07-2.73,12.83-2.73c5.13,0,9.81,1.1,14.03,3.29,2.99,1.6,5.71,4.26,8.14,7.98s3.65,7.52,3.65,11.43v42.42h5.69c1.6,0,2.75.31,3.45.92s1.04,1.43,1.04,2.45c0,.96-.35,1.76-1.04,2.41s-1.84.96-3.45.96h-18.04c-1.66,0-2.83-.32-3.53-.96-.69-.64-1.04-1.44-1.04-2.41,0-1.02.35-1.83,1.04-2.45s1.87-.92,3.53-.92h5.61v-41.3c0-4.76-1.74-8.78-5.21-12.07-3.47-3.29-8.13-4.93-13.95-4.93-4.44,0-8.29.9-11.55,2.69s-7.91,6.24-13.95,13.35v42.26h7.62c1.6,0,2.75.31,3.45.92s1.04,1.43,1.04,2.45c0,.96-.35,1.76-1.04,2.41s-1.84.96-3.45.96h-21.97c-1.6,0-2.75-.32-3.45-.96s-1.04-1.44-1.04-2.41c0-1.02.35-1.83,1.04-2.45s1.84-.92,3.45-.92h7.62v-55.89h-5.69c-1.6,0-2.75-.32-3.45-.96s-1.04-1.47-1.04-2.49c0-.96.35-1.76,1.04-2.41s1.84-.96,3.45-.96h12.43Z"/>
</svg>
