<svg version="1" xmlns="http://www.w3.org/2000/svg" width="533.333" height="533.333" viewBox="0 0 400.000000 400.000000"><path d="M35.1 1.6C18.2 6.1 4.7 20.5 1.1 37.8.3 41.5 0 89.1 0 199.3c0 169.6-.2 163.5 5.5 174.8 3.7 7.2 12.3 16 19.5 19.8 11.8 6.3 4.3 6.1 174.5 6.1 96 0 157.3-.4 161-1 13.3-2.2 27-12 33.5-24.1 6.2-11.7 6-4.2 6-175.6 0-109.9-.3-157.8-1.1-161.5-3.6-17.2-17.4-31.8-34.4-36.3-8.7-2.2-321-2.2-329.4.1zm192.6 79.9c17.9 3.4 31.2 9.6 41.7 19.5 15.7 14.8 25.4 33 27.6 51.8.6 5 1 39.6 1 81.4V307h11.3c13 0 17.4 1 20.8 4.6 1.9 2 2.4 3.7 2.4 7.5 0 4.2-.5 5.3-3.3 8.1l-3.2 3.3-37.8.3c-25.1.2-38.9 0-41.4-.8-5.2-1.5-7.8-5.2-7.8-11 0-9.2 5.5-12 23.8-12h11.3l-.3-78.3-.3-78.2-2.3-5.9c-4.7-12.5-13.5-23.5-24.6-30.8-9.9-6.4-19.7-9-36.1-9.5-19.6-.7-31.7 2.2-46.1 10.8-6.9 4.2-25.2 21.4-36.8 34.8l-8.6 9.9V307h14.8c8.1 0 16.4.5 18.4 1 7.5 2.1 10.9 10.1 7.2 17.1-2.9 5.8-4 5.9-51.9 5.9-46.8 0-48.4-.2-51.9-5.1-2.5-3.6-2.1-11.1.8-14.2 3.5-3.7 8.4-4.7 24.9-4.7H96V112H83.3c-15.1 0-18.7-1.2-21.7-7.4-1.7-3.6-1.8-4.3-.5-7.9.8-2.2 2.7-5 4.2-6.1 2.7-2 4.3-2.1 28.3-2.4l25.4-.3v35.2l10.3-9.2c21.9-19.7 38.1-28.8 57.4-32.3 10.6-1.9 31.2-2 41-.1z"/></svg>