<svg xmlns="http://www.w3.org/2000/svg" viewBox="0 0 1100 320">
  <g fill="#9cc8f8" stroke="#9cc8f8">
    <circle cx="37" cy="284" r="23"/>
    <circle cx="101" cy="37" r="23"/>
    <circle cx="101" cy="220" r="23"/>
    <circle cx="284" cy="220" r="23"/>
    <rect x="93" y="37" width="16" height="180"/>
    <rect x="101" y="212" width="180" height="16"/>
    <rect x="93" y="212" width="16" height="90" transform="rotate(45 101 220)"/>
  </g>
  <g fill="#1685fc" stroke="#1685fc">
    <circle cx="284" cy="37" r="23"/>
    <circle cx="37" cy="101" r="23"/>
    <circle cx="220" cy="101" r="23"/>
    <circle cx="220" cy="284" r="23"/>
    <rect x="37" y="93" width="180" height="16"/>
    <rect x="212" y="101" width="16" height="180"/>
    <rect x="212" y="93" width="16" height="90" transform="rotate(225 220 101)"/>
    <path transform="translate(380, 8)" d="M13.60 200L13.60 104L36.40 104L36.40 119.40L36.80 119.40Q40.20 112.20 47.20 106.90Q54.20 101.60 66.20 101.60L66.20 101.60Q75.80 101.60 82.50 104.80Q89.20 108 93.40 113.20Q97.60 118.40 99.40 125.20Q101.20 132 101.20 139.40L101.20 139.40L101.20 200L77.20 200L77.20 151.40Q77.20 147.40 76.80 142.50Q76.40 137.60 74.70 133.30Q73 129 69.40 126.10Q65.80 123.20 59.60 123.20L59.60 123.20Q53.60 123.20 49.50 125.20Q45.40 127.20 42.70 130.60Q40 134 38.80 138.40Q37.60 142.80 37.60 147.60L37.60 147.60L37.60 200L13.60 200ZM224.80 160.40L151.60 160.40Q152.80 171.20 160 177.20Q167.20 183.20 177.40 183.20L177.40 183.20Q186.40 183.20 192.50 179.50Q198.60 175.80 203.20 170.20L203.20 170.20L220.40 183.20Q212 193.60 201.60 198Q191.20 202.40 179.80 202.40L179.80 202.40Q169 202.40 159.40 198.80Q149.80 195.20 142.80 188.60Q135.80 182 131.70 172.70Q127.60 163.40 127.60 152L127.60 152Q127.60 140.60 131.70 131.30Q135.80 122 142.80 115.40Q149.80 108.80 159.40 105.20Q169 101.60 179.80 101.60L179.80 101.60Q189.80 101.60 198.10 105.10Q206.40 108.60 212.30 115.20Q218.20 121.80 221.50 131.50Q224.80 141.20 224.80 153.80L224.80 153.80L224.80 160.40ZM151.60 142.40L200.80 142.40Q200.60 131.80 194.20 125.70Q187.80 119.60 176.40 119.60L176.40 119.60Q165.60 119.60 159.30 125.80Q153 132 151.60 142.40L151.60 142.40ZM259.80 124.40L240.00 124.40L240.00 104L259.80 104L259.80 76.20L283.80 76.20L283.80 104L310.20 104L310.20 124.40L283.80 124.40L283.80 166.40Q283.80 173.60 286.50 177.80Q289.20 182 297.20 182L297.20 182Q300.40 182 304.20 181.30Q308 180.60 310.20 179L310.20 179L310.20 199.20Q306.40 201 300.90 201.70Q295.40 202.40 291.20 202.40L291.20 202.40Q281.60 202.40 275.50 200.30Q269.40 198.20 265.90 193.90Q262.40 189.60 261.10 183.20Q259.80 176.80 259.80 168.40L259.80 168.40L259.80 124.40ZM333.20 200L333.20 48.80L357.20 48.80L357.20 116.20L357.80 116.20Q359.60 113.80 362.40 111.30Q365.20 108.80 369.20 106.60Q373.20 104.40 378.40 103Q383.60 101.60 390.40 101.60L390.40 101.60Q400.60 101.60 409.20 105.50Q417.80 109.40 423.90 116.20Q430 123 433.40 132.20Q436.80 141.40 436.80 152L436.80 152Q436.80 162.60 433.60 171.80Q430.40 181 424.20 187.80Q418 194.60 409.20 198.50Q400.40 202.40 389.40 202.40L389.40 202.40Q379.20 202.40 370.40 198.40Q361.60 194.40 356.40 185.60L356.40 185.60L356 185.60L356 200L333.20 200ZM412.80 152L412.80 152Q412.80 146.40 410.90 141.20Q409 136 405.30 132Q401.60 128 396.40 125.60Q391.20 123.20 384.60 123.20L384.60 123.20Q378 123.20 372.80 125.60Q367.60 128 363.90 132Q360.20 136 358.30 141.20Q356.40 146.40 356.40 152L356.40 152Q356.40 157.60 358.30 162.80Q360.20 168 363.90 172Q367.60 176 372.80 178.40Q378 180.80 384.60 180.80L384.60 180.80Q391.20 180.80 396.40 178.40Q401.60 176 405.30 172Q409 168 410.90 162.80Q412.80 157.60 412.80 152ZM458.40 152L458.40 152Q458.40 140.60 462.50 131.30Q466.60 122 473.60 115.40Q480.60 108.80 490.20 105.20Q499.80 101.60 510.60 101.60L510.60 101.60Q521.40 101.60 531 105.20Q540.60 108.80 547.60 115.40Q554.60 122 558.70 131.30Q562.80 140.60 562.80 152L562.80 152Q562.80 163.40 558.70 172.70Q554.60 182 547.60 188.60Q540.60 195.20 531 198.80Q521.40 202.40 510.60 202.40L510.60 202.40Q499.80 202.40 490.20 198.80Q480.60 195.20 473.60 188.60Q466.60 182 462.50 172.70Q458.40 163.40 458.40 152ZM482.40 152L482.40 152Q482.40 157.60 484.30 162.80Q486.20 168 489.90 172Q493.60 176 498.80 178.40Q504 180.80 510.60 180.80L510.60 180.80Q517.20 180.80 522.40 178.40Q527.60 176 531.30 172Q535 168 536.90 162.80Q538.80 157.60 538.80 152L538.80 152Q538.80 146.40 536.90 141.20Q535 136 531.30 132Q527.60 128 522.40 125.60Q517.20 123.20 510.60 123.20L510.60 123.20Q504 123.20 498.80 125.60Q493.60 128 489.90 132Q486.20 136 484.30 141.20Q482.40 146.40 482.40 152ZM575.40 200L614 148.40L580.80 104L610 104L629.20 132.80L650 104L677.40 104L644.60 148.40L683.20 200L654 200L629 165.60L603.80 200L575.40 200Z"/>
  </g>
</svg>
